<svg width="45" height="44" viewBox="0 0 45 44" fill="none" xmlns="http://www.w3.org/2000/svg">
<g clip-path="url(#clip0_1931_16146)">
<path d="M22.3585 0.279785C10.2919 0.279785 0.598877 10.0012 0.598877 22.0622C0.598877 34.1232 10.2924 43.8447 22.3585 43.8447C34.4239 43.8447 44.1094 34.1232 44.1094 22.0622C44.1094 10.0012 34.4239 0.279785 22.3585 0.279785Z" fill="#CED6DE"/>
<path d="M8.09109 15.233C4.30622 15.233 1.26941 18.2822 1.26941 22.0624C1.26941 25.8427 4.30622 28.8918 8.09109 28.8918C10.4152 28.8918 11.3237 27.2511 11.3237 27.2511V28.7437H14.9128V22.0623C14.9128 18.282 11.876 15.2329 8.09109 15.2329V15.233ZM8.09109 18.8037C9.89558 18.8037 11.3421 20.2587 11.3421 22.0625C11.3421 23.8664 9.89558 25.3214 8.09109 25.3214C6.28661 25.3214 4.8401 23.8664 4.8401 22.0625C4.8401 20.2587 6.28661 18.8037 8.09109 18.8037Z" fill="white"/>
<path d="M15.7808 10.53V22.0625C15.7808 25.8428 18.8199 28.8943 22.6047 28.8943C26.3896 28.8943 29.4209 25.8427 29.4209 22.0625C29.4209 18.2822 26.3896 15.2307 22.6047 15.2307C20.2806 15.2307 19.369 16.8759 19.369 16.8759V10.5298L15.7808 10.53ZM22.6047 18.8034C24.4092 18.8034 25.8562 20.2588 25.8562 22.0627C25.8562 23.8665 24.4093 25.3219 22.6047 25.3219C20.8002 25.3219 19.3533 23.8665 19.3533 22.0627C19.3533 20.2588 20.8002 18.8034 22.6047 18.8034Z" fill="white"/>
<path d="M36.8279 15.233C33.043 15.233 30.0062 18.2822 30.0062 22.0624C30.0062 25.8427 33.043 28.8918 36.8279 28.8918C40.0949 28.8918 42.8055 26.6198 43.4859 23.567H39.7126C39.1713 24.6081 38.0873 25.3211 36.8279 25.3211C35.0234 25.3211 33.5769 23.8662 33.5769 22.0623C33.5769 20.2585 35.0234 18.8035 36.8279 18.8035C38.0911 18.8035 39.1807 19.5193 39.7203 20.5655H43.4858C42.8082 17.5088 40.0975 15.2329 36.8278 15.2329L36.8279 15.233Z" fill="white"/>
</g>
<defs>
<clipPath id="clip0_1931_16146">
<rect width="43.9456" height="44" fill="white" transform="translate(0.365723)"/>
</clipPath>
</defs>
</svg>
