<svg width="155" height="44" viewBox="0 0 155 44" fill="none" xmlns="http://www.w3.org/2000/svg">
<g clip-path="url(#clip0_1931_15986)">
<path d="M13.0142 9.68018H22.3092C25.0454 9.68018 27.1767 10.2274 28.6617 11.3247C30.1632 12.4219 30.9167 13.9949 30.9167 16.0547C30.9167 17.2317 30.6474 18.2519 30.1082 19.1072C29.5692 19.9734 28.7744 20.6582 27.7184 21.1669C29.1759 21.6509 30.2924 22.4182 31.0734 23.4687C31.8489 24.5192 32.2339 25.7952 32.2339 27.2912C32.2339 28.7679 31.8572 30.0384 31.1064 31.0862C30.3557 32.1477 29.2832 32.9672 27.8889 33.5447C26.4974 34.1222 24.8364 34.4109 22.8839 34.4109H13.0114L13.0142 9.68018ZM0.63916 44.0552H44.6392V0.0551758H0.63916V44.0552ZM21.8417 13.8052C24.5119 13.8052 25.8567 14.7869 25.8567 16.7477C25.8567 17.7624 25.5157 18.5544 24.8309 19.1182C24.1462 19.6847 23.1534 19.9652 21.8609 19.9652H18.0659V13.8052H21.8417ZM22.4797 23.8427H18.0247V30.5252H22.3972C23.8987 30.5252 25.0564 30.2419 25.8622 29.6782C26.6707 29.1117 27.0749 28.3004 27.0749 27.2389C27.0749 24.9784 25.5377 23.8564 22.4549 23.8564L22.4797 23.8427Z" fill="#CED6DE"/>
<path d="M68.0142 9.68018H77.3092C80.0454 9.68018 82.1767 10.2274 83.6617 11.3247C85.1632 12.4219 85.9167 13.9949 85.9167 16.0547C85.9167 17.2317 85.6474 18.2519 85.1082 19.1072C84.5692 19.9734 83.7717 20.6582 82.7184 21.1669C84.1759 21.6509 85.2924 22.4182 86.0734 23.4687C86.8489 24.5192 87.2339 25.7952 87.2339 27.2912C87.2339 28.7679 86.8572 30.0384 86.1064 31.0862C85.3557 32.1477 84.2832 32.9672 82.8889 33.5447C81.4974 34.1222 79.8364 34.4109 77.8839 34.4109H68.0114L68.0142 9.68018ZM55.6392 44.0552H99.6392V0.0551758H55.6392V44.0552ZM76.8417 13.8052C79.5119 13.8052 80.8567 14.7869 80.8567 16.7477C80.8567 17.7624 80.5157 18.5544 79.8309 19.1182C79.1462 19.6847 78.1534 19.9652 76.8609 19.9652H73.0659V13.8052H76.8417ZM77.4797 23.8427H73.0247V30.5252H77.3972C78.8987 30.5252 80.0564 30.2419 80.8622 29.6782C81.6707 29.1117 82.0749 28.3004 82.0749 27.2389C82.0749 24.9784 80.5377 23.8564 77.4549 23.8564L77.4797 23.8427Z" fill="#CED6DE"/>
<path d="M138.689 34.155C140.039 33.8278 141.227 33.3795 142.264 32.8158V28.1132C140.1 29.447 137.727 30.1152 135.169 30.1152C133.492 30.1152 132.062 29.799 130.879 29.1665C129.702 28.534 128.806 27.6128 128.19 26.389C127.571 25.179 127.263 23.7133 127.263 21.989C127.263 20.2703 127.582 18.799 128.223 17.6165C128.863 16.4175 129.782 15.5017 130.973 14.8693C132.172 14.2368 133.621 13.9205 135.318 13.9205C136.552 13.9205 137.729 14.085 138.838 14.4128C139.954 14.74 140.991 15.2213 141.945 15.8538V11.0413C140.897 10.4995 139.762 10.087 138.535 9.80375C137.311 9.5205 136.013 9.38025 134.63 9.38025C132.65 9.38025 130.863 9.6745 129.268 10.263C127.673 10.8515 126.298 11.6985 125.17 12.8068C124.029 13.915 123.154 15.2432 122.549 16.7943C121.944 18.3425 121.642 20.0667 121.642 21.9917C121.642 23.9607 121.933 25.7318 122.516 27.2992C123.099 28.8722 123.935 30.1868 125.033 31.2867C126.127 32.373 127.466 33.2035 129.048 33.781C130.632 34.3585 132.403 34.6473 134.383 34.6473C135.873 34.6473 137.298 34.4828 138.645 34.155H138.689ZM154.639 44H110.639V0H154.639V44Z" fill="#CED6DE"/>
</g>
<defs>
<clipPath id="clip0_1931_15986">
<rect width="154" height="44" fill="white" transform="translate(0.63916)"/>
</clipPath>
</defs>
</svg>
