<svg width="239" height="44" viewBox="0 0 239 44" fill="none" xmlns="http://www.w3.org/2000/svg">
<g clip-path="url(#clip0_1931_15971)">
<path d="M0.0439453 0H17.5504C20.885 0 23.3859 0.833642 25.2384 2.22305C27.2762 3.89033 28.3878 6.29863 28.3878 9.26269C28.3878 12.6899 26.9984 14.8203 24.2196 16.1171V16.3023C27.9246 17.5065 30.055 20.841 30.055 24.824C30.055 28.6217 28.573 31.5858 26.1647 33.4383C24.1269 34.9203 21.5334 35.5687 18.0135 35.5687H0.0439453V0ZM15.7905 13.894C17.643 13.894 19.0325 12.8751 19.0325 10.7447C19.0325 8.70693 17.643 7.68803 15.6979 7.68803H9.67714V13.8014H15.7905V13.894ZM16.6241 27.6954C18.7546 27.6954 20.3292 26.3987 20.3292 24.083C20.3292 21.5821 18.6619 20.4705 16.6241 20.4705H9.76977V27.7881H16.6241V27.6954Z" fill="#CED6DE"/>
<path d="M31.6298 0H40.7998V35.6613H31.6298V0Z" fill="#CED6DE"/>
<path d="M42.6523 22.9714C42.6523 14.9129 47.8395 9.54053 55.898 9.54053C63.9565 9.54053 69.051 15.0055 69.051 22.9714C69.051 31.03 63.9565 36.4023 55.898 36.4023C47.8395 36.4023 42.6523 31.03 42.6523 22.9714ZM59.8809 22.9714C59.8809 18.5253 58.4915 15.7465 55.7127 15.7465C52.9339 15.7465 51.6371 18.5253 51.6371 22.9714C51.6371 27.4175 52.9339 30.2889 55.7127 30.2889C58.4915 30.1963 59.8809 27.4175 59.8809 22.9714Z" fill="#CED6DE"/>
<path d="M70.0698 22.9714C70.0698 14.9129 75.2569 9.54053 83.3155 9.54053C91.374 9.54053 96.3758 14.9129 96.3758 22.9714C96.3758 31.03 91.2814 36.4023 83.2228 36.4023C75.2569 36.4023 70.0698 31.03 70.0698 22.9714ZM87.2984 22.9714C87.2984 18.5253 85.909 15.7465 83.1302 15.7465C80.3514 15.7465 79.0546 18.5253 79.0546 22.9714C79.0546 27.4175 80.3514 30.2889 83.1302 30.2889C85.909 30.1963 87.2984 27.4175 87.2984 22.9714Z" fill="#CED6DE"/>
<path d="M98.2284 10.1888H106.75V13.9865H106.935C108.603 11.0224 110.918 9.44775 114.623 9.44775C117.865 9.44775 120.274 11.0224 121.478 13.8012H121.663C123.701 10.4666 126.387 9.44775 129.536 9.44775C135.464 9.44775 137.965 13.8012 137.965 19.6367V35.5685H129.073V21.2114C129.073 18.6178 128.239 16.9505 126.016 16.9505C123.793 16.9505 122.682 18.9883 122.682 21.7671V35.5685H113.79V21.2114C113.79 18.6178 112.956 16.9505 110.733 16.9505C108.51 16.9505 107.398 18.9883 107.398 21.7671V35.5685H98.2284V10.1888Z" fill="#CED6DE"/>
<path d="M149.173 32.2341H149.081V35.5687H140.559V0H149.451V12.7825H149.636C151.304 10.5595 153.619 9.35531 156.861 9.35531C163.253 9.35531 166.958 15.0982 166.958 22.7862C166.958 31.4005 162.975 36.4024 156.306 36.4024C153.527 36.4024 150.655 35.1056 149.173 32.2341ZM157.788 22.6936C157.788 18.618 156.306 15.9318 153.619 15.9318C150.841 15.9318 149.173 18.618 149.173 22.6936C149.173 26.7692 150.933 29.4553 153.619 29.4553C156.306 29.4553 157.788 26.8618 157.788 22.6936Z" fill="#CED6DE"/>
<path d="M167.976 22.8786C167.976 14.9127 173.256 9.44775 180.852 9.44775C184.649 9.44775 187.521 10.6519 189.744 12.7823C192.708 15.6538 194.005 20.0998 193.912 25.2869H176.869C177.239 28.4363 178.721 30.1035 181.407 30.1035C182.982 30.1035 184.371 29.3625 184.927 27.6952H193.541C192.059 33.5307 187.521 36.4022 181.129 36.4022C173.256 36.3095 167.976 30.9372 167.976 22.8786ZM176.869 20.1925H185.02C184.835 17.1358 183.167 15.5611 181.037 15.5611C178.536 15.4685 177.147 17.2284 176.869 20.1925Z" fill="#CED6DE"/>
<path d="M204.008 14.5425H204.193C206.046 11.0227 208.454 9.6333 211.511 9.6333C212.252 9.6333 212.715 9.72593 212.993 9.91118V17.6918H212.808C207.528 16.7656 204.471 19.2665 204.471 25.0094V35.6614H195.487V10.1891H204.008V14.5425Z" fill="#CED6DE"/>
<path d="M213.919 35.6615H222.534C222.904 36.773 224.016 37.7919 226.146 37.7919C229.018 37.7919 230.037 36.032 230.037 33.3458V31.4933H229.851C228.462 33.1606 226.517 34.3647 223.738 34.3647C218.273 34.3647 213.456 30.2891 213.456 22.3232C213.456 15.0057 217.347 9.35547 223.275 9.35547C226.702 9.35547 228.74 10.7449 230.129 12.8753H230.314V10.0965H238.836V32.1417C238.836 36.2173 237.447 39.3666 235.316 41.2191C233.093 43.1643 229.944 43.9979 226.331 43.9979C219.477 44.0905 214.753 41.3117 213.919 35.6615ZM230.407 21.9527C230.407 18.8034 228.925 16.2099 226.331 16.2099C223.831 16.2099 222.256 18.4329 222.256 21.9527C222.256 25.3799 223.831 27.7882 226.331 27.7882C228.832 27.7882 230.407 25.2873 230.407 21.9527Z" fill="#CED6DE"/>
</g>
<defs>
<clipPath id="clip0_1931_15971">
<rect width="238.792" height="44" fill="white" transform="translate(0.0439453)"/>
</clipPath>
</defs>
</svg>
