<svg width="143" height="44" viewBox="0 0 143 44" fill="none" xmlns="http://www.w3.org/2000/svg">
<g clip-path="url(#clip0_1931_16126)">
<path fill-rule="evenodd" clip-rule="evenodd" d="M11.7187 44H15.0132V26.4H11.7187V44ZM23.7953 43.736H26.7461V32.6315L39.1665 44V26.664H36.224V37.5788L23.7953 26.4V43.736ZM45.9026 39.4735C47.5086 40.7248 49.4363 41.448 51.503 41.448C53.516 41.448 54.9281 40.755 54.9281 39.2246C54.9281 37.8909 54.0275 37.3684 52.4503 36.784L49.897 35.8971C47.543 35.0611 45.7527 33.8401 45.7527 31.0337C45.7527 28.0321 48.4628 26.4 51.7037 26.4C53.6892 26.4 55.4987 26.8991 56.9122 27.7832V30.7601C55.4423 29.6739 53.8336 28.9259 51.767 28.9259C49.9877 28.9259 48.6581 29.59 48.6581 30.9746C48.6581 32.2259 49.4927 32.7264 50.9626 33.2296L53.8075 34.2279C56.5644 35.1973 57.8293 36.7001 57.8293 39.1724C57.8293 42.2826 55.0931 44 51.503 44C49.1435 44 47.1373 43.34 45.9026 42.5067V39.4735ZM65.5156 44H68.8087V26.4H65.5156V44ZM84.2582 41.3366C87.9707 41.3366 89.9548 38.9551 89.9548 35.1959C89.9548 31.4091 87.9694 29.0359 84.2582 29.0359H80.587V41.3366H84.2582ZM77.5895 26.4H84.3682C89.5863 26.4 92.9606 29.8375 92.9606 35.1959C92.9606 40.5584 89.5863 44 84.3682 44H77.5895V26.4ZM109.43 26.4V29.0359H101.459V33.2709H108.608V35.8765H101.458V41.3366H109.43V44H98.451V26.4H109.43ZM121.121 34.3695H124.389C126.324 34.3695 127.414 33.308 127.414 31.6759C127.414 30.0438 126.324 28.9809 124.389 28.9809H121.121V34.3695ZM121.121 36.8582V44H118.212V26.4H124.444C127.997 26.4 130.296 28.2301 130.296 31.6759C130.296 34.6225 129.02 36.3151 126.302 36.7496L132.485 44H129.177L123.19 36.8596H121.122L121.121 36.8582ZM10.5678 9.06125C11.8562 8.58963 12.86 7.17475 12.86 5.22913C12.86 1.98687 10.5678 0.306625 6.90072 0.306625H0.740723V18.4058H7.47272C11.1398 18.4058 13.432 16.6073 13.432 13.2179C13.432 11.3011 12.2288 9.62088 10.5678 9.06125ZM3.63372 7.91175V2.96038H6.87322C8.90822 2.96038 9.99585 3.69737 9.99585 5.4065C9.99585 7.11562 8.90685 7.91175 6.87322 7.91175H3.63372ZM3.63372 10.4473H7.41497C9.42247 10.4473 10.5101 11.4483 10.5101 13.0996C10.5101 14.7208 9.4211 15.7534 7.41635 15.7534H3.6351V10.4459L3.63372 10.4473ZM26.8726 18.7C31.0842 18.7 33.9208 16.1645 33.9208 11.2131V0.306625H30.9412V10.8584C30.9412 14.3371 29.5085 15.9596 26.8726 15.9596C24.2367 15.9596 22.8053 14.3371 22.8053 10.8584V0.306625H19.8257V11.1829C19.8257 16.1645 22.6898 18.7 26.8726 18.7ZM40.9361 17.1077C42.1681 17.9932 44.1742 18.7 46.5227 18.7C50.1046 18.7 52.8257 16.8713 52.8257 13.5712C52.8257 10.9478 51.5662 9.3555 48.8148 8.32425L45.9796 7.26275C44.518 6.73338 43.6875 6.20262 43.6875 4.87575C43.6875 3.40175 45.0047 2.695 46.7812 2.695C48.8437 2.695 50.4483 3.48975 51.91 4.64062V1.485C50.5061 0.543125 48.7007 0.012375 46.7235 0.012375C43.4867 0.012375 40.7931 1.75175 40.7931 4.93488C40.7931 7.91175 42.5696 9.20837 44.9181 10.0925L47.4687 11.0358C49.0445 11.6545 49.9327 12.2155 49.9327 13.6304C49.9327 15.2515 48.5289 15.9885 46.5227 15.9885C44.4602 15.9885 42.5407 15.2212 40.9361 13.8958V17.1077ZM63.4724 0.306625H60.4941V18.4044H63.4724V0.306625ZM71.9726 18.3824H74.8436V6.60825L86.9271 18.6629V0.279125H84.0643V11.8525L71.9726 0V18.3824ZM105.546 0.31075V3.02087H97.8102V7.37687H104.747V10.0568H97.8102V15.6709H105.546V18.4099H94.8897V0.31075H105.546ZM112.483 17.0954C113.715 17.9809 115.72 18.6876 118.069 18.6876C121.65 18.6876 124.372 16.8603 124.372 13.5589C124.372 10.9354 123.112 9.3445 120.362 8.31188L117.525 7.25175C116.063 6.721 115.233 6.19025 115.233 4.86337C115.233 3.38937 116.55 2.68263 118.327 2.68263C120.389 2.68263 121.994 3.47875 123.455 4.62825V1.474C122.051 0.53075 120.246 0 118.269 0C115.032 0 112.338 1.73937 112.338 4.9225C112.338 7.89937 114.115 9.196 116.463 10.0801L119.014 11.0234C120.59 11.6421 121.478 12.2031 121.478 13.618C121.478 15.2391 120.076 15.9761 118.068 15.9761C116.006 15.9761 114.086 15.2102 112.483 13.8834V17.0954ZM130.476 17.0954C131.708 17.9809 133.714 18.6876 136.063 18.6876C139.645 18.6876 142.366 16.8603 142.366 13.5589C142.366 10.9354 141.105 9.3445 138.355 8.31188L135.518 7.25175C134.058 6.721 133.226 6.19025 133.226 4.86337C133.226 3.38937 134.545 2.68263 136.32 2.68263C138.382 2.68263 139.988 3.47875 141.449 4.62825V1.474C140.046 0.53075 138.241 0 136.263 0C133.025 0 130.333 1.73937 130.333 4.9225C130.333 7.89937 132.11 9.196 134.458 10.0801L137.009 11.0234C138.584 11.6421 139.473 12.2031 139.473 13.618C139.473 15.2391 138.069 15.9761 136.063 15.9761C134 15.9761 132.081 15.2102 130.476 13.8834V17.0954Z" fill="#CED6DE"/>
</g>
<defs>
<clipPath id="clip0_1931_16126">
<rect width="141.625" height="44" fill="white" transform="translate(0.740723)"/>
</clipPath>
</defs>
</svg>
