<svg width="93" height="44" viewBox="0 0 93 44" fill="none" xmlns="http://www.w3.org/2000/svg">
<g clip-path="url(#clip0_1931_16144)">
<path d="M39.0419 0.000853893C34.9394 -0.0611155 31.2983 3.25569 31.2983 8.05577V29.6708C31.3024 30.4489 30.7213 31.139 29.8753 31.139H23.1187C8.49806 31.1564 9.80452 12.4478 22.2494 12.4303C27.7819 12.4224 29.7156 12.4303 29.7156 12.4303V7.18846H21.984C17.1393 7.19629 13.4715 9.04125 11.0044 11.7918C8.53717 14.5425 7.27409 18.2056 7.27605 21.846C7.27797 25.3507 8.47332 28.988 10.9702 31.7447C13.4671 34.5014 17.2636 36.3866 22.5106 36.3866H35.2636C36.0009 36.3866 36.6259 35.7621 36.6259 35.0338V8.62609C36.6178 7.24514 37.334 6.13494 38.4857 5.76745H38.4859C39.6031 5.41199 40.83 5.87494 41.5696 6.92688L41.5729 6.93157L41.5758 6.93645C43.368 9.87318 47.8462 17.0773 51.8912 23.5714C53.9137 26.8185 55.828 29.8883 57.2444 32.1589C57.9527 33.2942 58.5365 34.2298 58.9471 34.8879C59.3545 35.5408 59.5808 35.9035 59.6061 35.9445C59.9044 36.3661 60.2799 36.5245 60.5926 36.4259H60.5928L60.5932 36.4258C60.7706 36.3706 60.9102 36.2456 61.0146 36.0399C61.1191 35.8341 61.181 35.5484 61.181 35.2053V8.62988C61.1767 7.25332 61.8885 6.14079 63.0441 5.7754C64.1544 5.4194 65.3851 5.88239 66.1173 6.93537L66.1202 6.93952L66.1228 6.94386C67.919 9.87872 72.3991 17.0829 76.4451 23.577C80.4886 30.0674 84.1041 35.8577 84.1607 35.9479C84.1609 35.9481 84.161 35.9483 84.1611 35.9485C84.4535 36.3674 84.8527 36.5346 85.1861 36.4295C85.3666 36.3724 85.5109 36.2449 85.6184 36.039C85.7259 35.8331 85.7902 35.5494 85.7902 35.2092V0.164525V0.162718H80.5014V20.6275C80.5014 20.6275 77.2264 15.0739 71.6433 5.48852C66.181 -3.90178 55.8726 -0.0206092 55.8684 8.05957V20.6237C55.8684 20.6237 52.6719 15.0661 47.0925 5.48076C44.8719 1.66748 41.8489 0.043254 39.0419 0.000853893ZM22.9395 0.162718C-7.4518 0.158935 -7.16348 43.4572 23.3489 43.477H35.2712C40.402 43.4807 43.6967 40.4376 43.6926 34.829V23.8618C43.6926 23.8618 50.3793 34.9482 53.0033 39.2876C57.4676 46.6662 68.2708 45.2154 68.2436 35.9987V23.8695C68.2436 23.8695 74.9301 34.9518 77.5577 39.2972C82.022 46.6735 92.8259 45.2212 92.7984 36.0023V0.162718H87.5178V35.2089V35.2092C87.5215 36.8653 86.5931 37.791 85.7085 38.0706L85.708 38.0708C84.629 38.4147 83.4553 37.9544 82.7254 36.909L82.7229 36.9054L82.7206 36.9018C82.5696 36.6607 68.2588 13.7439 64.6808 7.88903C64.384 7.46749 63.9491 7.2943 63.5633 7.41626C63.1627 7.54458 62.9081 7.96859 62.9081 8.62916V35.2009V35.2013C62.9123 36.8641 61.9996 37.787 61.1189 38.0706L61.1183 38.0708L61.1178 38.0709C60.0546 38.405 58.8996 37.9456 58.1743 36.901L58.1724 36.8985L58.1708 36.896C58.1419 36.851 57.911 36.4816 57.4981 35.8207C57.0851 35.1599 56.4994 34.222 55.7895 33.0846C54.3696 30.8098 52.4533 27.7375 50.4301 24.4897C46.3854 17.9972 41.9166 10.8081 40.13 7.88126C39.8335 7.46039 39.3947 7.29027 39.0081 7.41265V7.41247C38.6031 7.54101 38.346 7.96495 38.3497 8.62031V8.62085V35.0336C38.3497 36.7288 36.96 38.11 35.2636 38.11H22.5104C16.708 38.11 12.4592 36.0037 9.67186 32.9141C6.88449 29.8244 5.55642 25.7607 5.55245 21.846C5.54848 17.7842 6.95519 13.6956 9.7163 10.616C12.4774 7.53639 16.5965 5.47273 21.9801 5.46486H21.9802H29.7156V0.162718H22.9395Z" fill="#CED6DE"/>
</g>
<defs>
<clipPath id="clip0_1931_16144">
<rect width="92.4939" height="44" fill="white" transform="translate(0.304565)"/>
</clipPath>
</defs>
</svg>
