<svg width="269" height="44" viewBox="0 0 269 44" fill="none" xmlns="http://www.w3.org/2000/svg">
<g clip-path="url(#clip0_1931_15991)">
<path d="M268.741 0H0V44H268.741V0Z" fill="white"/>
<path d="M126.825 20.644C128.64 20.3143 129.024 19.9127 129.024 19.9127C130.29 18.9161 129.737 17.3284 129.737 17.3284C129.078 15.7715 127.759 15.6774 127.759 15.6774C126.756 15.4295 126.018 15.5521 126.018 15.5521C125.437 15.6142 124.29 15.2856 124.29 15.2856C124.264 15.536 124.723 16.2202 124.723 16.2202C124.146 16.2686 123.804 15.9265 123.804 15.9265C123.224 15.3674 122.221 15.6476 122.221 15.6476C122.38 15.9265 123.276 16.7049 123.276 16.7049C122.774 16.7359 121.325 16.1137 121.325 16.1137C121.587 17.3593 123.012 18.2319 123.012 18.2319C124.699 18.9471 126.176 18.1675 126.176 18.1675C126.862 17.7325 127.574 17.4833 127.574 17.4833C128.497 17.1722 128.708 17.9815 128.708 17.9815C128.63 19.257 127.706 19.2892 127.706 19.2892C125.016 19.8507 121.396 19.4764 121.396 19.4764C121.668 19.1665 121.719 18.2939 121.719 18.2939L121.431 18.3869C119.847 18.2319 119.426 18.5728 119.426 18.5728C118.872 18.8851 118.608 19.6016 118.608 19.6016C117.886 19.8916 117.345 20.261 116.944 20.644H126.825Z" fill="#CED6DE"/>
<path d="M142.708 20.644L142.68 9.07714L141.787 9.04492L141.867 10.8533C140.97 10.4158 140.838 11.3181 140.838 11.3181C139.783 10.6959 139.783 11.8797 139.783 11.8797C138.915 11.5995 138.941 12.4386 138.941 12.4386C137.806 12.5328 137.938 13.5294 137.938 13.5294L138.822 16.6107C138.623 17.1722 135.96 20.4097 135.96 20.4097L134.851 20.0986L134.746 19.9127C135.037 20.0367 135.222 19.9746 135.222 19.9746C135.117 19.6016 135.248 18.8542 135.248 18.8542C135.59 17.3903 134.984 16.8598 134.984 16.8598C135.037 16.2686 134.615 15.5522 134.615 15.5522C135.169 14.868 134.35 14.1528 134.35 14.1528L134.246 13.9644L134.194 12.4386C134.061 12.4386 133.983 12.2527 133.983 12.2527C133.772 11.5995 133.323 12.0036 133.323 12.0036C133.033 11.3491 132.559 11.8797 132.559 11.8797C132.164 11.2871 131.74 11.8486 131.74 11.8486L131.398 10.7889L130.29 11.2251L130.659 12.4077C129.816 12.2217 130.08 13.0608 130.08 13.0608C129.393 13.0918 129.711 13.7475 129.711 13.7475C129.024 13.8094 129.287 14.5568 129.287 14.5568L130.045 15.779C129.445 16.4558 130.027 16.923 130.027 16.923C130.211 17.2664 130.423 17.2354 130.423 17.2354C130.107 18.263 130.546 19.3041 130.546 19.3041C130.06 19.8767 129.351 20.3217 128.689 20.644H142.708Z" fill="#CED6DE"/>
<path d="M136.323 26.4437C136.361 26.4387 136.403 26.4374 136.448 26.4437H136.323Z" fill="#CED6DE"/>
<path d="M136.825 26.4438C136.848 26.3558 136.898 26.2504 137.001 26.1724L137.184 26.4438H136.825Z" fill="#CED6DE"/>
<path d="M123.101 26.4438C123.006 26.6297 122.848 26.9123 122.642 27.1367L122.564 27.573C122.564 27.573 124.04 27.6969 124.172 28.6625L123.987 29.0356C123.987 29.0356 124.257 29.1286 124.647 29.1905L124.935 32.0959C124.267 32.0537 123.699 31.9831 123.302 31.8653C123.302 31.8653 122.774 31.7438 122.326 31.0287L122.329 30.4697C122.329 30.4697 121.693 30.2193 121.112 30.3433C121.112 30.3433 121.192 31.0287 120.876 31.1848C120.876 31.1848 120.85 31.6199 120.771 31.7774H120.532C120.532 31.7774 120.427 31.465 120.243 31.372L119.953 31.434L119.927 32.0575L119.636 32.0252C119.636 32.0252 119.531 31.6509 119.295 31.7129H119.055C119.055 31.7129 118.318 31.4959 117.815 30.5006H117.421L117.394 31.434C117.394 31.434 116.814 31.5889 116.419 30.6556L116.656 28.1333C116.656 28.1333 116.419 27.1987 118.026 27.2606L118.315 26.4438H123.101Z" fill="#CED6DE"/>
<path d="M118.315 26.4436L118.477 25.985C118.477 25.985 118.477 25.6738 118.898 25.7048C118.898 25.7048 119.636 25.9539 120.112 25.8288C120.112 25.8288 120.403 24.5831 120.93 24.179C120.93 24.179 118.292 24.7392 117.422 25.3937C117.422 25.3937 117.211 25.7668 116.763 26.1089C116.763 26.1089 115.761 25.6094 116.445 24.3042C116.445 24.3042 115.708 24.117 115.763 22.7759C115.763 22.7759 115.874 21.6604 116.944 20.644H126.825C126.68 20.6712 126.526 20.6973 126.36 20.7221L121.166 20.9402C121.166 20.9402 121.403 21.2514 121.403 21.4397C121.403 21.4397 121.403 21.6864 121.619 21.9417C121.619 21.9417 121.403 22.0298 121.061 21.9988L121.035 22.1549C121.035 22.1549 120.243 22.186 119.796 21.7496C119.796 21.7496 119.531 21.4708 118.818 21.0332C118.818 21.0332 117.815 21.2514 117.343 22.2169C117.343 22.2169 116.973 22.9953 117.46 23.294C117.46 23.294 117.976 23.9596 119.978 23.3374C119.978 23.3374 121.588 22.8714 122.59 22.59C122.59 22.59 125.491 21.6555 126.941 21.3133C126.941 21.3133 127.769 21.0964 128.689 20.644H142.708L142.722 26.4436H137.183L137 26.1721C137.063 26.1275 137.144 26.0915 137.252 26.0779C137.252 26.0779 136.481 25.9068 135.778 25.6614L136.198 24.3972L136.382 23.4007L136.962 23.8357C136.883 23.1515 137.014 22.0298 137.014 22.0298C136.567 22.3409 136.462 22.9023 136.462 22.9023L135.801 22.9631L136.382 23.4007L136.198 24.3972L135.778 25.6614C135.317 25.5016 134.887 25.3094 134.72 25.1123L134.4 25.2276L134.114 25.3293L134.141 25.4545C134.141 25.4545 134.827 25.5487 135.195 25.8597L135.222 25.7048C135.222 25.7048 135.879 25.8238 136.127 26.4436H132.58C132.461 26.239 132.347 25.9713 132.347 25.7048C132.347 25.7048 132.796 25.5177 133.218 25.5796V25.1744H133.481L133.006 24.8942C133.006 24.8942 131.764 26.249 129.441 25.576C129.036 25.4581 128.598 25.2784 128.129 25.0193C128.129 25.0193 128.603 26.1399 130.027 26.1089C130.027 26.1089 129.917 26.2576 129.715 26.4436H123.675C123.467 26.3815 123.297 26.3122 123.198 26.2329C123.198 26.2329 123.163 26.3183 123.101 26.4436H118.315Z" fill="#CED6DE"/>
<path d="M129.716 26.4438C129.412 26.7215 128.899 27.081 128.235 27.1367L127.918 27.6039L128.638 27.8123L126.81 28.0391L125.31 28.929C125.003 28.8186 124.683 28.6786 124.543 28.5385C124.543 28.5385 124.437 27.8519 124.675 27.4788C124.675 27.4788 124.999 27.4031 125.409 27.0983C125.52 27.014 125.637 26.9148 125.756 26.7946C125.756 26.7946 124.455 26.6781 123.675 26.4438H129.716Z" fill="#CED6DE"/>
<path d="M136.13 26.4438H137.183L137.673 27.1677L138.124 27.9473C138.145 27.8804 138.159 27.7961 138.149 27.6969L138.73 28.2894C138.73 28.2894 138.835 28.6625 138.597 28.8794C138.597 28.8794 138.503 28.7679 138.345 28.6935L136.514 29.783L134.785 30.1189C134.627 29.9825 134.485 29.752 134.485 29.752L134.457 30.1884L133.772 30.0322L133.272 28.867L133.534 28.8186C133.534 28.8186 133.271 28.5696 133.217 28.4134C133.217 28.4134 133.217 28.1333 132.901 27.8519L132.912 28.1344L132.928 28.5076L133.034 28.6315V28.9116L133.272 28.867L133.772 30.0322L134.457 30.1884L134.511 30.7473L134.984 30.2193C134.922 30.2193 134.851 30.1772 134.785 30.1189L136.514 29.783L138.345 28.6935C138.267 28.6575 138.174 28.6315 138.07 28.6315L138.018 28.1333C138.018 28.1333 138.083 28.0676 138.124 27.9473L137.673 27.1677L137.183 26.4438H142.723L142.737 32.2434L141.445 31.2444L141.286 31.1229L141.155 30.6556C141.155 30.6556 141.155 31.0596 141.26 31.3088L141.181 31.7774C141.181 31.7774 140.865 32.3673 140.312 32.0885C140.312 32.0885 140.206 31.6819 139.784 31.7129C139.784 31.7129 139.52 31.6199 139.415 31.372C139.415 31.372 138.992 30.8738 139.705 30.5614C139.705 30.5614 139.309 30.5614 139.098 30.3433L138.992 30.7808L138.861 30.5923C138.861 30.5923 139.047 31.434 138.625 31.993C138.625 31.993 138.203 31.807 137.964 31.6509L137.858 31.8381L137.701 31.6199C137.701 31.6199 137.226 31.6819 136.884 31.372C136.884 31.372 136.698 31.9013 136.408 32.0575L136.277 31.8381L136.146 31.962C136.146 31.962 135.855 31.8702 135.619 31.558C135.619 31.558 135.118 31.9013 134.616 31.9323L134.827 31.4959C134.827 31.4959 134.115 32.1814 133.508 31.9323C133.508 31.9323 133.428 31.993 133.271 31.7774C133.271 31.7774 131.201 31.9769 128.894 32.0786C127.532 32.138 126.088 32.164 124.937 32.0959L124.885 31.6199L124.649 29.1905C125.04 29.255 125.555 29.2847 126.046 29.1595C126.046 29.1595 125.686 29.0665 125.31 28.929L126.757 28.0712L128.638 27.8123L128.787 27.8569L129.421 28.0391C129.421 28.0391 129.448 27.635 129.95 27.7279C129.95 27.7279 130.266 26.8256 131.636 27.1057C131.636 27.1057 131.845 27.0586 132.145 27.211C132.247 27.2632 132.36 27.3388 132.48 27.4479L132.348 26.9806C132.348 26.9806 132.48 26.7624 132.85 26.8256C132.85 26.8256 132.712 26.6718 132.582 26.4438H136.13Z" fill="#CED6DE"/>
<path d="M136.131 26.4438C136.135 26.4562 136.141 26.4686 136.146 26.4822C136.146 26.4822 136.218 26.4526 136.324 26.4438H136.131Z" fill="#CED6DE"/>
<path d="M136.448 26.4438C136.561 26.4526 136.689 26.4947 136.804 26.6075C136.804 26.6075 136.801 26.5355 136.825 26.4438H136.448Z" fill="#CED6DE"/>
<path d="M168.427 20.6601C168.391 20.6166 168.37 20.598 168.37 20.598C168.37 19.3524 167.103 18.7921 167.103 18.7921C166.892 18.6062 166.629 18.6062 166.629 18.6062C166.313 18.5108 165.917 18.0447 165.917 18.0447C165.443 18.947 165.837 19.6015 165.837 19.6015C165.074 19.4453 161.356 20.1928 161.356 20.1928C160.458 20.4418 158.955 19.9448 158.955 19.9448C158.006 19.4143 158.163 18.7611 158.163 18.7611C158.376 17.6717 159.271 17.8266 159.271 17.8266C159.405 17.8266 159.536 17.7956 159.536 17.7956C160.3 17.6717 160.854 17.9505 160.854 17.9505C162.436 18.6979 165.258 17.9505 165.258 17.9505C166.604 17.4212 166.945 15.6773 166.945 15.6773C166.05 16.5189 165.205 16.3627 165.205 16.3627C164.969 16.3938 164.65 16.5189 164.65 16.5189C164.811 15.8644 165.521 15.5843 165.521 15.5843C164.572 15.1493 163.516 15.8644 163.516 15.8644C162.99 16.4259 161.83 16.6119 161.83 16.6119C162.7 16.2698 163.148 15.3364 163.148 15.3364C162.568 15.6773 161.566 15.6203 161.566 15.6203C160.037 15.3042 158.376 16.706 158.376 16.706C156.818 18.1067 157.558 19.6635 157.558 19.6635C157.749 20.1296 158.208 20.4481 158.689 20.6601H168.427Z" fill="#CED6DE"/>
<path d="M165.543 26.4658C165.756 26.5377 166.026 26.6704 166.103 26.886L166.155 27.5393C166.155 27.5393 167.474 27.3844 168.24 28.226L168.714 30.7471C168.714 30.7471 168.398 31.7114 167.447 31.4622C167.447 31.4622 167.659 31.0904 167.605 30.7471L167 30.5921C167 30.5921 166.762 30.9033 166.524 30.9961V31.3383C166.524 31.3383 165.152 32.46 164.257 31.4622L164.389 31.2143L164.759 30.4062C164.759 30.4049 164.338 30.3107 164.072 30.4371L164.099 30.7471C164.099 30.7471 164.177 30.9961 163.992 31.2453C163.992 31.2453 163.281 32.2419 158.087 32.2729C158.087 32.2729 154.105 32.4278 151.414 31.6196C151.414 31.6196 151.521 31.8378 151.363 31.9927C151.363 31.9927 150.781 31.9618 150.518 31.7758L150.465 31.9307C150.465 31.9307 150.071 32.0237 149.832 31.7114C149.832 31.7114 149.621 31.4325 149.357 31.4002C149.357 31.4002 149.489 31.7758 149.252 31.7424C149.252 31.7424 149.436 31.8068 149.463 31.9927C149.463 31.9927 148.884 32.2108 148.54 31.9307C148.54 31.9307 148.092 31.5874 147.803 31.6816C147.803 31.6816 147.961 31.8068 147.749 31.9927C147.749 31.9927 146.299 32.1799 145.297 31.4002C145.297 31.4002 145.533 31.7424 145.244 31.7758C145.244 31.7758 144.399 31.7758 143.82 31.3383L142.738 32.2419L142.724 26.4658H147.834C147.767 26.6245 147.694 26.7683 147.618 26.886L148.092 27.1042C148.092 27.1042 148.25 26.8266 148.412 26.4658H149.949L149.594 28.3809L150.319 29.5335C150.21 29.6092 150.128 29.7133 150.149 29.8434C150.149 29.8434 150.202 30.0926 150.703 30.219C150.703 30.219 150.781 29.8125 150.65 29.3775C150.65 29.3775 150.464 29.4295 150.319 29.5335L149.594 28.3809L149.949 26.4658H150.048L150.596 26.979C150.596 26.979 152.681 26.793 152.839 27.7883C152.839 27.7883 152.497 28.4429 152.523 29.0651C152.523 29.0651 152.786 29.2535 153.287 29.0973L153.049 28.754C153.049 28.754 153.55 28.7229 153.813 28.4118C153.813 28.4118 154.263 27.8206 155.554 28.1317C155.554 28.1317 156.135 28.3809 156.531 28.226C156.531 28.226 157.294 28.0698 157.61 27.7883L157.189 27.4153C157.189 27.4153 156.953 27.2914 156.742 27.0732C156.742 27.0732 156.559 26.808 156.532 26.4658H159.723L159.933 26.6468C159.542 26.7336 159.221 26.7621 159.221 26.7621C159.14 26.9183 159.3 27.0113 159.3 27.0113C160.064 27.5727 159.563 28.1007 159.563 28.1007C159.195 28.4118 159.009 28.4118 159.009 28.4118C158.613 28.5371 157.744 29.3154 157.744 29.3154C160.248 29.4084 162.226 29.0973 162.226 29.0973C161.329 28.9114 161.859 28.3809 161.859 28.3809C162.252 28.0388 163.019 27.7883 163.019 27.7883C162.095 27.6632 161.577 26.9306 161.339 26.4658H163.97L163.967 26.5117C163.967 26.5117 164.558 26.5316 164.971 26.4658H165.543Z" fill="#CED6DE"/>
<path d="M160.533 26.4658C160.335 26.5452 160.125 26.6034 159.931 26.6468L159.721 26.4658H160.533Z" fill="#CED6DE"/>
<path d="M148.412 26.4657C148.587 26.0828 148.767 25.6043 148.767 25.2671L149.963 26.3863L150.047 26.4657H148.412Z" fill="#CED6DE"/>
<path d="M142.708 20.6604L142.68 9.07737L143.502 9.04639L143.476 10.8201C143.476 10.8201 144.189 10.385 144.479 11.1325C144.479 11.1325 145.294 10.54 145.533 11.6307C145.533 11.6307 146.217 11.1325 146.587 12.2231C146.587 12.2231 147.852 12.2852 147.246 13.4999L147.59 13.9349L146.346 17.1104C146.346 17.1104 146.93 17.5765 146.297 17.9508L146.456 18.107C146.456 18.107 147.667 17.0795 148.434 18.107L148.803 18.4925L149.105 18.8061L149.219 18.9238L149.541 19.2585L150.331 20.0381C150.331 20.0381 150.648 19.3217 151.044 19.0725L151.228 18.2L151.308 17.7649C151.308 17.7649 151.967 17.6087 152.388 17.7339C152.388 17.7339 152.889 17.0163 153.391 16.8303C153.391 16.8303 153.047 16.7993 152.863 16.6741L152.152 17.0163L151.624 17.6409C151.624 17.6409 151.492 17.7649 151.281 17.672L150.676 17.0485C150.676 17.0485 149.935 17.0795 149.699 16.6741L149.725 16.3011C149.725 16.3011 150.12 16.3309 150.331 16.1759L150.278 15.5846L150.676 15.1186L151.044 15.0566C151.044 15.0566 151.915 14.3699 152.208 13.8544L149.568 11.7856L149.409 11.5687C149.409 11.5687 149.117 10.944 149.884 11.1325L152.889 12.8764L153.391 12.7511C153.391 12.7511 153.153 12.4091 153.206 12.2231L153.101 11.9728L153.181 11.7856C153.181 11.7856 154.34 11.8476 154.736 12.7511C154.736 12.7511 157.242 13.2495 157.478 16.3309C157.478 16.3309 157.584 18.4491 155.765 20.4422C155.765 20.4422 155.907 20.5314 156.125 20.6604C156.58 20.9269 157.365 21.3545 157.847 21.4399C157.847 21.4399 158.507 21.0334 158.797 21.7189L159.113 21.7808C159.113 21.7808 159.455 21.6259 159.641 21.968C159.641 21.968 163.016 22.6224 163.332 22.9955C163.332 22.9955 164.994 23.1207 165.601 23.4318C165.601 23.4318 166.786 23.8371 167.313 23.3066C167.313 23.3066 168.185 22.5605 167.738 21.875C167.738 21.875 167.658 22.2171 167.287 22.1862C167.287 22.1862 166.709 22.0609 165.994 22.1862L166.022 22.03C166.022 22.03 165.573 22.03 164.969 22.2481C164.969 22.2481 165.074 21.2516 165.68 20.7843C165.68 20.7843 165.363 20.8165 165.047 20.8785C165.047 20.8785 161.777 21.2516 160.142 21.0644C160.142 21.0644 159.393 20.9764 158.689 20.6604H168.427C168.521 20.7756 168.72 21.0582 168.818 21.5639C168.818 21.5639 169.054 23.5558 168.159 24.3044C168.159 24.3044 168.29 25.736 167.051 25.8599L167.182 25.3306C167.182 25.3306 167.182 24.8944 166.735 24.7085C166.735 24.7085 165.336 24.6762 164.755 24.4283L163.966 24.3341L164.045 24.6452V25.6418L163.97 26.4673H156.532C156.511 26.1995 156.589 25.8848 156.924 25.6108C156.924 25.6108 157.117 25.3468 157.458 25.022C157.667 24.8212 157.933 24.5993 158.243 24.3961C158.243 24.3961 157.426 24.7085 156.397 25.2055C156.397 25.2055 154.208 25.5179 153.075 24.8944L152.81 25.2997H151.994C151.994 25.2997 150.146 24.9563 149.197 24.4903C149.197 24.4903 149.132 24.4519 149.003 24.4085C148.874 24.3664 148.684 24.318 148.434 24.3044C148.434 24.3044 148.206 25.5997 147.833 26.4673H142.722L142.708 20.6604Z" fill="#CED6DE"/>
<path d="M161.336 26.4658C161.22 26.239 161.171 26.0767 161.171 26.0767C161.02 26.2427 160.789 26.3716 160.533 26.4658H161.336Z" fill="#CED6DE"/>
<path d="M164.969 26.4659C165.085 26.4486 165.187 26.4226 165.258 26.3892C165.258 26.3892 165.383 26.4102 165.539 26.4659H164.969Z" fill="#CED6DE"/>
<path d="M151.203 18.2943L151.018 18.2013C150.781 17.1118 149.963 17.765 149.963 17.765C149.462 18.3252 149.963 18.9487 149.963 18.9487L150.2 18.6984C149.832 18.1703 150.359 17.9521 150.359 17.9521C150.887 17.8902 150.781 18.5434 150.781 18.5434C150.332 19.1049 150.121 18.5434 150.121 18.5434L149.884 18.8557C150.729 19.7581 151.018 18.6363 151.018 18.6363H151.203V18.2943Z" fill="#CED6DE"/>
<path d="M150.134 25.814C150.309 25.814 150.45 25.6468 150.45 25.4385C150.45 25.2328 150.309 25.0654 150.134 25.0654C149.959 25.0654 149.817 25.2328 149.817 25.4385C149.817 25.6468 149.959 25.814 150.134 25.814Z" fill="#CED6DE"/>
<path d="M151.413 26.4807C151.599 26.4807 151.749 26.2935 151.749 26.0617C151.749 25.8312 151.599 25.644 151.413 25.644C151.228 25.644 151.079 25.8312 151.079 26.0617C151.079 26.2935 151.228 26.4807 151.413 26.4807Z" fill="#CED6DE"/>
<path d="M152.64 26.7053C152.837 26.7053 152.995 26.5081 152.995 26.2652C152.995 26.0223 152.837 25.8252 152.64 25.8252C152.445 25.8252 152.287 26.0223 152.287 26.2652C152.287 26.5081 152.445 26.7053 152.64 26.7053Z" fill="#CED6DE"/>
<path d="M153.801 26.2388C153.995 26.2388 154.153 26.0418 154.153 25.7989C154.153 25.5559 153.995 25.3589 153.801 25.3589C153.603 25.3589 153.446 25.5559 153.446 25.7989C153.446 26.0418 153.603 26.2388 153.801 26.2388Z" fill="#CED6DE"/>
<path d="M149.437 24.5508L149.964 25.2969L150.28 25.7344L151.079 26.0616L151.625 26.3072L152.416 26.4186L152.918 26.3567L153.602 26.0456L154.157 25.7964L154.525 25.235L154.327 25.2039L154.077 25.5783L153.525 25.8894L152.89 26.2005L152.286 26.2624L151.651 26.1385L151.149 25.913L150.386 25.5783L150.07 25.111L149.884 24.7689L149.437 24.5508Z" fill="#CED6DE"/>
<path d="M149.884 19.1346L150.041 18.7925L150.12 18.9474L149.989 19.2895L149.884 19.1346Z" fill="#CED6DE"/>
<path d="M161.091 27.8814C161.202 28.0302 161.266 28.2211 161.266 28.4293C161.266 28.904 160.923 29.2882 160.502 29.2882C160.081 29.2882 159.739 28.904 159.739 28.4293C159.739 27.9558 160.081 27.5703 160.502 27.5703C160.739 27.5703 160.949 27.6918 161.091 27.8814L160.906 27.9769L160.856 28.2433C160.795 28.081 160.66 27.967 160.502 27.967C160.29 27.967 160.117 28.1739 160.117 28.4293C160.117 28.6846 160.29 28.8917 160.502 28.8917C160.714 28.8917 160.887 28.6846 160.887 28.4293C160.887 28.3636 160.875 28.3016 160.856 28.2433L160.906 27.9769L161.091 27.8814Z" fill="#CED6DE"/>
<path d="M160.405 27.0324C160.663 27.0324 160.872 26.8354 160.872 26.5924C160.872 26.3495 160.663 26.1523 160.405 26.1523C160.147 26.1523 159.94 26.3495 159.94 26.5924C159.94 26.8354 160.147 27.0324 160.405 27.0324Z" fill="#CED6DE"/>
<path d="M160.326 26.8875L160.353 27.76H160.563L160.55 26.8726L160.326 26.8875Z" fill="#CED6DE"/>
<path d="M130.66 11.3802L131.187 11.1001L131.161 11.5042L131.372 11.3182L131.584 11.8177L131.292 11.8798L131.478 12.0347C131.874 12.3458 131.61 12.6259 131.61 12.6259L131.452 12.7474C130.819 12.9964 131.03 12.0347 131.03 12.0347L130.819 12.2528L130.609 11.6913L130.898 11.6604L130.66 11.3802Z" fill="white"/>
<path d="M130.08 13.7166C130.554 13.7785 130.58 14.1206 130.58 14.1206C130.606 13.4674 131.106 14.0499 131.106 14.0499C130.792 14.1516 130.685 14.278 130.685 14.278C130.685 14.6511 131.24 14.6511 131.24 14.6511C131.74 14.4008 131.661 14.1206 131.661 14.1206C131.74 13.6855 131.24 13.9024 131.24 13.9024L131.065 13.4947L131.345 13.4674V13.3125L131.082 13.1563L131.925 12.7509L131.819 13.0943L131.872 13.1873L132.082 12.9369L132.215 13.5294C131.846 13.4674 131.977 13.8094 131.977 13.8094C132.479 14.3388 132.743 13.7785 132.743 13.7785C132.954 13.4983 132.69 13.4055 132.69 13.4055C132.4 13.4983 132.374 13.6236 132.374 13.6236C132.215 12.8439 132.638 12.9691 132.638 12.9691C132.532 12.5948 132.631 12.4349 132.631 12.4349C132.922 12.5601 132.954 12.8749 132.954 12.8749C133.402 12.3779 133.473 12.9282 133.473 12.9282C132.904 13.0324 133.165 13.3434 133.165 13.3434C133.613 14.0586 133.772 12.9071 133.772 12.9071C133.402 12.4089 132.69 12.4709 132.69 12.4709L132.532 12.6581L132.082 12.72L132.004 12.5019L131.872 12.4709L131.898 12.2836C132.98 11.8797 133.956 12.7509 133.956 12.7509L133.983 14.2458C132.374 14.4937 130.396 15.8026 130.396 15.8026L129.606 14.4329C129.869 13.3744 130.871 12.7509 130.871 12.7509L131.029 12.9071L130.843 13.124L130.923 13.4055L130.474 13.7785L130.105 13.5926L129.974 13.8417L129.835 14.4515L130.076 14.9932C130.63 15.2424 130.421 14.5891 130.421 14.5891C130.263 14.4008 130.08 14.806 130.08 14.806C129.764 14.1826 130.185 14.2135 130.185 14.2135C130.027 14.0277 130.08 13.7166 130.08 13.7166Z" fill="white"/>
<path d="M133.983 14.4912C132.401 14.6152 130.501 16.0208 130.501 16.0208C130.29 16.177 130.238 16.1138 130.238 16.1138C129.869 16.8004 130.633 17.0929 130.633 17.0929C130.448 18.1205 130.949 18.8852 130.949 18.8852C131.292 19.3227 131.346 20.349 131.346 20.349C131.635 20.1618 131.714 19.7578 131.714 19.7578C131.978 21.0345 132.98 21.2836 132.98 21.2836C133.376 21.3765 133.561 21.7187 133.561 21.7187C133.667 21.3456 133.64 20.9725 133.64 20.9725C133.772 21.4708 134.219 21.7497 134.219 21.7497C134.272 21.2836 134.43 20.8783 134.43 20.8783C134.746 20.1618 134.483 19.4467 134.483 19.4467C134.641 19.7268 134.984 19.7888 134.984 19.7888C134.774 19.1344 134.984 18.5431 134.984 18.5431C135.117 17.8886 134.851 17.4226 134.851 17.4226L134.535 16.2699C134.299 15.8038 134.272 15.4692 134.272 15.4692C134.668 14.7837 133.983 14.4912 133.983 14.4912Z" fill="white"/>
<path d="M131.003 16.1757C131.503 16.3307 131.716 16.0827 131.716 16.0827C132.242 15.8646 132.348 16.4558 132.348 16.4558C132.348 16.736 132.453 16.9231 132.453 16.9231C132.821 16.9554 133.006 16.7682 133.006 16.7682C133.137 16.5798 132.928 16.3939 132.928 16.3939C132.85 16.1447 132.795 15.9885 132.795 15.9885C132.795 15.3961 133.192 15.4283 133.192 15.4283C133.456 15.4593 133.639 15.1792 133.639 15.1792C133.667 15.7716 133.245 15.8956 133.245 15.8956C132.955 16.0827 133.032 16.3307 133.032 16.3307C133.297 16.7682 133.086 16.7992 133.086 16.7992C132.928 17.1723 132.374 17.0483 132.374 17.0483C132.163 16.7682 132.189 16.5488 132.189 16.5488C131.978 16.1138 131.9 16.4558 131.9 16.4558C131.214 16.8909 131.003 16.1757 131.003 16.1757Z" fill="#CED6DE"/>
<path d="M133.191 17.3286C133.586 17.1104 133.586 16.6431 133.586 16.6431C133.797 17.1736 133.586 17.3286 133.586 17.3286C133.797 17.6706 133.481 17.8268 133.481 17.8268C133.481 18.4503 133.165 18.7304 133.165 18.7304C131.898 18.0127 131.846 17.1426 131.846 17.1426C132.241 17.8578 132.663 17.5157 132.663 17.5157C132.769 17.3905 132.712 16.9839 132.712 16.9839C132.712 16.9839 132.663 16.674 132.769 17.0174C132.875 17.3595 133.191 17.3286 133.191 17.3286Z" fill="#CED6DE"/>
<path d="M132.454 17.7945C132.745 18.2295 133.141 18.3548 133.141 18.3548C133.378 17.8875 133.298 17.5144 133.298 17.5144C132.982 17.5453 132.825 17.4214 132.825 17.4214C132.72 17.8565 132.454 17.7945 132.454 17.7945Z" fill="white"/>
<path d="M130.819 17.5776C131.161 18.232 131.292 18.3573 131.292 18.3573C131.531 18.5122 131.558 19.0415 131.558 19.0415C131.768 18.9472 131.822 18.6672 131.822 18.6672C132.349 19.5397 133.034 19.6959 133.034 19.6959C133.351 19.8199 133.588 20.1 133.588 20.1C133.64 19.4777 133.877 19.2273 133.877 19.2273C134.299 18.5431 134.061 17.7326 134.061 17.7326C134.247 18.1081 134.563 18.1379 134.563 18.1379C134.486 17.8268 134.537 17.5157 134.537 17.5157C134.643 17.0794 134.669 16.27 134.669 16.27L134.879 16.9554C134.563 17.3595 134.696 18.3882 134.696 18.3882C134.512 18.3263 134.327 18.2631 134.327 18.2631C134.432 18.9162 133.985 19.8199 133.985 19.8199C133.719 20.2239 133.668 20.535 133.668 20.535C133.351 20.1 132.295 19.7889 132.295 19.7889C132.059 19.5397 131.848 19.1034 131.848 19.1034C131.717 19.3848 131.558 19.3228 131.558 19.3228C131.452 18.9162 131.082 18.4812 131.082 18.4812C130.819 18.0462 130.819 17.5776 130.819 17.5776Z" fill="#CED6DE"/>
<path d="M129.658 23.4317C130.158 24.0538 130.344 24.2112 130.344 24.2112C130.713 24.6464 131.214 24.8645 131.214 24.8645C130.238 24.8645 129.658 23.8047 129.658 23.8047C129.5 23.4936 129.526 23.3696 129.526 23.3696L129.658 23.4317Z" fill="#CED6DE"/>
<path d="M130.29 22.9333C130.554 23.6806 131.661 24.4281 131.661 24.4281C131.925 24.4901 131.846 24.7095 131.846 24.7095C131.635 24.738 131.53 24.614 131.53 24.614C130.554 24.2719 130.211 23.1514 130.211 23.1514C130 22.7461 130.29 22.9333 130.29 22.9333Z" fill="#CED6DE"/>
<path d="M130.871 22.6523C131.214 23.3067 132.216 24.1781 132.216 24.1781C132.321 24.2711 132.506 24.3975 132.506 24.3975C132.426 24.4595 132.268 24.4595 132.268 24.4595C131.398 23.9909 130.845 22.9634 130.845 22.9634C130.66 22.5904 130.871 22.6523 130.871 22.6523Z" fill="#CED6DE"/>
<path d="M117.924 27.418C117.45 28.6946 117.713 30.3308 117.713 30.3308L117.395 30.3444V28.2905C116.552 28.1034 116.919 27.7601 116.919 27.7601C117.261 27.325 117.924 27.418 117.924 27.418Z" fill="white"/>
<path d="M119.585 31.2158C119.77 31.496 119.716 31.9013 119.716 31.9013C119.636 31.6199 119.346 31.6459 119.346 31.6459C119.188 31.2109 119.585 31.2158 119.585 31.2158Z" fill="white"/>
<path d="M120.298 31.2158C120.482 31.0918 120.482 30.8428 120.482 30.8428C120.876 31.0286 120.639 31.6199 120.639 31.6199C120.56 31.3397 120.298 31.2158 120.298 31.2158Z" fill="white"/>
<path d="M119.796 29.7532C120.403 29.6292 120.534 30.1883 120.534 30.1883C120.824 30.4374 120.798 30.0643 120.798 30.0643C120.482 29.038 119.796 29.7532 119.796 29.7532Z" fill="white"/>
<path d="M120.632 30.4546C120.817 30.5166 120.904 30.374 120.904 30.374C121.035 30.7162 120.85 30.9652 120.85 30.9652C120.798 30.6864 120.614 30.6864 120.614 30.6864L120.632 30.4546Z" fill="white"/>
<path d="M121.087 30.0021C120.716 28.6002 119.716 29.5348 119.716 29.5348C119.452 28.6944 119.847 28.0102 119.847 28.0102C120.4 28.1032 121.139 28.0102 121.139 28.0102C121.323 28.0102 121.271 28.1341 121.271 28.1341C121.403 28.8183 120.981 28.8183 120.981 28.8183C121.297 29.0675 121.377 28.9436 121.377 28.9436C121.957 29.0365 122.511 27.849 122.511 27.849C123.039 27.7871 123.723 28.2891 123.723 28.2891C124.119 28.6002 123.723 28.7255 123.723 28.7255C123.197 28.6312 122.273 28.8183 122.273 28.8183C122.141 28.8804 122.195 29.0985 122.195 29.0985C122.273 29.3179 122.3 30.0951 122.3 30.0951C121.825 29.9711 121.087 30.0021 121.087 30.0021Z" fill="white"/>
<path d="M122.354 29.0355C123.383 29.659 127.259 29.6726 127.259 29.6726C130.949 29.7036 132.955 29.1917 132.955 29.1917C133.428 29.1594 134.167 28.8496 134.167 28.8496C134.299 28.7876 134.246 29.0975 134.246 29.0975C134.01 29.9701 134.195 30.8427 134.195 30.8427C134.195 31.4339 133.559 31.4029 133.559 31.4029C128.154 32.1491 123.804 31.745 123.804 31.745C122.538 31.5268 122.485 30.8724 122.485 30.8724C122.801 29.8152 122.38 29.2226 122.38 29.2226C122.249 29.0975 122.354 29.0355 122.354 29.0355ZM123.558 25.9046C123.69 25.3443 124.805 24.7394 124.805 24.7394C125.358 24.5226 126.203 24.3354 126.203 24.3354C127.151 24.3664 127.856 25.384 127.856 25.384L127.469 25.7062L127.627 25.8302C127.97 25.4881 128.311 25.8612 128.311 25.8612C128.654 26.0471 129.501 26.3272 129.501 26.3272C129.106 26.8887 127.97 26.6706 127.97 26.6706C127.995 27.2618 127.311 27.6659 127.311 27.6659C127.785 28.0724 129.472 28.3835 129.472 28.3835C130.132 27.511 130.79 28.1344 130.79 28.1344C130.948 28.2273 131.133 28.4456 131.133 28.4456C130.764 28.6005 130.87 29.0987 130.87 29.0987C130.132 29.2537 128.048 29.2511 128.048 29.2511C125.964 28.9711 124.937 28.4456 124.937 28.4456C124.751 28.3216 124.842 28.1654 124.842 28.1654L124.83 27.9472C124.779 27.6981 125.016 27.7291 125.016 27.7291C125.753 27.6039 126.387 26.7958 126.387 26.7958C126.571 26.3272 126.176 26.4202 126.176 26.4202C124.884 26.3272 123.558 25.9046 123.558 25.9046Z" fill="white"/>
<path d="M130.212 27.7276C130.687 27.0422 131.346 27.5095 131.346 27.5095C131.505 27.6037 131.662 27.9459 131.662 27.9459C131.372 27.9459 131.278 28.1937 131.278 28.1937C131.015 27.6967 130.212 27.7276 130.212 27.7276Z" fill="white"/>
<path d="M131.109 29.0356C131.03 28.7245 131.266 28.6006 131.266 28.6006C131.451 28.7245 131.582 29.0047 131.582 29.0047C131.451 29.0356 131.109 29.0356 131.109 29.0356Z" fill="white"/>
<path d="M131.372 28.3919C131.688 28.5468 131.742 28.9435 131.742 28.9435L132.004 28.9125C132.083 28.3522 131.767 28.0708 131.767 28.0708C131.451 28.1019 131.372 28.3919 131.372 28.3919Z" fill="white"/>
<path d="M131.74 27.3855C131.925 27.4785 131.895 27.8837 131.895 27.8837C132.132 28.0387 132.226 28.444 132.226 28.444C132.411 28.3201 132.715 28.351 132.715 28.351C132.559 27.3236 131.74 27.3855 131.74 27.3855Z" fill="white"/>
<path d="M132.307 28.5695L132.349 28.8806L132.745 28.8497C132.77 28.6315 132.665 28.4766 132.665 28.4766C132.428 28.4145 132.307 28.5695 132.307 28.5695Z" fill="white"/>
<path d="M134.906 20.5042C134.985 20.8153 134.906 21.3135 134.906 21.3135C134.801 21.5627 134.483 21.999 134.483 21.999L135.037 22.527L136.303 22.558C136.462 22.123 137.185 21.3445 137.185 21.3445C137.685 19.1023 138.915 18.1677 138.915 18.1677V17.9818C138.625 17.9199 138.571 17.6397 138.571 17.6397C138.571 17.2021 138.887 17.0163 138.887 17.0163C139.02 17.1712 139.02 16.9221 139.02 16.9221C138.941 16.8291 138.835 16.8291 138.835 16.8291L138.764 16.9853L138.439 17.5158C138.279 18.0127 137.358 19.4146 137.358 19.4146C137.04 19.7245 136.066 20.8153 136.066 20.8153L135.935 20.7211C135.592 20.7521 134.906 20.5042 134.906 20.5042Z" fill="white"/>
<path d="M123.54 31.2204L123.645 31.1226L123.671 30.0269L123.565 29.8508C124.403 29.8037 124.649 30.1383 124.649 30.1383C125.222 31.0964 124.265 31.3134 124.265 31.3134C123.83 31.384 123.54 31.2204 123.54 31.2204ZM125.411 30.0144L125.991 30.0318C125.82 30.1036 125.853 30.3391 125.853 30.3391L125.839 31.3593C125.914 31.4547 125.971 31.5576 125.971 31.5576L125.367 31.5155C125.507 31.4126 125.536 31.3344 125.536 31.3344L125.538 30.2672C125.541 30.1273 125.411 30.0144 125.411 30.0144ZM126.589 30.0962L127.674 30.1024L127.693 30.3826C127.548 30.2809 127.363 30.2883 127.363 30.2883L127.128 30.2896L127.132 30.7234H127.264L127.489 30.6354L127.469 30.9738L127.297 30.9341L127.145 30.9428V31.3729C127.318 31.3965 127.376 31.379 127.376 31.379C127.542 31.379 127.671 31.2849 127.671 31.2849L127.648 31.57L126.824 31.5328H126.613C126.571 31.5018 126.625 31.4882 126.625 31.4882C126.676 31.4882 126.77 31.4249 126.77 31.4249L126.747 30.2647C126.714 30.188 126.589 30.0962 126.589 30.0962ZM128.254 30.095L128.828 30.1024C128.781 30.1569 128.749 30.2896 128.749 30.2896V31.037C128.762 31.3407 128.999 31.2997 128.999 31.2997C129.257 31.2775 129.216 30.9205 129.216 30.9205L129.21 30.1805C129.191 30.1569 129.17 30.1011 129.17 30.1011L129.559 30.0975C129.513 30.1457 129.54 30.219 129.54 30.219V31.0296C129.494 31.503 128.98 31.5241 128.98 31.5241C128.398 31.4844 128.392 30.975 128.392 30.975V30.219C128.387 30.1408 128.254 30.095 128.254 30.095ZM131.003 29.9265L131.9 29.8458L131.996 30.1C131.891 30.059 131.721 30.0726 131.721 30.0726H131.491L131.498 30.4469L131.721 30.4371C131.766 30.4061 131.859 30.3602 131.859 30.3602L131.865 30.7024C131.807 30.649 131.734 30.649 131.734 30.649L131.503 30.6527L131.514 31.0605L131.774 31.0531C131.859 31.0457 131.972 30.9279 131.972 30.9279L131.964 31.2105L131.095 31.3022C131.148 31.2786 131.187 31.2254 131.187 31.2254L131.152 30.0256C131.141 29.9487 131.003 29.9265 131.003 29.9265ZM132.592 29.7913L132.618 30.0715C132.709 29.9388 132.954 29.924 132.954 29.924L132.995 30.9985L132.948 31.068L133.378 31.0171L133.311 30.9588L133.267 29.8917C133.478 29.8149 133.621 29.9326 133.621 29.9326L133.581 29.6289L133.534 29.6513L132.677 29.7529L132.585 29.7454L132.592 29.7913Z" fill="#CED6DE"/>
<path d="M135.564 26.9802L135.775 26.5761C135.721 26.1075 135.274 25.8596 135.274 25.8596C135.222 25.9836 135.274 26.2017 135.274 26.2017C135.063 25.8596 134.376 25.6415 134.376 25.6415C134.299 25.7976 134.404 26.2017 134.404 26.2017C134.06 25.5485 133.322 25.5176 133.322 25.5176C133.322 25.7976 133.508 25.9836 133.508 25.9836C133.166 25.7344 132.479 25.8287 132.479 25.8287C132.584 26.4831 133.137 26.9491 133.137 26.9491L133.085 27.1053C132.664 26.8252 132.551 27.0434 132.551 27.0434C132.511 27.0806 132.559 27.1673 132.559 27.1673C132.769 27.5403 133.613 27.8527 133.613 27.8527C133.376 27.9457 133.297 28.1328 133.297 28.1328C133.587 28.7241 134.51 28.6931 134.51 28.6931C134.272 27.9457 134.588 27.3222 134.588 27.3222C134.958 26.8562 135.564 26.9802 135.564 26.9802Z" fill="white"/>
<path d="M134.721 27.2616C134.246 27.0447 133.508 26.42 133.508 26.42C133.192 26.2031 132.795 26.0469 132.795 26.0469L133.297 26.4522C133.587 26.7026 133.772 26.8897 133.772 26.8897C133.929 27.0756 134.536 27.4512 134.536 27.4512L134.721 27.2616Z" fill="#CED6DE"/>
<path d="M134.774 28.5693C134.51 28.1032 134.696 27.7611 134.696 27.7611C134.906 27.0744 135.564 27.1686 135.564 27.1686C135.908 27.3855 135.882 27.0744 135.882 27.0744C136.278 26.5774 136.726 26.8563 136.726 26.8563C136.936 27.1054 137.201 27.1686 137.201 27.1686C137.464 27.4797 137.306 27.6657 137.306 27.6657C137.28 27.8838 137.385 28.009 137.385 28.009C137.701 28.1032 137.675 28.4763 137.675 28.4763C137.754 28.8804 137.49 29.5658 137.49 29.5658C137.253 29.7529 137.016 29.5967 137.016 29.5967C136.83 29.6278 136.909 29.6897 136.909 29.6897C137.095 30.0021 136.909 30.157 136.909 30.157C136.593 30.5003 136.171 30.4371 136.171 30.4371C135.592 30.4371 135.564 30.157 135.564 30.157C135.486 29.8769 135.144 29.8769 135.144 29.8769C134.669 29.7529 134.616 29.2547 134.616 29.2547C134.59 29.0043 134.748 28.8804 134.748 28.8804C134.932 28.7551 134.774 28.5693 134.774 28.5693Z" fill="white"/>
<path d="M136.462 27.2928C136.567 27.5407 136.751 27.4788 136.751 27.4788C137.173 27.4788 136.883 27.9163 136.883 27.9163C136.672 28.1939 136.356 28.2584 136.356 28.2584C135.961 27.7589 136.013 27.5097 136.013 27.5097C136.013 26.8887 136.462 27.2928 136.462 27.2928Z" fill="#CED6DE"/>
<path d="M135.96 28.1022C135.96 27.387 135.511 27.4167 135.511 27.4167C135.273 27.4477 135.273 27.6981 135.273 27.6981C135.353 28.0711 135.194 28.0711 135.194 28.0711C134.878 28.1331 135.089 28.5063 135.089 28.5063C135.22 28.6623 135.301 28.5991 135.301 28.5991C135.617 28.6302 135.88 28.4133 135.88 28.4133C136.065 28.3823 135.96 28.1022 135.96 28.1022Z" fill="#CED6DE"/>
<path d="M135.776 28.9112C135.907 29.4715 135.591 29.6884 135.591 29.6884C135.275 29.7218 135.249 29.5024 135.249 29.5024C135.249 29.2843 135.064 29.2534 135.064 29.2534C134.933 28.7873 135.17 28.7873 135.17 28.7873C135.565 28.6931 135.776 28.9112 135.776 28.9112Z" fill="#CED6DE"/>
<path d="M136.171 29.0986C136.751 29.1607 136.725 29.7841 136.725 29.7841C136.54 30.0332 136.408 29.939 136.408 29.939C136.223 29.7209 136.119 29.8783 136.119 29.8783C136.119 30.2192 135.855 30.0022 135.855 30.0022C135.697 29.2226 136.171 29.0986 136.171 29.0986Z" fill="#CED6DE"/>
<path d="M136.487 28.6931C136.567 29.0661 137.069 29.3476 137.069 29.3476C137.357 29.3476 137.226 28.9733 137.226 28.9733C137.069 28.7861 137.174 28.6931 137.174 28.6931C137.516 28.6001 137.28 28.2891 137.28 28.2891C136.539 28.1019 136.487 28.6931 136.487 28.6931Z" fill="#CED6DE"/>
<path d="M137.069 26.8266L137.331 26.3916L137.542 26.4226C137.596 26.9506 137.938 27.3262 137.938 27.3262L137.887 28.0723C137.808 27.7922 137.516 27.7922 137.516 27.7922C137.727 27.1377 137.069 26.8266 137.069 26.8266Z" fill="white"/>
<path d="M135.406 30.3132L135.144 30.2822L134.51 31.0284C134.457 31.4337 133.956 31.6209 133.956 31.6209C134.959 31.5279 135.09 31.1548 135.09 31.1548C135.012 31.4647 134.878 31.7139 134.878 31.7139C135.511 31.3717 135.355 31.2478 135.355 31.2478C135.486 30.8735 135.433 30.8114 135.433 30.8114C135.46 30.6243 135.511 30.5933 135.511 30.5933C135.591 30.3132 135.406 30.3132 135.406 30.3132Z" fill="white"/>
<path d="M135.854 30.5923C136.249 30.6853 136.486 30.6543 136.486 30.6543C137.014 31.1229 136.461 31.8381 136.461 31.8381C136.302 31.4959 136.382 31.3397 136.382 31.3397C136.435 31.1526 136.302 30.9344 136.302 30.9344C136.065 31.2468 136.223 31.776 136.223 31.776C135.775 31.5889 135.669 31.1229 135.669 31.1229C135.669 30.8105 135.854 30.5923 135.854 30.5923Z" fill="white"/>
<path d="M136.725 30.5922C137.279 30.467 137.252 29.908 137.252 29.908C137.886 29.6887 137.913 28.7826 137.913 28.7826C138.307 28.6264 138.676 29.1284 138.676 29.1284C138.545 29.2225 138.386 29.1593 138.386 29.1593C138.992 29.4395 138.861 30.374 138.861 30.374C138.623 30.374 138.518 30.2501 138.518 30.2501C138.966 30.7781 138.518 31.8069 138.518 31.8069C138.044 31.6197 137.965 31.0917 137.965 31.0917C138.044 31.4648 137.886 31.5887 137.886 31.5887C137.542 31.4958 137.384 30.9962 137.384 30.9962C137.357 31.4648 137.121 31.2777 137.121 31.2777C137.015 31.1847 136.99 30.9343 136.99 30.9343C136.83 30.9034 136.725 30.5922 136.725 30.5922Z" fill="white"/>
<path d="M137.307 29.8149C137.781 30.095 137.913 30.4693 137.913 30.4693C138.07 30.53 138.282 30.9043 138.282 30.9043C138.256 30.4061 138.018 30.2822 138.018 30.2822C137.887 29.9079 137.571 29.6289 137.571 29.6289L137.307 29.8149Z" fill="#CED6DE"/>
<path d="M140.865 29.877C140.681 30.5004 140.284 31.2467 140.284 31.2467C140.681 30.8426 140.97 29.939 140.97 29.939L140.865 29.877Z" fill="#CED6DE"/>
<path d="M139.177 20.7212L139.203 21.4698C138.597 22.7452 138.948 24.4582 138.948 24.4582C138.711 24.4891 138.649 24.7074 138.649 24.7074C138.228 21.9978 139.177 20.7212 139.177 20.7212Z" fill="white"/>
<path d="M139.783 29.3465C139.704 29.6576 139.442 29.6266 139.442 29.6266L139.017 29.1284C138.78 28.723 138.991 28.5991 138.991 28.5991L139.522 27.8579C139.68 27.9819 139.783 28.1629 139.783 28.1629L139.41 28.6611C139.277 28.9115 139.467 29.0045 139.467 29.0045L139.783 29.3465Z" fill="#CED6DE"/>
<path d="M140.311 27.7896C140.442 28.4117 139.809 28.2878 139.809 28.2878C139.573 28.7241 139.914 28.7241 139.914 28.7241C140.442 28.7551 140.627 28.2568 140.627 28.2568C140.627 27.9135 140.311 27.7896 140.311 27.7896Z" fill="#CED6DE"/>
<path d="M142.738 15.6377L143.265 16.0826L142.725 16.436L142.236 16.0826L142.738 15.6377Z" fill="#CED6DE"/>
<path d="M140.656 16.3841C140.86 16.3544 141.017 16.2639 141.01 16.1796C141.001 16.094 140.829 16.0494 140.625 16.0779C140.421 16.1065 140.261 16.1982 140.27 16.2837C140.279 16.3692 140.451 16.4138 140.656 16.3841Z" fill="#CED6DE"/>
<path d="M144.714 16.3529C144.509 16.3232 144.352 16.2328 144.359 16.1472C144.368 16.0629 144.54 16.0183 144.745 16.0456C144.95 16.0753 145.109 16.1671 145.099 16.2525C145.091 16.3356 144.918 16.3827 144.714 16.3529Z" fill="#CED6DE"/>
<path d="M146.14 20.4121L146.113 21.3157C146.481 21.9069 146.561 23.1824 146.561 23.1824L146.825 22.6853C146.8 21.3777 146.14 20.4121 146.14 20.4121Z" fill="white"/>
<path d="M147.14 27.9767C147.273 29.3463 148.538 29.6264 148.538 29.6264C149.356 29.7194 149.356 29.0662 149.356 29.0662C149.356 27.3532 147.641 27.3223 147.641 27.3223C146.983 27.3855 147.14 27.9767 147.14 27.9767Z" fill="white"/>
<path d="M148.231 27.4004L147.843 27.5157H147.805L147.302 27.4389L147.147 27.5554L147.767 27.6323L147.727 27.8255L147.689 28.1751C147.564 28.159 147.47 28.1516 147.379 28.1751C147.411 28.0462 147.433 27.8107 147.379 27.6719L147.302 27.7487C147.302 27.7487 147.307 27.9073 147.224 28.2135C147.201 28.226 147.147 28.252 147.147 28.252L147.186 28.4454C147.495 28.1888 147.767 28.2916 147.767 28.2916C147.779 28.4465 147.788 28.956 147.612 29.1047L147.689 29.2213C147.689 29.2213 147.734 29.1171 147.767 29.0266C147.808 29.0106 148.055 28.9126 148.309 28.9114C148.322 29.0142 148.345 29.3154 148.193 29.5696L148.309 29.6464C148.309 29.6464 148.322 29.5447 148.347 29.4914C148.347 29.4914 148.667 29.2857 148.852 29.2981V29.6848L148.967 29.6464V29.1431C149.023 29.1295 149.187 29.1034 149.392 29.1816V29.0266C149.392 29.0266 149.238 28.9362 148.967 29.0266C148.984 28.9299 149.003 28.8345 148.967 28.7168L148.928 28.7552C148.928 28.7552 148.955 28.925 148.852 29.1047C148.852 29.1047 148.659 29.0638 148.425 29.2981C148.456 29.1803 148.442 29.0502 148.425 28.9114V28.8333C148.425 28.8333 148.459 28.8022 148.464 28.7948C148.512 28.7787 148.759 28.6957 148.967 28.7168V28.6783L149.238 28.6014L149.2 28.485L149.007 28.5619C149.076 28.2966 148.928 27.9037 148.928 27.9037L148.967 27.8255C148.752 27.8156 148.602 27.8677 148.503 27.9421C148.499 27.6942 148.403 27.5516 148.386 27.5157L148.464 27.4773L148.231 27.4004ZM148.231 27.5554C148.337 27.7177 148.385 27.8764 148.386 27.9817C148.33 27.9521 148.148 27.9248 147.843 28.0586L147.883 27.9421L147.805 27.6323H147.843L148.231 27.5554ZM148.773 28.0202C148.829 28.0115 148.828 28.0165 148.852 28.0202C148.98 28.2767 148.889 28.6014 148.889 28.6014C148.828 28.5742 148.71 28.5482 148.503 28.6399C148.55 28.5061 148.603 28.3362 148.541 28.1354C148.626 28.0709 148.709 28.0301 148.773 28.0202ZM148.193 28.1354C148.241 28.1342 148.297 28.1664 148.347 28.1751C148.363 28.2185 148.465 28.4577 148.347 28.7552C148.263 28.749 148.013 28.7477 147.805 28.9114C147.841 28.749 147.843 28.5308 147.805 28.252C147.805 28.252 147.978 28.1453 148.193 28.1354Z" fill="#CED6DE"/>
<path d="M152.152 28.0798C153.075 27.8518 152.283 27.3857 152.283 27.3857C151.494 27.0746 151.36 27.2295 151.36 27.2295C151.651 27.3547 151.624 27.5406 151.624 27.5406C152.047 27.5728 152.152 28.0798 152.152 28.0798Z" fill="white"/>
<path d="M152.204 29.0042L152.521 28.1626C152.02 28.3509 151.651 28.2581 151.651 28.2581C151.096 28.1626 150.886 28.3188 150.886 28.3188C150.543 28.5071 150.807 28.5381 150.807 28.5381C151.228 28.9422 152.204 29.0042 152.204 29.0042Z" fill="white"/>
<path d="M153.286 28.8804L153.463 29.0849L154.367 28.8184L153.826 29.1878L154.79 29.2535L154.34 28.5693L153.286 28.8804Z" fill="white"/>
<path d="M149.753 21.4958C149.778 20.9975 150.085 20.3839 150.085 20.3839L148.448 18.64C147.683 17.5493 147.194 18.0748 147.194 18.0748L146.642 18.2608C147.063 18.5098 147.274 18.9771 147.274 18.9771C147.747 18.8841 147.763 19.1284 147.763 19.1284L149.753 21.4958Z" fill="white"/>
<path d="M147.994 19.6538C147.729 19.3439 147.541 19.1208 147.433 19.2261C147.433 19.2261 147.784 19.8508 148.054 20.659C148.24 21.2105 148.386 21.8513 148.354 22.4351L148.91 22.4947L149.778 22.5901C149.778 22.5901 149.619 22.2789 149.725 21.7497C149.725 21.7497 149.315 21.2464 148.852 20.6776C148.7 20.4916 148.541 20.302 148.388 20.1211C148.246 19.9574 148.112 19.795 147.994 19.6538Z" fill="white"/>
<path d="M149.054 22.2155C149.249 22.2155 149.406 22.0284 149.406 21.7966C149.406 21.5661 149.249 21.3789 149.054 21.3789C148.858 21.3789 148.7 21.5661 148.7 21.7966C148.7 22.0284 148.858 22.2155 149.054 22.2155Z" fill="#CED6DE"/>
<path d="M149.2 20.8161L149.068 21.5016L149.226 21.6565L149.411 20.7852L149.2 20.8161Z" fill="#CED6DE"/>
<path d="M149.818 19.6291C149.95 19.6291 150.06 19.4915 150.06 19.3205C150.06 19.1507 149.95 19.0132 149.818 19.0132C149.686 19.0132 149.575 19.1507 149.575 19.3205C149.575 19.4915 149.686 19.6291 149.818 19.6291Z" fill="#CED6DE"/>
<path d="M149.277 20.9231C149.472 20.9231 149.632 20.7359 149.632 20.5042C149.632 20.2736 149.472 20.0864 149.277 20.0864C149.081 20.0864 148.923 20.2736 148.923 20.5042C148.923 20.7359 149.081 20.9231 149.277 20.9231Z" fill="#CED6DE"/>
<path d="M149.699 19.4468L149.357 20.2574L149.435 20.3504L149.857 19.5398L149.699 19.4468Z" fill="#CED6DE"/>
<path d="M148.986 22.124L149.039 22.5281L149.197 22.5591L149.145 22.155L148.986 22.124Z" fill="#CED6DE"/>
<path d="M154.551 22.404C154.34 23.5555 153.787 24.3339 153.787 24.3339C153.681 24.6301 154.023 24.3958 154.023 24.3958C154.525 23.7117 154.656 22.497 154.656 22.497C154.631 22.1548 154.551 22.404 154.551 22.404Z" fill="#CED6DE"/>
<path d="M155.132 22.7464C155.106 23.526 154.445 24.3961 154.445 24.3961C154.275 24.6453 154.63 24.5202 154.63 24.5202C155.211 23.9922 155.342 22.7154 155.342 22.7154C155.237 22.2804 155.132 22.7464 155.132 22.7464Z" fill="#CED6DE"/>
<path d="M155.765 22.9334C155.634 23.7118 155.157 24.5831 155.157 24.5831C155.212 24.8483 155.521 24.4281 155.521 24.4281C155.865 23.8369 155.95 23.0263 155.95 23.0263C155.896 22.3879 155.765 22.9334 155.765 22.9334Z" fill="#CED6DE"/>
<path d="M150.596 12.3472C150.517 11.663 150.123 11.3815 150.123 11.3815C149.727 11.1325 149.699 11.3506 149.699 11.3506C149.699 11.663 149.937 11.7856 149.937 11.7856L150.596 12.3472Z" fill="white"/>
<path d="M151.439 12.8763C151.36 12.4722 151.334 12.4103 151.334 12.4103C151.176 12.1612 151.07 12.0038 151.07 12.0038L150.596 11.6616C150.727 11.9727 150.781 12.3483 150.781 12.3483L151.439 12.8763Z" fill="white"/>
<path d="M151.466 12.2838C151.704 12.6569 151.651 12.937 151.651 12.937L152.258 13.5296C152.258 12.937 151.967 12.5639 151.967 12.5639L151.466 12.1909" fill="white"/>
<path d="M150.332 16.4248C150.043 16.5797 149.885 16.4867 149.885 16.4867C149.885 16.8908 150.543 16.8598 150.543 16.8598C150.806 16.8598 151.044 16.6032 151.044 16.6032V16.4558C150.806 16.6107 150.532 16.6317 150.532 16.6317L150.332 16.4248Z" fill="white"/>
<path d="M151.36 17.4523L150.912 17.0171C150.912 17.0171 151.308 16.7371 151.202 16.3627C151.202 16.3627 151.465 16.3008 150.963 16.3317L150.753 16.4247C150.753 16.4247 150.568 16.3627 150.542 16.2375L150.469 15.7889L150.807 15.3984L151.123 15.4294C151.518 14.8679 153.153 13.5603 153.153 13.5603C153.336 13.1239 153.655 12.9381 153.655 12.9381C153.469 12.7187 153.311 12.1274 153.311 12.1274C154.26 12.1274 154.392 13.093 154.392 13.093C157.266 15.3674 155.473 18.978 155.473 18.978C154.603 18.2629 152.661 17.8253 152.661 17.8253C152.952 17.2961 153.579 16.9564 153.579 16.9564C154.819 16.9874 154.603 15.4913 154.603 15.4913C154.365 14.9608 154.418 15.7405 154.418 15.7405C153.918 17.4832 152.573 15.9574 152.573 15.9574C152.415 15.8335 152.573 16.2065 152.573 16.2065C152.652 16.3937 152.704 16.3627 152.704 16.3627L152.829 16.4594L151.886 16.83C151.729 17.0791 151.492 17.4523 151.492 17.4523H151.36Z" fill="white"/>
<path d="M153.153 14.6511C152.837 14.5891 152.441 14.0908 152.441 14.0908L152.269 14.0747L152.521 14.3858C152.342 14.7676 152.565 14.8853 152.565 14.8853C152.856 15.0787 152.968 14.713 152.968 14.713C153.284 14.8692 153.153 14.6511 153.153 14.6511Z" fill="#CED6DE"/>
<path d="M151.149 19.0093L151.228 18.7601C151.915 18.5729 151.413 18.0437 151.413 18.0437C151.65 17.9198 151.755 17.9817 151.755 17.9817C152.072 17.8255 152.205 18.2296 152.205 18.2296C152.441 17.9817 152.626 18.1366 152.626 18.1366C152.072 18.6672 152.731 18.8544 152.731 18.8544C153.075 18.8544 153.153 18.511 153.153 18.511C152.995 18.3871 152.969 18.2631 152.969 18.2631C153.181 18.325 153.259 18.449 153.259 18.449C153.233 18.2296 153.46 18.2123 153.46 18.2123C153.591 18.3994 153.522 18.542 153.522 18.542C153.655 18.449 153.865 18.542 153.865 18.542C153.549 18.9472 153.998 19.2571 153.998 19.2571C154.524 19.5695 154.446 18.6982 154.446 18.6982C154.789 18.6982 154.762 19.0402 154.762 19.0402L154.999 18.8544C155.078 19.0712 155.078 19.2274 155.078 19.2274C155.21 19.0402 155.448 19.1964 155.448 19.1964C154.841 19.5695 155.263 19.9129 155.263 19.9129C155.448 20.0678 155.579 19.9438 155.579 19.9438L155.553 19.6946L156.028 19.7567L155.566 20.3219C153.02 18.8544 151.149 19.0093 151.149 19.0093Z" fill="white"/>
<path d="M152.31 12.751L152.783 13.0622C152.731 13.3435 152.494 13.6546 152.494 13.6546C152.546 13.3745 152.31 12.751 152.31 12.751Z" fill="white"/>
<path d="M154.605 13.0636C155.634 12.8145 156.295 14.1531 156.295 14.1531L155.554 13.8433C155.264 13.4986 154.605 13.0636 154.605 13.0636Z" fill="white"/>
<path d="M155.634 14.0601C155.844 14.3712 155.95 14.8707 155.95 14.8707C156.24 15.1495 156.978 15.6168 156.978 15.6168C156.793 14.3712 155.634 14.0601 155.634 14.0601Z" fill="white"/>
<path d="M156.133 15.3032C157.424 15.8028 157.031 17.1711 157.031 17.1711C156.82 16.7051 156.475 16.5489 156.475 16.5489C156.108 16.1758 156.133 15.3032 156.133 15.3032Z" fill="white"/>
<path d="M156.345 16.7671C156.371 17.0472 156.266 17.5752 156.266 17.5752C156.451 17.8876 156.607 18.48 156.607 18.48C156.767 18.324 156.927 17.4513 156.927 17.4513C156.818 17.0163 156.345 16.7671 156.345 16.7671Z" fill="white"/>
<path d="M156.186 17.9507C156.135 18.3548 155.685 19.1344 155.685 19.1344L155.87 19.3512L156.081 19.5074C156.713 18.6659 156.186 17.9507 156.186 17.9507Z" fill="white"/>
<path d="M159.244 24.2893C160.404 23.9162 160.905 24.7689 160.905 24.7689C161.117 25.2685 161.064 25.3614 161.064 25.3614C160.985 25.5176 161.039 25.8299 161.039 25.8299C160.326 26.2649 159.113 26.42 159.113 26.42C158.481 26.5761 158.928 26.9182 158.928 26.9182C159.244 27.2306 159.324 27.4796 159.324 27.4796C159.615 27.8218 159.139 28.1019 159.139 28.1019C158.136 28.2878 157.029 29.2844 157.029 29.2844C156.239 29.3476 155.078 29.2534 155.078 29.2534C154.762 29.0352 154.551 28.5209 154.551 28.5209C154.973 28.1453 155.341 28.5679 155.341 28.5679C155.657 28.7564 156.318 28.6943 156.318 28.6943C156.845 28.3833 157.689 28.0077 157.689 28.0077C157.82 27.9148 158.058 27.9457 158.058 27.9457C158.295 27.8837 158.031 27.6656 158.031 27.6656C157.452 27.2925 157.029 26.7633 157.029 26.7633C156.713 26.2649 157.029 26.0457 157.029 26.0457C157.478 25.5176 159.244 24.2893 159.244 24.2893Z" fill="white"/>
<path d="M165.076 30.3926L165.294 30.5797L164.73 31.5577L164.47 31.4127C164.835 31.1227 165.076 30.3926 165.076 30.3926Z" fill="white"/>
<path d="M165.441 30.6543L164.969 31.6198C165.811 31.7438 166.419 31.2146 166.419 31.2146L166.285 30.5923C165.889 30.7795 165.441 30.6543 165.441 30.6543Z" fill="white"/>
<path d="M162.906 23.1044C161.809 22.771 159.721 22.4971 159.721 22.4971L159.878 22.7461C160.211 22.8057 160.331 22.9569 160.363 23.1044H162.906Z" fill="white"/>
<path d="M160.319 25.5599C160.546 25.5599 160.729 25.343 160.729 25.0752C160.729 24.8087 160.546 24.5918 160.319 24.5918C160.093 24.5918 159.909 24.8087 159.909 25.0752C159.909 25.343 160.093 25.5599 160.319 25.5599Z" fill="#CED6DE"/>
<path d="M160.326 25.3926V26.2962L160.538 26.3271L160.511 25.3926H160.326Z" fill="#CED6DE"/>
<path d="M160.195 24.7704L160.063 24.2102L160.3 24.1792L160.354 24.6774L160.195 24.7704Z" fill="#CED6DE"/>
<path d="M137.237 22.8701L137.23 23.2842L137.331 23.2222L137.912 23.2085L137.24 23.9733L137.673 24.2795L138.307 24.2708V23.9907H138.174L137.629 23.9783L138.303 23.2495L138.321 22.9012L138.2 22.9321L137.357 22.9185L137.237 22.8701ZM137.307 21.9046L137.255 22.2777L137.358 22.2157L138.202 22.3396L138.31 22.4649L138.399 22.0422H138.241L137.438 21.922L137.307 21.8017V21.9046ZM137.964 19.9128L138.229 20.0999L138.044 20.1619C137.754 20.4122 137.939 20.5672 137.939 20.5672C138.13 20.675 138.175 20.473 138.175 20.473C138.465 20.0677 138.677 20.2858 138.677 20.2858C139.059 20.535 138.809 20.9402 138.809 20.9402L138.697 21.089L138.644 21.213L138.36 21.0964L138.493 21.0023C138.651 20.8783 138.623 20.6899 138.623 20.6899C138.552 20.349 138.36 20.6899 138.36 20.6899C137.905 21.1349 137.675 20.6589 137.675 20.6589C137.491 20.3169 137.964 19.9128 137.964 19.9128ZM139.046 18.6721V18.9782C138.599 18.8468 138.65 19.3216 138.65 19.3216C138.756 19.8198 139.151 19.7578 139.151 19.7578V19.9747C138.623 20.0677 138.439 19.5706 138.439 19.5706C138.228 18.6981 139.046 18.6721 139.046 18.6721ZM146.179 18.6199L146.152 18.9311L146.548 18.6831L146.152 19.5384L146.138 20.0379L146.746 18.7923L146.535 18.4341L146.179 18.6199ZM146.296 20.2548L146.42 20.2561L147.21 19.6338L147.273 19.4926L147.469 19.9128L147.378 19.8967L146.638 20.4718L146.785 20.768L146.968 20.9402L146.706 21.0482L146.296 20.2548ZM146.969 21.8898L147.051 22.3261L147.248 22.217L147.537 22.124L147.826 22.3111H148.196L147.747 22.0149L148.091 21.6245L147.931 21.1894L147.84 21.3593L147.51 21.8116L147.075 21.9207L146.969 21.8898Z" fill="white"/>
<path d="M168.509 23.1045C168.683 22.3311 168.527 21.4696 168.527 21.4696C168.262 20.9093 168 20.7854 168 20.7854C168.026 19.1964 167.023 18.9783 167.023 18.9783C167.023 19.2584 167.209 19.6637 167.209 19.6637C167.287 19.8199 167.05 19.6327 167.05 19.6327C166.997 19.1034 166.524 18.8543 166.524 18.8543C166.153 18.6361 165.969 18.356 165.969 18.356C165.547 19.0415 166.628 19.7578 166.628 19.7578C164.941 19.6637 162.013 20.2859 162.013 20.2859C159.957 20.7544 158.797 20.0677 158.797 20.0677C157.609 19.5088 158.058 18.418 158.058 18.418C158.638 17.2975 159.852 17.3905 159.852 17.3905C160.906 17.4525 161.644 17.7015 161.644 17.7015C163.439 18.1701 165.362 17.6086 165.362 17.6086C166.285 17.1735 166.576 16.239 166.576 16.239C166.023 16.643 165.257 16.5811 165.257 16.5811C164.758 17.0173 163.199 17.1103 163.199 17.1103C164.228 16.7051 164.202 16.27 164.202 16.27C164.282 16.0208 164.678 15.6787 164.678 15.6787C164.045 15.8027 163.308 16.394 163.308 16.394C162.832 16.736 161.669 16.736 161.669 16.736C161.513 16.798 161.171 16.7051 161.171 16.7051C161.909 16.4559 161.935 16.177 161.935 16.177C160.194 15.6787 158.665 16.767 158.665 16.767C157.162 18.0126 157.609 19.2273 157.609 19.2273C157.874 20.442 160.01 20.7854 160.01 20.7854C161.988 20.9093 164.333 20.566 164.333 20.566C166.128 20.3491 166.628 20.6069 166.628 20.6069C166.866 20.7544 166.628 20.7854 166.628 20.7854C165.547 20.6614 165.205 21.9232 165.205 21.9232C165.969 21.0965 166.945 21.3147 166.945 21.3147C167.128 21.3766 166.945 21.4076 166.945 21.4076C166.444 21.3147 166.075 21.6567 166.075 21.6567C166.761 22.0931 167.313 21.9071 167.313 21.9071C167.604 21.8427 167.763 21.5316 167.763 21.5316C168.212 22.2269 168.162 22.7437 167.964 23.1045H168.509ZM145.191 30.6542L145.402 29.9688C146.035 29.908 145.797 29.2225 145.797 29.2225C146.326 29.0663 146.931 28.1008 146.931 28.1008L147.051 28.4529L147.281 28.9263C147.392 29.1371 147.471 29.2461 147.446 29.2461C147.439 29.2461 147.117 29.5336 147.117 29.5336L147.09 29.3465L146.457 29.939L146.693 28.692L146.088 30.0939C145.77 30.4372 145.191 30.6542 145.191 30.6542ZM150.807 28.9114C151.044 29.846 150.887 31.0917 150.887 31.0917C155.078 32.7104 162.252 31.7127 162.252 31.7127C163.466 31.5578 163.492 31.3718 163.492 31.3718C163.94 31.3395 163.86 30.6864 163.86 30.6864C163.597 30.3431 163.439 28.9735 163.439 28.9735C162.49 29.5647 156.978 29.6886 156.978 29.6886C152.521 29.8126 150.807 28.9114 150.807 28.9114ZM163.902 30.1311L163.57 28.8495C163.308 28.4144 162.884 28.6945 162.884 28.6945C162.541 28.9437 162.12 28.8048 162.12 28.8048C161.672 28.7429 162.068 28.4454 162.068 28.4454C162.674 28.0414 163.254 27.8839 163.254 27.8839C163.702 28.0723 164.52 28.0103 164.52 28.0103C165.258 27.9161 165.1 28.5074 165.1 28.5074C165.127 29.0688 164.952 30.0555 164.952 30.0555C164.504 30.0244 163.902 30.1311 163.902 30.1311ZM167.102 30.2191C167.313 30.2501 167.655 30.4063 167.655 30.4063C167.814 29.7221 167.472 28.9114 167.472 28.9114C168.105 29.1295 168.131 28.8805 168.131 28.8805C168.316 28.3512 167.655 28.1963 167.655 28.1963C166.6 27.8529 166.205 27.9459 166.205 27.9459C166.284 28.2272 166.233 28.4144 166.233 28.4144C166.284 28.5074 166.284 28.8184 166.284 28.8184C167.339 29.1606 167.102 30.2191 167.102 30.2191ZM160.363 23.1045C160.402 23.2718 160.326 23.4317 160.326 23.4317C160.274 23.6189 160.158 23.7119 160.158 23.7119L160.303 24.0279C161.49 24.401 161.276 25.4546 161.276 25.4546C161.408 26.3581 161.948 26.7634 161.948 26.7634C163.213 27.8839 164.545 27.698 164.545 27.698C164.969 27.6658 165.047 27.791 165.047 27.791C165.495 28.0389 165.416 29.2536 165.416 29.2536C165.443 29.753 165.205 30.2501 165.205 30.2501C165.336 30.6542 166.102 30.4372 166.102 30.4372C166.208 30.4063 166.24 30.2501 166.24 30.2501C166.319 30.0331 166.14 29.815 166.14 29.815C166.076 29.7059 166.153 29.7221 166.153 29.7221C166.615 29.9699 166.576 30.5302 166.576 30.5302C167.328 29.5981 166.288 28.9424 166.288 28.9424C166.14 28.9263 166.035 28.8643 166.035 28.8643C165.917 28.3834 165.891 27.4179 165.891 27.4179V27.1687L165.495 26.7324C164.467 27.0113 163.716 26.6519 163.716 26.6519C163.729 26.4201 163.755 26.14 163.755 26.14C163.808 25.4855 163.595 23.8358 163.595 23.8358C163.913 23.992 165.601 24.272 165.601 24.272C166.022 24.4605 166.866 24.427 166.866 24.427C167.815 24.6464 167.525 25.3305 167.525 25.3305C168.29 24.7083 167.632 24.2411 167.632 24.2411C168.148 24.07 168.398 23.6065 168.509 23.1045H167.964C167.709 23.568 167.209 23.7738 167.209 23.7738C166.153 24.0229 164.598 23.4627 164.598 23.4627C164.151 23.2458 163.358 23.2767 163.358 23.2767C163.245 23.2173 163.09 23.1603 162.906 23.1045H160.363ZM141.577 28.288L141.526 31.0905L142.738 32.056L143.741 31.1524V28.599L143.345 28.6611V30.8413L142.712 31.4957L142.051 30.9975V28.6301L141.577 28.288ZM145.323 30.9652C145.85 31.7424 147.538 31.7424 147.538 31.7424C147.38 31.3074 146.878 31.1214 146.878 31.1214C147.617 30.8103 148.302 31.4957 148.302 31.4957C148.699 31.8689 149.172 31.8689 149.172 31.8689C148.961 31.6197 148.779 31.4623 148.779 31.4623C149.015 31.5565 149.226 31.4957 149.226 31.4957C148.961 31.0582 148.224 30.6232 148.224 30.6232C149.015 30.2191 149.674 31.1524 149.674 31.1524C150.018 31.6507 150.334 31.7424 150.334 31.7424L150.095 31.0273C150.334 31.6804 151.204 31.8689 151.204 31.8689C151.335 31.7424 151.23 31.5255 151.23 31.5255C150.966 31.5255 150.727 31.1524 150.727 31.1524L150.676 30.405C149.859 30.2799 149.885 29.8435 149.885 29.8435C149.99 29.1916 150.596 29.0974 150.596 29.0974L150.517 28.226C150.993 27.7884 151.941 28.0524 151.941 28.0524C151.836 27.5219 151.44 27.6967 151.44 27.6967C151.44 27.2592 150.938 27.2283 150.938 27.2283V27.3534L149.593 28.3809C149.804 29.4394 149.305 29.7816 149.305 29.7816C148.383 30.374 147.696 29.5336 147.696 29.5336L147.195 29.8758C147.67 29.9377 148.012 30.374 148.012 30.374L147.933 30.4657C147.591 30.1559 147.09 30.0307 147.09 30.0307L146.642 30.2191L146.431 30.405L145.323 30.9652ZM148.302 27.1997C148.724 26.6073 148.909 25.612 148.909 25.612L149.068 25.7991L148.83 26.5143L148.989 26.6692L149.252 26.0792L149.436 26.2962L149.124 26.7771L149.338 26.9543L149.647 26.5763L149.832 26.7002L149.411 27.1377L149.617 27.3683L149.963 26.8576L150.202 27.0448L149.769 27.4923L149.963 27.6348L150.411 27.2617L150.545 27.3856L149.462 28.2892C149.095 27.4488 148.302 27.1997 148.302 27.1997ZM144.004 28.5383V29.0986C144.663 29.5659 145.48 29.7841 145.48 29.7841C145.822 29.6588 145.664 29.38 145.664 29.38C145.48 29.2238 145.323 29.1929 145.323 29.1929C144.61 29.0986 144.004 28.5383 144.004 28.5383ZM145.165 27.4477L145.349 27.6335L144.692 28.6003L144.557 28.3512L145.165 27.4477ZM145.481 27.7599L144.873 28.6635C145.85 29.2857 146.404 27.791 146.404 27.791C145.85 27.9459 145.481 27.7599 145.481 27.7599ZM143.95 30.7794V31.2156C144.266 31.4648 145.031 31.6519 145.031 31.6519C145.216 31.5874 145.058 31.3099 145.058 31.3099C144.61 31.3099 143.95 30.7794 143.95 30.7794ZM140.047 26.2651L140.39 26.016C140.523 26.3891 140.257 26.7646 140.257 26.7646C140.232 26.5143 140.047 26.2651 140.047 26.2651ZM139.493 26.7324C139.624 26.6382 139.758 26.4213 139.758 26.4213C139.994 26.7324 139.889 27.1985 139.889 27.1985C139.704 27.0745 139.783 27.1675 139.783 27.1675L139.493 26.7324ZM141.367 30.1882C140.576 30.0022 139.917 29.4085 139.917 29.4085C139.891 29.9699 139.283 29.6576 139.283 29.6576C138.993 30.2191 139.549 30.374 139.549 30.374C139.996 30.3442 140.207 30.0641 140.207 30.0641C140.734 29.9699 140.365 30.374 140.365 30.374C140.181 30.5612 139.785 30.6418 139.785 30.6418C139.231 30.8277 139.495 31.2776 139.495 31.2776C139.811 31.6829 140.127 31.5267 140.127 31.5267C140.365 31.5578 140.365 31.7449 140.365 31.7449C140.576 32.2109 140.867 31.963 140.867 31.963C141.183 31.5578 140.998 31.1846 140.998 31.1846C140.814 30.7174 140.92 30.5302 140.92 30.5302C140.814 29.846 141.104 30.3442 141.104 30.3442C141.21 30.4682 141.288 30.7483 141.288 30.7483C141.367 30.9987 141.421 30.8103 141.421 30.8103L141.367 30.1882ZM142.698 29.6055C142.79 29.6055 142.864 29.4965 142.864 29.3639C142.864 29.2288 142.79 29.1221 142.698 29.1221C142.604 29.1221 142.53 29.2288 142.53 29.3639C142.53 29.4965 142.604 29.6055 142.698 29.6055ZM143.016 30.1968C143.108 30.1968 143.183 30.0878 143.183 29.9551C143.183 29.82 143.108 29.7122 143.016 29.7122C142.923 29.7122 142.847 29.82 142.847 29.9551C142.847 30.0878 142.923 30.1968 143.016 30.1968ZM142.724 30.6269C142.818 30.6269 142.892 30.5277 142.892 30.4063C142.892 30.2848 142.818 30.1869 142.724 30.1869C142.632 30.1869 142.557 30.2848 142.557 30.4063C142.557 30.5277 142.632 30.6269 142.724 30.6269ZM142.421 30.1336C142.523 30.1336 142.606 30.0257 142.606 29.8919C142.606 29.7568 142.523 29.649 142.421 29.649C142.318 29.649 142.235 29.7568 142.235 29.8919C142.235 30.0257 142.318 30.1336 142.421 30.1336ZM139.204 27.1043C139.178 26.8242 139.329 26.7895 139.329 26.7895C139.486 27.1476 139.784 27.3845 139.784 27.3845L139.765 27.3534C139.871 27.6026 140.207 27.8504 140.207 27.8504C140.26 28.1318 139.996 28.1318 139.996 28.1318C139.494 27.7265 139.204 27.1043 139.204 27.1043ZM139.944 27.3547C140.154 27.1055 140.127 26.9196 140.127 26.9196C140.233 27.1365 140.285 27.1055 140.285 27.1055L140.418 27.0436C140.47 27.1687 140.628 27.372 140.628 27.372C140.391 27.4352 140.233 27.7277 140.233 27.7277C139.996 27.6037 139.944 27.3547 139.944 27.3547ZM138.572 27.6658L138.835 28.0698C138.835 27.9149 138.915 27.7897 138.915 27.7897L139.219 27.4798L139.062 27.2307L138.757 27.5728C138.677 27.6037 138.572 27.6658 138.572 27.6658ZM138.148 27.0125L138.385 27.3237C138.413 27.1675 138.49 27.1365 138.49 27.1365L138.887 26.7944L138.649 26.6395L138.148 27.0125ZM138.202 13.7476C137.991 12.6891 138.755 13.0932 138.755 13.0932L138.202 13.7476ZM139.02 12.906C138.967 11.8165 139.653 12.4078 139.653 12.4078L139.02 12.906ZM140.047 12.1909C139.995 11.1013 140.708 11.7557 140.708 11.7557L140.047 12.1909ZM139.125 16.8909L138.499 14.8371L138.835 13.9646L139.204 15.4271L138.888 15.2721C139.151 16.4249 140.075 15.8324 140.075 15.8324C140.496 15.3651 140.102 15.2102 140.102 15.2102C139.627 14.961 139.547 15.2721 139.547 15.2721C139.204 13.9955 140.075 14.4616 140.075 14.4616C140.022 13.6535 140.365 13.5914 140.365 13.5914C140.812 13.7463 140.812 14.4306 140.812 14.4306C141.314 13.6535 141.604 14.4616 141.604 14.4616C141.63 14.5867 141.577 14.8061 141.577 14.8061C140.97 14.5867 140.893 15.2102 140.893 15.2102C140.839 15.6453 141.552 15.7705 141.552 15.7705C142.475 15.4904 142.475 14.5248 142.475 14.5248C142.211 14.5558 141.767 14.961 141.767 14.961L141.762 13.2791C141.999 13.6844 142.554 13.9025 142.554 13.9025C142.448 13.1551 142.026 12.7499 142.026 12.7499L143.582 12.7362C143.08 13.2035 143.107 13.9025 143.107 13.9025C143.555 13.8406 143.793 13.403 143.793 13.403L143.804 14.8682C143.462 14.3376 143.14 14.5372 143.14 14.5372C142.983 15.6589 143.952 15.7073 143.952 15.7073C144.636 15.7073 144.689 15.1482 144.689 15.1482C144.53 14.4616 144.083 14.8682 144.083 14.8682C143.872 13.7463 144.715 14.2136 144.715 14.2136C144.425 13.465 144.954 13.2171 144.954 13.2171C145.586 13.5914 145.27 14.2136 145.27 14.2136C146.14 13.7774 145.98 14.8371 145.98 14.8371C145.165 14.4616 145.27 15.3342 145.27 15.3342C145.639 16.2378 146.377 15.5523 146.377 15.5523C146.536 15.3342 146.588 15.1161 146.588 15.1161L146.246 15.178L146.588 14.0265L146.878 14.6177L147.105 13.9832L147.299 14.2136L146.22 16.9541C142.923 16.2067 139.125 16.8909 139.125 16.8909ZM139.151 13.2494C140.522 12.0037 142.183 11.7546 142.183 11.7546V12.5119C141.049 12.357 139.151 13.2494 139.151 13.2494ZM143.186 11.7942L143.178 12.4672C145.505 12.378 146.587 13.4056 146.587 13.4056C145.188 11.7248 143.186 11.7942 143.186 11.7942ZM142.354 11.7644L142.342 12.5032L142.991 12.5156L143.002 11.7557L142.354 11.7644ZM140.998 11.6925C141.156 10.2597 141.761 11.3814 141.761 11.3814L140.998 11.6925ZM142.157 10.9762H143.16C143.317 11.1943 143.025 11.5376 143.025 11.5376C142.684 11.6306 142.342 11.5042 142.342 11.5042C141.841 11.3802 142.157 10.9762 142.157 10.9762ZM142.211 9.29541H143.186L142.896 9.73047L143.076 9.91516L143.289 9.60404L143.315 10.5721L142.844 10.1717L143.054 10.7543L142.211 10.696L142.576 10.261L142.471 10.1395L142.083 10.4742L142.051 9.57058L142.447 9.91516L142.549 9.78997L142.211 9.29541ZM146.376 12.6259L146.957 13.123C147.141 11.9727 146.376 12.6259 146.376 12.6259ZM146.086 12.3767L145.427 12.0037C146.217 11.2241 146.086 12.3767 146.086 12.3767ZM144.451 11.4422L145.109 11.7533C145.138 10.6006 144.451 11.4422 144.451 11.4422ZM144.189 11.4298C144.109 10.9005 143.819 10.8832 143.819 10.8832C143.476 10.8212 143.451 11.3678 143.451 11.3678L144.189 11.4298ZM139.231 17.1413C142.79 16.4261 146.034 17.1413 146.034 17.1413C146.457 17.2033 146.272 17.5454 146.272 17.5454C145.929 17.6719 145.797 17.5764 145.797 17.5764C143.029 17.0162 139.309 17.7015 139.309 17.7015C138.783 17.7326 138.888 17.4834 138.888 17.4834C138.993 17.0484 139.231 17.1413 139.231 17.1413ZM136.093 23.5086C137.297 24.3142 138.493 25.0815 138.493 25.0815C139.52 23.9597 140.207 24.6154 140.207 24.6154C140.075 24.7704 139.891 24.7393 139.891 24.7393C139.362 24.6774 139.021 24.9885 139.021 24.9885C140.26 24.8 140.47 25.2054 140.47 25.2054C140.734 25.8276 139.891 26.109 139.891 26.109C139.891 25.2996 139.099 25.3305 139.099 25.3305C139.679 25.6404 139.653 26.1709 139.653 26.1709C139.415 26.8874 138.783 26.3271 138.783 26.3271C138.544 26.2341 138.202 25.9219 138.202 25.9219C136.356 25.7966 134.617 24.551 134.617 24.551L133.667 24.955C133.073 24.5162 132.675 23.8941 132.468 23.5086M136.093 23.5086C134.96 22.7513 133.821 21.9604 133.667 21.7497L133.561 22.0596C133.561 22.0596 133.298 21.7497 132.981 21.6865C132.981 21.6865 131.847 21.2515 131.608 20.4098C131.608 20.4098 131.557 20.659 131.346 20.752C131.346 20.752 131.082 19.7876 130.688 19.5397C130.688 19.5397 129.526 20.721 128.893 21.0333C128.893 21.0333 124.172 22.7462 122.538 22.9012C122.538 22.9012 122.038 22.8392 121.695 23.0884C121.695 23.0884 121.563 23.0561 121.377 23.0561C121.377 23.0561 120.892 23.2917 120.198 23.5086M120.198 23.5086C119.627 23.687 118.915 23.8531 118.213 23.8668C118.213 23.8668 117.513 23.9349 117.134 23.5086H116.235C116.375 23.8531 116.682 24.1518 117.263 24.3031C117.263 24.3031 115.947 24.8943 116.79 25.8896C116.79 25.8896 117.106 24.8 118.371 24.4889C118.371 24.4889 121.116 23.8047 121.617 23.5557C121.617 23.5557 120.877 24.396 120.719 25.4235C120.719 25.4235 120.614 26.047 120.323 26.109C120.323 26.109 119.585 26.3271 119.031 26.0768C119.031 26.0768 118.953 25.954 118.767 26.047C118.767 26.047 118.187 26.5131 118.029 29.0986C118.029 29.0986 117.845 30.5921 119.137 31.4028C119.137 31.4028 119.348 31.0297 119.585 31.0607C119.585 31.0607 119.77 30.5302 118.899 30.1882C118.899 30.1882 119.929 30.1261 119.875 31.1846C119.875 31.1846 120.166 31.1846 120.298 30.8723C120.298 30.8723 120.85 29.815 119.559 29.846C119.559 29.846 118.979 29.0044 119.664 27.7897C119.664 27.7897 120.693 27.822 121.166 27.7588C121.166 27.7588 121.773 28.0698 121.511 28.6933C121.511 28.6933 122.056 28.6933 122.267 27.0113L122.485 26.6382C122.485 26.6382 123.885 23.9597 126.89 23.9907C126.89 23.9907 127.919 24.5559 128.261 24.6489C128.261 24.6489 131.135 26.2962 132.743 24.458C132.743 24.458 132.398 24.0106 132.308 23.5086C132.288 23.3908 132.28 23.2706 132.295 23.1503C132.295 23.1503 132.352 23.2928 132.468 23.5086M116.235 23.5086C115.909 22.7166 116.446 21.6865 116.446 21.6865C117.394 20.1619 118.766 19.7876 118.766 19.7876C119.452 18.6981 120.534 18.6981 120.534 18.6981C120.403 19.0092 120.137 19.2571 120.137 19.2571C120.823 19.1022 121.431 18.5419 121.431 18.5419C121.431 19.4133 120.613 19.7654 120.613 19.7654C123.513 20.1408 127.442 19.6637 127.442 19.6637C129.051 19.4133 128.956 17.9198 128.956 17.9198C128.64 16.5798 126.94 17.3631 126.94 17.3631C123.382 19.4183 121.668 16.674 121.668 16.674C122.537 17.0162 124.2 17.0162 124.2 17.0162C123.592 16.767 122.747 15.8337 122.747 15.8337C123.276 15.8956 123.54 16.1448 123.54 16.1448C124.437 16.6108 125.465 16.5179 125.465 16.5179C125.148 16.1757 124.647 15.6143 124.647 15.6143C125.28 15.8647 125.86 15.8647 125.86 15.8647C126.229 15.8956 126.545 15.9576 126.545 15.9576C127.153 16.0518 127.495 15.9267 127.495 15.9267C129.421 16.1138 129.631 17.8875 129.631 17.8875C129.842 20.1298 127.231 20.3169 127.231 20.3169C126.202 20.628 120.403 20.535 120.403 20.535C121.007 20.8152 121.166 21.3444 121.166 21.3444C121.245 21.6245 121.431 21.8117 121.431 21.8117C120.823 21.8427 120.218 21.0643 120.218 21.0643C120.403 21.4386 120.876 21.9976 120.876 21.9976C120.56 22.155 119.847 21.2824 119.847 21.2824C118.713 20.3479 117.738 21.3134 117.738 21.3134C116.71 22.155 116.893 22.8392 116.893 22.8392C116.9 23.1429 116.996 23.3585 117.133 23.5086H116.235ZM139.388 22.9644V24.2411C140.47 24.1469 140.362 24.9562 140.362 24.9562C140.812 25.1137 140.533 25.8957 140.533 25.8957C140.691 26.3309 140.496 26.8564 140.496 26.8564C141.049 28.164 142.709 28.6623 142.709 28.6623L142.657 22.9335L139.388 22.9644ZM139.415 22.7908L142.646 22.7822L142.658 17.9817L139.247 17.9644L139.415 22.7908ZM142.824 18.0139L142.851 22.8094L145.956 22.8181L146.061 17.983L142.824 18.0139ZM145.955 22.9644L142.855 22.9595L142.87 28.6933C144.584 28.3822 145.084 27.3534 145.084 27.3534C145.162 26.8254 145.929 24.6451 145.929 24.6451L145.955 22.9644ZM145.348 27.3237C145.613 27.6658 146.376 27.5728 146.376 27.5728C146.508 27.4786 146.457 27.0436 146.457 27.0436C146.376 26.7944 146.431 26.6395 146.431 26.6395C146.614 26.6705 146.64 26.8886 146.64 26.8886C146.64 26.9816 146.562 27.3547 146.562 27.3547C147.378 26.8254 146.667 25.7978 146.667 25.7978C146.852 24.7704 147.115 24.5212 147.115 24.5212C147.958 23.7428 148.408 24.0241 148.408 24.0241C149.146 24.0241 150.386 24.4282 150.386 24.4282C150.887 24.5844 152.599 24.8943 152.599 24.8943C152.653 24.7083 152.759 24.5844 152.759 24.5844C153.233 24.2399 153.575 22.6211 153.575 22.6211C153.575 22.3719 153.68 22.4972 153.68 22.4972C153.76 22.7785 153.733 22.9024 153.733 22.9024C153.787 23.4627 153.339 24.4593 153.339 24.4593C154.235 24.9885 155.791 24.8943 155.791 24.8943C156.846 24.8632 157.742 24.3353 157.742 24.3353C158.745 23.8668 160.01 23.9907 160.01 23.9907L159.957 23.7428C159.034 23.3387 159.668 22.8405 159.668 22.8405L159.299 22.341C158.27 22.248 155.157 20.5982 155.157 20.5982C152.441 19.1356 151.044 19.3835 151.044 19.3835C149.857 20.6292 150.07 22.6855 150.07 22.6855L150.727 22.7475C150.676 21.3134 151.572 20.5673 151.572 20.5673C151.81 20.473 151.625 20.7531 151.625 20.7531C150.676 22.155 151.07 23.1206 151.07 23.1206C150.648 22.9335 148.169 22.8082 148.169 22.8082C147.51 22.6521 146.983 23.0264 146.983 23.0264C146.536 23.4008 146.351 23.9907 146.351 23.9907L145.875 25.6739C145.374 26.7014 145.348 27.3237 145.348 27.3237ZM147.55 24.551C147.365 24.5658 147.432 24.6922 147.432 24.6922C147.813 25.1732 148.038 24.7542 148.038 24.7542C148.156 24.5348 148.102 24.396 148.102 24.396L147.997 24.365C147.997 24.7852 147.786 24.7072 147.786 24.7072C147.642 24.6922 147.55 24.551 147.55 24.551ZM147.127 25.2377L147.06 25.7211L147.22 25.9838L147.283 25.5413L147.68 25.7272L147.483 26.0929L147.364 26.1561L147.641 26.2962L147.906 25.7036L147.983 25.5338L147.893 25.5487L147.153 25.1906L147.127 25.2377Z" fill="white"/>
<path d="M151.322 29.4717L151.743 29.5696L151.98 30.3901L152.429 29.7209L152.772 29.7828L152.745 29.8919L152.759 31.0755L152.812 31.2454L152.297 31.1524L152.376 31.0446L152.388 30.4062L151.888 31.0446L151.546 30.2489L151.537 30.8103L151.572 30.9652L151.268 30.8413L151.308 30.7632L151.348 29.6575L151.322 29.4717Z" fill="#CED6DE"/>
<path d="M153.299 30.0469C152.667 30.6543 153.299 31.3087 153.299 31.3087C153.667 31.6347 154.181 31.2926 154.181 31.2926C154.723 30.529 154.129 30.0321 154.129 30.0321C153.589 29.7197 153.299 30.0469 153.299 30.0469Z" fill="#CED6DE"/>
<path d="M153.721 30.0852C153.101 30.3815 153.522 31.0583 153.522 31.0583C153.68 31.3706 153.893 31.1042 153.893 31.1042C154.194 30.8104 153.999 30.327 153.999 30.327C153.906 30.0159 153.721 30.0852 153.721 30.0852Z" fill="white"/>
<path d="M154.696 29.9849L155.001 30.0158L155.473 30.6703L155.456 30.1409L155.408 30.0468L155.884 30.0827L155.819 30.1707L155.83 31.4486L155.844 31.5726L155.594 31.5577L155.08 30.7954V31.2924L155.118 31.4648L154.749 31.4338L154.784 31.2305L154.791 30.1409L154.696 29.9849Z" fill="#CED6DE"/>
<path d="M157.056 30.0791H157.57C158.136 30.0791 158.23 30.8414 158.23 30.8414C158.243 31.652 157.477 31.621 157.477 31.621L157.056 31.5739L157.187 31.4648L157.161 30.203L157.056 30.0791Z" fill="#CED6DE"/>
<path d="M157.519 30.2573L157.505 31.4485C157.992 31.2762 157.888 30.7172 157.888 30.7172C157.768 30.2647 157.519 30.2573 157.519 30.2573Z" fill="white"/>
<path d="M158.52 30.0825L158.719 30.0318C159.035 29.8768 159.391 30.0032 159.391 30.0032C159.798 30.4234 159.377 30.7804 159.377 30.7804L159.708 31.2923C159.812 31.3393 159.853 31.4336 159.853 31.4336C159.655 31.5117 159.562 31.4175 159.562 31.4175C159.22 31.1844 159.138 30.8895 159.138 30.8895L158.963 30.8882L158.968 31.4646L159.009 31.5576L158.613 31.5587L158.652 31.4646L158.638 30.1569L158.52 30.0825Z" fill="#CED6DE"/>
<path d="M158.968 30.7323L158.955 30.1572C159.114 30.001 159.234 30.2042 159.234 30.2042C159.389 30.4844 159.205 30.6703 159.205 30.6703C159.14 30.7795 158.968 30.7323 158.968 30.7323Z" fill="white"/>
<path d="M160.604 29.8299C161.329 29.7841 161.303 30.7026 161.303 30.7026C161.223 31.4648 160.563 31.4648 160.563 31.4648C159.917 31.3718 159.891 30.6096 159.891 30.6096C160.01 29.7209 160.604 29.8299 160.604 29.8299Z" fill="#CED6DE"/>
<path d="M160.589 30.0444C160.959 30.0754 160.945 30.6245 160.945 30.6245C160.972 31.1538 160.603 31.2654 160.603 31.2654C160.404 31.295 160.339 31.0608 160.339 31.0608C160.114 30.3456 160.417 30.1262 160.417 30.1262C160.471 30.0482 160.589 30.0444 160.589 30.0444Z" fill="white"/>
<path d="M161.528 29.7678L162.08 29.7207L161.975 29.8781L162.016 31.1845L162.106 31.2625L161.645 31.3245L161.7 31.2316L161.659 29.8917L161.528 29.7678Z" fill="#CED6DE"/>
<path d="M162.422 29.675L162.463 30.0443L162.568 29.9191L162.765 29.8733V31.0755L162.726 31.1846L163.109 31.1375L163.068 31.0136L163.056 29.7951L163.332 29.7803L163.308 29.4717L163.214 29.5188L162.541 29.6601L162.422 29.675Z" fill="#CED6DE"/>
<path d="M142.682 17.8568L142.727 28.7592L142.914 28.7579L142.87 17.8555L142.682 17.8568Z" fill="#CED6DE"/>
<path d="M139.349 22.973H146.046V22.7847H139.349V22.973Z" fill="#CED6DE"/>
<path d="M10.8851 18.4773V7.81286C10.8851 7.36417 10.6713 6.85475 9.74172 7.37036C8.69436 7.95416 3.39867 10.7281 3.19577 10.8335C2.99436 10.9389 2.88888 11.1347 2.88888 11.4309V23.972C2.88888 24.7591 2.68138 26.2353 1.6308 27.6681C1.40311 27.9792 1.06535 28.2531 1.36754 28.496C1.53945 28.6325 1.82453 28.6262 2.27694 28.4552C7.34952 26.5476 10.8851 22.6185 10.8851 18.4773ZM25.4646 0.327637H8.03743C7.70587 0.327637 7.35882 0.452824 7.07993 0.664775C5.56467 1.82369 0.653225 5.57807 0.379051 5.78383C0.152722 5.95612 -0.0146077 6.09246 0.00100975 6.28955C0.014892 6.4705 0.213209 6.54487 0.315467 6.54487H15.327V25.2127C11.4382 24.9735 6.54696 26.0047 3.20655 31.4225C3.01134 31.741 3.01444 32.1166 3.52411 32.0572C7.75074 31.5626 14.8329 30.8387 19.9255 32.1364C20.0667 32.1711 20.4089 32.1265 20.5469 31.9158C21.3262 30.716 24.3397 26.6183 29.7701 25.4148C29.9034 25.385 30.1777 25.1718 30.1777 24.8817V5.97471C30.1777 3.30859 29.5843 0.327637 25.4646 0.327637ZM21.5214 26.3617C21.5214 26.5675 21.416 26.6294 21.2177 26.5476C20.4771 26.2452 18.4553 25.5027 15.9221 25.2598V18.5654C16.8284 17.4511 17.7798 16.8834 18.7527 16.8933C20.0866 16.902 21.2084 18.0485 21.5214 18.3993V26.3617ZM21.5214 17.5205C20.9791 16.9999 19.9999 16.2699 18.7621 16.2587C17.7704 16.2488 16.8331 16.6863 15.9375 17.5899V13.657C16.7417 14.6796 17.6357 15.2374 18.6086 15.3018C19.8388 15.3861 20.914 14.6722 21.5214 14.1231V17.5205ZM21.5214 13.2232C21.2301 13.5492 20.0309 14.7639 18.6489 14.6684C17.6713 14.6015 16.7618 13.8838 15.9422 12.5502V6.54487H20.8444C21.4966 6.54487 21.5214 6.58826 21.5214 7.13858V13.2232ZM58.2039 27.2963C57.97 27.1228 55.5591 25.5126 54.8868 25.0652C54.7767 24.9908 54.7133 24.8631 54.7133 24.707V15.3663C54.7133 15.1047 54.8218 14.9659 54.9674 14.858C55.1734 14.7031 56.1123 13.9396 56.2999 13.7798C56.4887 13.6186 56.6391 13.2108 56.1093 12.8898C55.4708 12.5055 48.0185 8.57266 47.6621 8.41897C47.3368 8.27767 46.8936 8.23552 46.401 8.38426C45.1027 8.7747 38.1894 11.1036 33.6142 16.9826C31.5442 19.6425 31.0996 23.1329 31.6852 25.7283C32.2121 28.0574 33.5568 30.9949 39.1221 32.0435C39.2615 32.0707 39.6629 32.0261 39.8581 31.8699C40.9039 31.0283 44.2319 28.3573 44.4333 28.185C44.6719 27.9792 44.8564 28.0052 45.0671 28.1206C45.2499 28.2221 51.3016 31.1448 52.9206 31.9295C53.1732 32.0496 53.432 32.0299 53.6257 31.8786C54.6808 31.0581 58.094 28.3981 58.331 28.185C58.6084 27.9346 58.5929 27.5863 58.2039 27.2963ZM45.5117 26.5489C45.5117 26.622 45.4837 26.7062 45.4265 26.7645C45.2158 26.9852 44.6161 27.44 43.5456 26.9802C42.0473 26.3344 39.7032 24.6326 38.6466 22.4672C37.9477 21.0369 37.2801 18.781 37.8455 16.8401C38.2499 15.453 38.8387 14.2693 40.9458 12.9542C41.048 12.8898 41.3626 12.8315 41.536 12.9481C42.4005 13.5243 45.0175 15.272 45.191 15.4022C45.4001 15.5584 45.5117 15.7704 45.5117 15.9822V26.5489ZM72.2661 27.678C72.1359 27.6024 70.2432 26.5426 69.6892 26.2192C69.4351 26.0692 69.4351 25.7692 69.4351 25.5077V15.7269C69.4351 15.3625 69.5281 15.2411 69.8752 14.992C70.0958 14.832 70.7428 14.3647 71.0848 14.0971C71.3452 13.895 71.5162 13.6384 71.1493 13.3992C70.8878 13.2294 64.4078 9.67456 63.8191 9.36841C63.2737 9.08582 62.9932 9.09945 62.7097 9.27545C62.4262 9.45022 57.7906 12.5924 57.4419 12.8278C57.0949 13.0646 57.1583 13.4934 57.3784 13.6533C57.5999 13.8132 59.7426 15.0043 60.0448 15.1767C60.3454 15.3489 60.4245 15.4952 60.4245 15.6848V26.5426C60.4245 26.5426 59.8201 27.0038 59.2825 27.424C58.7449 27.8441 59.0207 28.221 59.1555 28.3138C59.2717 28.392 64.8648 31.1969 66.3491 31.9406C66.5769 32.0546 66.8185 32.0422 67.0107 31.9096C68.1275 31.135 71.9613 28.4725 72.2661 28.2482C72.54 28.0498 72.5003 27.8144 72.2661 27.678ZM66.2636 7.84509C67.0863 7.29476 67.804 6.59198 68.3866 5.79251C69.191 4.68689 69.7326 3.33958 69.1475 1.97863C68.6295 0.778808 67.04 0.144193 65.8237 0.537109C64.5594 0.946138 63.4965 2.13852 63.1541 3.56144C62.8117 4.98313 63.3742 7.04687 64.0419 8.00622C64.5067 8.67555 65.1931 8.56027 66.2636 7.84509ZM86.3194 27.9879C86.1892 27.9123 84.3647 26.8364 83.8131 26.5141C83.5578 26.3654 83.5578 26.0643 83.5578 25.8014V1.75304C83.5578 1.40599 83.1463 1.24981 82.6058 1.41218C82.1708 1.54232 73.5254 4.21341 73.2775 4.33117C73.1052 4.41297 73.0767 4.50965 73.0767 4.66458C73.0767 4.85918 73.3284 4.94099 73.663 5.05502C74.2009 5.23226 74.9273 5.47148 74.9273 7.43606V26.1535C74.9273 26.3642 74.8356 26.5489 74.693 26.6592C74.4687 26.8302 74.1142 27.1029 73.7857 27.3607C73.2478 27.7822 73.5229 28.1565 73.6581 28.2482C73.7746 28.3288 79.2605 31.0804 80.8086 31.8551C81.0627 31.984 81.3491 31.9617 81.582 31.8042C82.7062 31.037 86.0231 28.775 86.3194 28.5581C86.5921 28.3586 86.5536 28.123 86.3194 27.9879ZM113.522 12.3779C113.304 12.2527 107.196 8.59126 106.901 8.44004C106.426 8.19587 106.099 8.14132 105.632 8.44004C105.335 8.62968 101.447 11.4247 101.209 11.6032C100.887 11.8449 100.88 12.2899 101.209 12.5316C101.513 12.7522 103.173 13.6397 103.346 13.745C103.614 13.9062 103.854 14.1888 103.854 14.7329V27.4884C103.854 27.4884 103.896 28.2358 103.029 28.6312C102.222 28.9981 100.245 29.4505 98.2877 27.8676C98.0237 27.6557 97.9531 27.2629 97.9531 27.041V14.8394C97.9531 14.8394 97.9655 14.1169 98.4625 13.7141L99.0748 13.1959C99.4356 12.8588 99.9128 12.5502 99.0315 12.0048C98.8158 11.8709 93.0436 8.72884 92.7486 8.57763C92.2726 8.33469 91.9479 8.27767 91.4793 8.57763C91.1843 8.76603 87.0408 11.4942 86.8052 11.6713C86.4817 11.9131 86.4743 12.3593 86.8052 12.601C87.1076 12.8228 88.7674 13.7091 88.942 13.8132C89.2085 13.9731 89.449 14.2569 89.449 14.8023V28.5382C89.449 29.0229 89.2544 29.2051 89.1614 29.2968C87.9071 30.5227 87.0011 31.8761 86.6639 33.8569C86.3528 35.6875 86.1273 38.402 89.6251 40.6145C93.2815 42.9274 98.5381 41.9606 100.722 41.0632C102.905 40.1658 104.61 39.0887 106.585 38.852C108.558 38.6115 109.446 40.0902 108.168 41.6916C106.82 43.3835 104.221 43.2472 103.982 43.2472C103.743 43.2472 102.994 43.3079 103.952 43.697C106.062 44.5536 109.122 43.5025 111.01 41.6606C112.76 39.9551 113.552 35.7991 110.353 33.7354C107.151 31.6717 103.323 32.6881 101.498 33.2569C99.6748 33.8259 96.5042 35.41 93.512 35.41C90.5225 35.41 87.544 33.1751 89.8345 30.4247C91.9355 27.9012 95.9067 28.2035 97.5515 29.1592C99.1951 30.1161 101.649 31.7014 105.716 31.7014C109.784 31.7014 111.918 29.3389 111.918 27.9656V15.8186C111.918 15.8186 111.931 15.1791 112.43 14.6944L113.566 13.5715C113.886 13.243 114.234 12.7856 113.522 12.3779Z" fill="#CED6DE"/>
<path d="M212.932 27.6035C212.67 27.4412 210.603 26.3863 210.603 24.1776V4.75868C210.603 4.61119 210.563 4.40543 210.285 4.25049C210.008 4.09556 203.267 0.134176 203.115 0.0635253C202.88 -0.0418307 202.711 -0.0418307 202.225 0.254405C201.778 0.525852 197.415 3.25891 196.362 3.91831C196.217 4.01004 196.039 4.01004 195.877 3.92079C194.735 3.28865 190.158 0.756395 190.041 0.691943C189.809 0.556839 189.585 0.586586 189.321 0.711774C189.128 0.801017 183.118 4.04474 181.978 4.65952C181.858 4.72397 181.732 4.72397 181.622 4.66076C180.734 4.14142 176.65 1.76037 176.461 1.65006C176.318 1.56701 176.032 1.44307 175.743 1.61163C175.456 1.78269 170.397 5.01897 170.228 5.14788C170.088 5.25447 169.911 5.44907 169.967 5.67218C170.014 5.8581 170.266 6.06881 170.559 6.28324C170.763 6.43074 174.056 8.6804 174.253 8.81054C174.577 9.02993 174.622 9.31006 174.622 9.59142V26.3889C174.622 26.3889 172.647 27.5279 172.526 27.6048C172.378 27.7027 171.86 28.0262 172.463 28.3659C172.771 28.5381 177.834 31.1708 179.418 31.9926C179.715 32.1475 180.037 32.1524 180.29 32.0136C181.558 31.3021 185.397 29.1504 185.535 29.0649C185.783 28.9125 186.068 28.6174 185.599 28.3039C185.47 28.2171 184.871 27.844 184.273 27.4722V19.8109H188.264V25.7691C188.264 25.7691 186.556 26.8301 186.424 26.9069C186.294 26.9838 185.966 27.3594 186.613 27.7325C186.843 27.8639 192.76 30.9898 194.587 31.9567C194.921 32.1338 195.287 32.1326 195.567 31.9591C196.903 31.1274 200.759 28.7303 200.829 28.6831C201.002 28.5703 201.064 28.5257 201.1 28.3968C201.14 28.2667 201.014 28.1601 200.845 28.0485C200.715 27.963 199.29 27.0396 198.296 26.395V19.5507C199.024 18.4512 201.825 14.2308 201.9 14.1242C201.987 14.0015 201.981 13.7908 201.749 13.7908H198.296V5.56311C199.384 6.11839 201.787 7.36655 201.908 7.43224C202.233 7.60948 202.478 7.9206 202.478 8.42755V26.1149C202.478 27.3061 203.067 30.4469 207.268 32.0843C207.402 32.1376 207.806 32.1512 208.013 32.0025C209.171 31.1795 212.974 28.4737 213.061 28.4042C213.256 28.2493 213.43 27.911 212.932 27.6035ZM183.688 27.1077C183.304 26.871 182.999 26.6789 182.934 26.6355C182.745 26.5129 182.616 26.3653 182.616 26.0059V6.34521C182.616 5.91388 183.104 5.54823 183.688 5.59657V27.1077ZM188.264 13.7908H187.911C187.698 13.7908 187.492 13.9135 187.404 14.056C187.332 14.1676 185.209 17.3604 184.273 18.7672V5.78373C184.908 6.11591 187.595 7.52396 187.758 7.61569C188.074 7.79169 188.264 7.98381 188.264 8.39904V13.7908ZM197.711 26.017C197.505 25.8844 197.37 25.7939 197.34 25.7753C197.184 25.6762 196.831 25.4456 196.831 25.0143V19.8109H197.711V26.017ZM197.711 13.7908H196.831V5.66351C196.831 5.35983 196.917 4.93221 197.711 5.27306V13.7908ZM240.433 27.2453C240.2 27.0718 237.787 25.4605 237.116 25.0131C237.006 24.9399 236.944 24.811 236.944 24.6561V15.3153C236.944 15.0538 237.05 14.9175 237.196 14.8072C237.404 14.651 238.343 13.8886 238.53 13.7288C238.717 13.5677 238.869 13.1586 238.339 12.8388C237.701 12.4534 230.25 8.52175 229.891 8.36805C229.567 8.22799 229.122 8.18461 228.629 8.33459C227.332 8.72254 220.418 11.0528 215.843 16.9316C213.773 19.5903 213.33 23.0819 213.916 25.6762C214.441 28.0064 215.787 30.9415 221.352 31.9926C221.49 32.0186 221.893 31.9753 222.089 31.8178C223.135 30.9774 226.461 28.3063 226.664 28.1328C226.902 27.9283 227.086 27.9531 227.296 28.0696C227.481 28.17 233.531 31.0939 235.152 31.8785C235.402 31.9988 235.661 31.9789 235.855 31.8277C236.909 31.006 240.323 28.3473 240.56 28.1328C240.838 27.8836 240.823 27.5354 240.433 27.2453ZM227.742 26.4967C227.742 26.5711 227.713 26.6541 227.655 26.7137C227.446 26.9342 226.844 27.3892 225.775 26.9293C224.276 26.2835 221.934 24.5805 220.875 22.4163C220.176 20.9848 219.509 18.7289 220.074 16.7903C220.479 15.4021 221.069 14.2172 223.175 12.9009C223.278 12.8388 223.59 12.7819 223.766 12.8971C224.63 13.4747 227.246 15.2212 227.419 15.3512C227.629 15.5074 227.742 15.7194 227.742 15.9301V26.4967ZM254.494 27.6272C254.364 27.549 252.472 26.4893 251.92 26.167C251.664 26.0183 251.664 25.7171 251.664 25.4543V15.6735C251.664 15.3091 251.756 15.1901 252.104 14.9397C252.324 14.7811 252.971 14.3113 253.316 14.0448C253.574 13.844 253.746 13.5863 253.38 13.3483C253.117 13.1772 246.636 9.62364 246.048 9.31625C245.503 9.03489 245.222 9.04852 244.938 9.22329C244.654 9.3993 240.02 12.5414 239.672 12.7769C239.323 13.0136 239.387 13.4424 239.608 13.6024C239.828 13.7598 241.971 14.9547 242.273 15.1257C242.576 15.2956 242.654 15.443 242.654 15.6314V25.9873C242.654 26.3071 242.571 26.555 242.44 26.6554C242.214 26.8276 241.851 27.109 241.511 27.373C240.975 27.7932 241.251 28.1687 241.385 28.2605C241.502 28.341 247.093 31.146 248.578 31.8897C248.806 32.0025 249.049 31.9913 249.241 31.8587C250.356 31.0815 254.191 28.4217 254.494 28.1973C254.769 27.9977 254.729 27.7635 254.494 27.6272ZM248.494 7.79169C249.317 7.24136 250.035 6.53858 250.618 5.73911C251.421 4.63473 251.964 3.28742 251.377 1.92523C250.861 0.725408 249.27 0.0932728 248.054 0.484949C246.79 0.892739 245.728 2.08512 245.384 3.50804C245.042 4.92973 245.607 6.99347 246.273 7.95283C246.739 8.62215 247.423 8.50811 248.494 7.79169ZM268.551 27.937C268.42 27.8614 266.596 26.7855 266.042 26.4632C265.789 26.3145 265.789 26.012 265.789 25.7518V1.70212C265.789 1.35259 265.377 1.19765 264.837 1.36126C264.4 1.49265 255.754 4.16372 255.507 4.27777C255.336 4.36204 255.308 4.45624 255.308 4.61242C255.308 4.80826 255.56 4.8913 255.894 5.00286C256.43 5.18134 257.159 5.42057 257.159 7.38514V26.1013C257.159 26.3132 257.067 26.4979 256.924 26.6057C256.697 26.7793 256.345 27.0532 256.015 27.3098C255.479 27.7287 255.754 28.1055 255.888 28.1985C256.006 28.2765 261.491 31.0295 263.039 31.8041C263.294 31.933 263.579 31.9108 263.813 31.7534C264.938 30.9861 268.254 28.7241 268.551 28.5071C268.824 28.3076 268.785 28.0733 268.551 27.937Z" fill="#CED6DE"/>
<path d="M124.015 30.0347L123.982 31.0993C124.397 31.1142 124.465 30.8032 124.465 30.8032C124.565 30.5999 124.41 30.3209 124.41 30.3209C124.258 30.0334 124.015 30.0347 124.015 30.0347Z" fill="white"/>
</g>
<defs>
<clipPath id="clip0_1931_15991">
<rect width="268.741" height="44" fill="white"/>
</clipPath>
</defs>
</svg>
