<svg width="169" height="44" viewBox="0 0 169 44" fill="none" xmlns="http://www.w3.org/2000/svg">
<g clip-path="url(#clip0_1931_15982)">
<path d="M16.2225 4.09978H19.9027C22.1438 3.76961 24.4326 4.0599 26.5204 4.9391C29.1397 6.51496 31.0395 9.05192 31.8146 12.0088C32.3634 13.5583 32.3634 13.5583 33.687 13.0095H34.72V0.74248H0.0816732V2.90536H1.50207C2.11931 2.90108 2.72967 3.03515 3.2883 3.2977C3.84694 3.56026 4.33965 3.94464 4.73024 4.4226C6.05379 6.55319 6.27977 8.94204 6.27977 21.3705C6.27977 34.5737 5.98923 37.8019 4.73024 39.4483C4.41943 39.8715 4.01703 40.2191 3.55308 40.4651C3.08912 40.711 2.5756 40.849 2.05086 40.8687C0.0816732 41.2238 0.0816732 41.1915 0.0816732 42.0631C-0.0272244 42.3545 -0.0272244 42.6755 0.0816732 42.967H21.9364C22.081 42.6819 22.1564 42.3667 22.1564 42.047C22.1564 41.7272 22.081 41.412 21.9364 41.1269C21.4071 40.9797 20.8676 40.8717 20.3223 40.8041C19.7325 40.734 19.1494 40.6152 18.5791 40.449C17.7624 39.8528 17.1155 39.0538 16.7022 38.1309C16.2889 37.2081 16.1236 36.1934 16.2225 35.1871C15.8997 33.0565 15.7383 29.1504 15.7383 25.9222V23.372H17.0296C18.6384 23.3228 20.2462 23.4966 21.8073 23.8885C22.5551 24.3506 23.1918 24.9722 23.6717 25.7088C24.1516 26.4454 24.4629 27.2788 24.5835 28.1497L24.874 29.1504H26.8432V14.8496H25.0355L24.7449 16.2377C24.6227 17.1283 24.2932 17.9777 23.783 18.7178C23.2728 19.4578 22.5961 20.0679 21.8073 20.4989C21.0433 20.7262 20.2385 20.7814 19.4507 20.6603H15.7383V17.1739C15.7383 13.5583 15.932 5.93984 16.0611 4.74541L16.2225 4.09978ZM167.301 29.6992C165.775 27.2432 163.395 25.4381 160.619 24.631C158.49 23.9656 156.523 22.8665 154.84 21.4028C154.462 21.0366 154.178 20.5833 154.015 20.0826C153.852 19.5818 153.814 19.0486 153.904 18.5297C153.907 17.5118 154.313 16.5366 155.034 15.818C155.523 15.3062 156.141 14.9368 156.823 14.7492C157.506 14.5615 158.226 14.5628 158.908 14.7528C160.319 15.155 161.595 15.9314 162.601 16.9998C163.607 18.0682 164.305 19.3888 164.622 20.8217C165.138 22.2744 165.203 22.2744 166.139 21.887L166.72 21.661V13.6229L166.3 13.4292C163.122 12.313 159.751 11.8518 156.39 12.0734C153.495 12.1467 150.732 13.2979 148.642 15.3015C147.694 16.1889 146.952 17.2728 146.467 18.4773C145.981 19.6817 145.765 20.9777 145.834 22.2744C145.852 24.2569 146.639 26.1549 148.029 27.5686C149.565 29.0794 151.45 30.1882 153.517 30.7968C158.52 32.766 159.973 34.0249 159.973 36.3169C159.995 37.2835 159.687 38.2286 159.1 38.9971C158.513 39.7656 157.683 40.3117 156.745 40.5459C155.618 40.7935 154.45 40.7935 153.323 40.5459C151.847 39.9731 150.53 39.0562 149.48 37.8714C148.43 36.6867 147.678 35.2683 147.286 33.7344L146.867 32.7014H146.286C146.008 32.722 145.735 32.7874 145.479 32.8951H145.156V42.0631H145.705C147.885 42.7886 150.136 43.2862 152.419 43.5481H155.647C157.047 43.6508 158.455 43.5199 159.812 43.1607C161.534 42.8428 163.144 42.0796 164.481 40.9469C165.817 39.8143 166.834 38.3517 167.43 36.7043C167.815 35.7842 168.013 34.7965 168.011 33.799C168.138 32.3937 167.893 30.9798 167.301 29.6992ZM136.892 13.0095C134.957 12.1974 132.873 11.8034 130.775 11.8535C128.678 11.9035 126.615 12.3965 124.721 13.3001C122.942 14.1707 121.364 15.4048 120.091 16.9228C118.817 18.4407 117.877 20.2089 117.329 22.113C116.631 24.1901 116.335 26.3814 116.457 28.5693C116.434 29.7598 116.532 30.9495 116.748 32.1203C117.269 34.9992 118.659 37.6496 120.731 39.7155C122.802 41.7815 125.457 43.1639 128.337 43.6772C130.213 43.9135 132.111 43.9135 133.986 43.6772C135.933 43.3341 137.795 42.6219 139.474 41.5789C140.863 40.8004 142.038 39.6916 142.896 38.3507C142.841 38.1403 142.744 37.9432 142.611 37.7712C142.478 37.5993 142.311 37.456 142.121 37.35C141.753 37.4834 141.405 37.6681 141.088 37.8988C139.483 38.957 137.587 39.4874 135.665 39.416C134.389 39.5022 133.111 39.3036 131.922 38.8346C130.732 38.3656 129.662 37.638 128.789 36.7043C128.113 36.0769 127.556 35.3334 127.143 34.5092C126.139 32.5023 125.599 30.2961 125.561 28.0528V26.7938H143.445V26.1482C143.484 25.5032 143.484 24.8563 143.445 24.2113C143.438 21.9319 142.829 19.6948 141.678 17.7273C140.527 15.7599 138.875 14.1321 136.892 13.0095ZM127.885 24.179H125.625V22.2744C126.368 17.3999 128.208 14.4945 130.468 14.4945C132.727 14.4945 133.696 17.3676 134.115 22.6295V24.1145H132.179L127.885 24.179ZM81.4639 11.9442C80.3485 11.901 79.2396 12.1338 78.2357 12.6222C76.0539 13.6817 74.2917 15.444 73.2321 17.6258L72.8124 18.4006V11.9442H72.651C72.2636 11.9442 60.3194 14.3331 59.932 14.4945C59.5446 14.6559 59.6738 14.6882 59.6738 15.2693C59.6738 15.8503 59.6738 15.9472 59.932 15.9795L61.191 16.2377C61.5436 16.2464 61.8896 16.3351 62.2028 16.4973C62.516 16.6595 62.7882 16.8909 62.9988 17.1739C63.8058 18.2392 63.9672 20.1115 63.9672 28.0851C64.1267 31.6747 63.9755 35.2714 63.5153 38.8349C63.4069 39.3722 63.1345 39.8627 62.7355 40.2386C62.3365 40.6144 61.8307 40.8571 61.2878 40.9332L60.1903 41.1592H59.7706V42.0631C59.6535 42.3642 59.6535 42.6982 59.7706 42.9993H77.8161V42.0631C77.8787 41.7542 77.8787 41.4358 77.8161 41.1269C76.7296 41.0846 75.6491 40.9441 74.5879 40.7073C74.01 40.405 73.5372 39.9348 73.2318 39.3585C72.9264 38.7823 72.8027 38.127 72.877 37.4791C72.6187 35.6067 72.4896 30.1189 72.5542 25.9222C72.6187 21.7256 72.5542 21.4674 72.9093 21.1768C73.9895 20.3486 75.3262 19.9259 76.6862 19.9824C77.9682 20.0103 79.2269 20.3305 80.3663 20.9186C80.7614 21.1379 81.1851 21.3009 81.6253 21.4028C81.6253 21.4028 84.8535 13.5906 84.8535 13.2355C84.4404 12.7555 83.9141 12.386 83.3223 12.1605C82.7304 11.9351 82.0917 11.8607 81.4639 11.9442ZM59.706 25.5026C59.5934 23.1957 58.9311 20.9492 57.7743 18.9502C56.6176 16.9511 54.9999 15.2575 53.056 14.0103C50.7459 12.764 48.1758 12.0769 45.552 12.004C42.9282 11.9311 40.3238 12.4745 37.9481 13.5906C34.5892 15.3618 32.0531 18.3728 30.8784 21.9839C29.6652 26.0269 29.6652 30.337 30.8784 34.38C31.5145 36.5896 32.7033 38.6006 34.3326 40.223C36.3618 42.2031 38.9783 43.4717 41.7897 43.8386C43.5943 43.9895 45.4084 43.9895 47.213 43.8386C47.8771 43.7376 48.5346 43.5974 49.1822 43.4189C51.8098 42.6839 54.1738 41.2157 55.9974 39.1862C57.8211 37.1568 59.0291 34.6499 59.4801 31.9589C59.8023 29.8225 59.8782 27.6562 59.706 25.5026ZM46.2768 41.6434C43.0487 42.6119 40.6275 39.4806 39.8205 32.8951C39.5241 29.4473 39.5241 25.9804 39.8205 22.5326C40.4661 17.2384 42.1125 14.5591 44.6627 14.5591C45.1773 14.5272 45.6919 14.619 46.1637 14.8268C46.6355 15.0346 47.0506 15.3523 47.3744 15.7535C49.5373 17.9164 50.6026 22.2098 50.6026 28.6662C50.8712 32.3201 50.2969 35.9869 48.9239 39.3837C48.3177 40.3744 47.3797 41.1179 46.2768 41.482V41.6434ZM104.384 12.5899C103.473 12.4727 102.551 12.4727 101.64 12.5899C99.8915 12.5884 98.163 12.9627 96.5718 13.6875L95.571 14.1071V7.10198C95.7459 4.73788 95.7459 2.3641 95.571 0C95.1837 0 82.852 2.35657 82.6583 2.45341C82.5631 2.69175 82.5631 2.95755 82.6583 3.19589C82.6583 3.87381 82.6583 3.84153 84.111 4.16434C84.5189 4.25581 84.9107 4.40817 85.2732 4.61629C85.9033 5.20885 86.3227 5.99097 86.4676 6.84373C86.8352 9.30044 86.9541 11.7879 86.8227 14.2685V42.6119L87.6943 42.8056C88.9856 43.0961 92.6334 43.7095 93.8278 43.8386C96.2129 44.0283 98.6093 44.0283 100.994 43.8386C103.642 43.5682 106.165 42.5805 108.293 40.982C110.42 39.3836 112.071 37.2349 113.068 34.7674C113.662 33.1838 114.073 31.5375 114.294 29.8606C114.487 27.5891 114.411 25.3029 114.068 23.0492C113.722 20.5228 112.607 18.1642 110.875 16.2931C109.142 14.4221 106.876 13.1292 104.384 12.5899ZM95.9261 41.0946C95.9261 40.675 95.6033 26.5356 95.6679 20.8863V16.4637L96.6041 16.2377C97.2357 16.1472 97.877 16.1472 98.5087 16.2377C99.2072 16.1667 99.9099 16.3253 100.51 16.6897C101.716 17.5217 102.717 18.6163 103.438 19.8912C104.159 21.1661 104.582 22.588 104.674 24.0499C104.91 26.4006 104.91 28.7689 104.674 31.1196C104.481 34.5361 103.165 37.7932 100.93 40.3844C100.295 40.987 99.4988 41.3909 98.6378 41.5466C97.9863 41.6599 97.3201 41.6599 96.6686 41.5466C96.0553 41.5466 96.0553 41.3529 96.0553 41.0946H95.9261Z" fill="#CED6DE"/>
</g>
<defs>
<clipPath id="clip0_1931_15982">
<rect width="168.044" height="44" fill="white"/>
</clipPath>
</defs>
</svg>
