<svg width="105" height="44" viewBox="0 0 105 44" fill="none" xmlns="http://www.w3.org/2000/svg">
<g clip-path="url(#clip0_1931_16139)">
<path d="M0.63916 0V44H13.9565V29.7992H26.0645V17.76H13.9565V12.0012H28.8034L27.9972 0H0.63916Z" fill="#CED6DE"/>
<path d="M50.1694 0C37.9814 0 28.1693 9.81207 28.1693 22.0001C28.1693 34.1881 37.9814 44 50.1694 44C62.3574 44 72.1693 34.1881 72.1693 22.0001C72.1693 9.81207 62.3574 0 50.1694 0ZM50.1694 9.06149C52.2273 9.06149 53.8838 10.718 53.8838 12.7759V31.2241C53.8838 33.282 52.2273 34.9387 50.1694 34.9387C48.1115 34.9387 46.4548 33.282 46.4548 31.2241V12.7759C46.4548 10.718 48.1115 9.06149 50.1694 9.06149Z" fill="#CED6DE"/>
<path d="M65.5696 0L78.053 22L65.5696 44H79.8417L85.1889 34.5759L90.5363 44H104.808L92.3251 22L104.808 0H90.5363L85.1889 9.42383L79.8419 0H65.5696Z" fill="#CED6DE"/>
</g>
<defs>
<clipPath id="clip0_1931_16139">
<rect width="104.169" height="44" fill="white" transform="translate(0.63916)"/>
</clipPath>
</defs>
</svg>
