<svg width="135" height="44" viewBox="0 0 135 44" fill="none" xmlns="http://www.w3.org/2000/svg">
<g clip-path="url(#clip0_1931_15984)">
<path d="M31.2278 23.4465C31.6814 23.2197 32.1804 22.9475 32.634 22.7207C32.8154 22.63 33.4505 22.4032 33.5412 22.2218C33.5866 22.131 33.5412 21.8589 33.5412 21.7228V20.6341V12.8774V5.30218V4.30424C33.5412 4.25888 33.5866 3.94135 33.5412 3.89599C33.4959 3.85063 33.133 3.89599 33.0876 3.89599H32.0897C31.7268 3.89599 31.7721 3.94135 31.5453 4.21352C30.6835 5.34754 29.8216 6.48156 28.9598 7.66094C28.5515 8.20527 28.1433 8.70424 27.7804 9.24857C27.5082 9.61145 27.5082 9.65682 27.0093 9.65682L27.1453 6.663C27.1907 5.93723 27.1907 5.21145 27.2361 4.48568C27.2361 4.21352 27.2814 3.94135 27.2814 3.66919C27.2814 3.57847 27.2361 3.3063 27.2814 3.26094C27.3721 3.12486 28.1886 3.21558 28.4154 3.21558H45.3804C45.4711 3.21558 45.8794 3.17022 45.9701 3.21558C46.0608 3.26094 46.0154 3.5331 46.0154 3.66919C46.0608 4.25888 46.0608 4.89393 46.1062 5.48362C46.1515 6.79908 46.1969 8.06919 46.2876 9.38465V9.65682C46.0608 9.65682 45.8794 9.70218 45.6979 9.56609C45.5165 9.43001 45.3804 9.15785 45.2443 8.9764C44.7 8.25063 44.1556 7.4795 43.566 6.75372L41.933 4.5764C41.8422 4.44032 41.7062 4.12279 41.5247 4.03207C41.3886 3.94135 41.1165 3.98671 40.935 3.98671H40.2093C40.1185 3.98671 39.7556 3.94135 39.6649 3.98671C39.6196 4.03207 39.6649 4.03207 39.6196 4.1228C39.5288 4.48568 39.6196 4.93929 39.6196 5.30218V21.0877C39.6196 21.4053 39.5288 21.8589 39.6196 22.1764C39.7103 22.4939 40.4361 22.7207 40.7536 22.8568C41.0711 23.0383 41.6154 23.1743 41.8876 23.4465C41.9783 23.5372 42.069 23.9908 41.9783 24.1269C41.933 24.1723 41.7062 24.1269 41.6608 24.1269H31.6814C31.5907 24.1269 31.2732 24.1723 31.2278 24.1269C31.1825 23.9455 31.2278 23.5826 31.2278 23.4465ZM48.0567 22.63V16.0073V5.16609V3.39702C48.0567 3.12486 48.1474 2.71661 48.0567 2.44444C47.966 2.12692 47.4216 2.08156 47.1041 1.94548C46.9227 1.90011 46.333 1.76403 46.2422 1.58259V1.2197H46.3783C46.5598 1.12898 46.9227 1.12898 47.1495 1.08362C47.5577 0.992898 47.966 0.947537 48.3288 0.856816C49.2361 0.675372 50.1886 0.493929 51.0959 0.357846C51.6402 0.267125 52.1845 0.131042 52.7288 0.0403207C52.8649 0.0403207 53.4093 -0.0504009 53.4546 0.0403207C53.5 0.0856816 53.4546 0.267125 53.4546 0.312486V9.70218C55.1783 7.97847 58.1721 7.02589 60.5763 7.61558C62.6629 8.11455 63.3433 10.0651 63.3433 12.0609C63.3886 14.6011 63.3433 17.096 63.3433 19.6362V21.6774C63.3433 21.9042 63.2526 22.4486 63.3433 22.6754C63.3886 22.7661 63.5701 22.8115 63.6608 22.9022C63.9783 23.0836 64.3412 23.2651 64.6587 23.4465C64.7041 23.4919 64.8402 23.5372 64.8402 23.5826C64.8856 23.6279 64.8856 24.0362 64.8402 24.0816C64.7948 24.1723 64.7948 24.1269 64.6587 24.1269C64.1598 24.2176 63.6154 24.1269 63.1618 24.1269H56.6299C56.5845 24.1269 56.3577 24.1723 56.3124 24.1269C56.267 24.0816 56.267 23.5826 56.3124 23.5372C56.4484 23.3558 56.9928 23.1743 57.1742 23.0383C57.3103 22.9475 57.7185 22.8115 57.8093 22.6754C57.9 22.5393 57.8093 22.0403 57.8093 21.9042V20.0444C57.8093 17.4135 57.8546 14.7372 57.8093 12.1063C57.8093 11.3352 57.6732 10.4279 56.902 10.0197C56.4938 9.7929 55.9495 9.74754 55.4959 9.74754C55.133 9.74754 54.7701 9.83826 54.4526 9.92898C54.1804 10.0197 53.6814 10.2011 53.5 10.4279C53.3639 10.6094 53.4546 10.8816 53.4546 11.1084V21.8135C53.4546 22.0403 53.3639 22.4939 53.4546 22.6754C53.5 22.7661 53.6814 22.8568 53.8175 22.9022C54.135 23.0836 54.5433 23.2651 54.8608 23.4465C54.9062 23.4919 54.9969 23.4919 54.9969 23.5372C55.0422 23.5826 55.0422 23.9908 54.9969 24.0362C54.9515 24.0816 54.9062 24.0816 54.8154 24.0816C54.3165 24.1269 53.7721 24.0816 53.2732 24.0816H46.7412C46.6959 24.0816 46.4691 24.1269 46.4237 24.0816C46.3783 24.0362 46.4237 23.5826 46.4691 23.4919C46.6051 23.3104 47.1041 23.129 47.2855 23.0383C47.6031 22.9022 47.8299 22.7661 48.0567 22.63ZM69.6031 16.3702C69.6938 18.3661 70.3288 20.5888 72.1433 21.6774C73.0959 22.2218 74.2752 22.4032 75.3639 22.3125C76.6794 22.1764 77.768 21.5414 78.902 20.9517C78.902 21.1331 78.9474 21.4506 78.902 21.6321C78.8113 21.8135 78.5845 22.0403 78.4484 22.1764C78.267 22.3578 78.0402 22.5847 77.8134 22.7661C77.0423 23.4011 76.1804 23.8548 75.2732 24.1723C73.5495 24.762 71.5536 24.7166 69.7845 24.263C68.3783 23.9001 67.1082 23.2197 66.1557 22.131C65.2031 21.0424 64.6587 19.6362 64.4319 18.1846C63.933 15.0548 64.5227 11.4712 67.1082 9.38465C69.3763 7.57022 73.0051 7.20733 75.6814 8.29599C78.9474 9.61145 79.4917 13.331 79.4917 16.4156H70.8278C70.4196 16.3702 70.0113 16.3702 69.6031 16.3702ZM69.5124 15.5991C70.4196 15.5537 71.3268 15.5084 72.2794 15.4176C72.8237 15.3723 73.4134 15.3723 73.9577 15.3269C74.0484 15.3269 74.2752 15.3269 74.366 15.2816C74.502 15.1908 74.4113 14.2836 74.4113 14.1022C74.366 12.4692 74.3206 10.4733 73.368 9.06713C72.6876 8.06919 71.6443 8.25063 71.0093 9.15785C69.6938 10.9269 69.5124 13.5578 69.5124 15.5991ZM0.83606 32.1558C0.83606 29.6156 1.33503 26.9846 2.74121 24.8527C4.10204 22.7661 6.27936 21.4053 8.63812 20.7249C11.4959 19.9084 14.6711 19.9991 17.6196 20.5434C18.2546 20.6795 18.8897 20.8156 19.4794 20.997C19.5701 21.0424 19.9783 21.1331 20.0237 21.2238V21.3599C20.1598 21.9042 20.069 22.5847 20.069 23.129C20.1144 24.5352 20.1144 25.9867 20.1598 27.3929C19.9783 27.3929 19.6608 27.4383 19.5247 27.3929C19.434 27.3475 19.3433 27.1207 19.2979 27.03C18.935 26.4857 18.5721 25.9414 18.2546 25.3517C17.4835 24.1269 16.667 22.9022 15.8959 21.6774C15.4876 20.997 14.3536 20.997 13.6278 20.997C12.8113 20.997 11.9948 21.1331 11.3144 21.5414C9.77214 22.4939 9.04637 24.3537 8.63812 26.0321C8.00307 28.7084 8.04843 31.5207 8.18451 34.2424C8.3206 36.329 8.50204 38.5517 9.31853 40.4568C9.8175 41.6362 10.6794 42.6795 11.9948 42.9517C12.4031 43.0424 12.8113 43.0424 13.2649 42.997C13.5371 42.9517 14.4897 42.9063 14.6258 42.6341C14.6711 42.5434 14.6258 42.3166 14.6258 42.2259V41.4548V36.6465V34.7867C14.6258 34.4692 14.7165 34.3331 14.4443 34.1517C14.1268 33.9702 13.7639 33.7888 13.4464 33.562C13.2196 33.4259 12.766 33.2898 12.6299 33.1084C12.5392 33.0176 12.4938 32.5187 12.5845 32.428C12.6299 32.3372 12.6299 32.3826 12.766 32.3826C13.1742 32.2919 13.7185 32.3826 14.1268 32.3826H21.1577C21.6113 32.3826 22.1103 32.3372 22.5639 32.3826H22.7453C22.7907 32.428 22.7907 33.063 22.7453 33.1537C22.6546 33.2898 22.201 33.4712 22.0196 33.562C21.702 33.7434 21.3392 33.9249 21.0216 34.1517C20.6587 34.3331 20.7041 34.3331 20.7041 34.7414V42.1352C20.7041 42.2259 20.7495 42.4527 20.7041 42.5434C20.6134 42.7702 19.6608 42.9063 19.3886 42.997C18.6175 43.2238 17.801 43.4053 16.9845 43.5414C15.3969 43.8135 13.8093 43.9042 12.2216 43.8589C9.68142 43.7682 7.00513 43.2238 4.91853 41.6816C3.1041 40.3661 1.92472 38.3702 1.38039 36.1929C0.972142 34.9228 0.83606 33.5166 0.83606 32.1558ZM21.7474 28.0279C21.7474 27.9372 21.702 27.5743 21.7474 27.529C21.7928 27.4836 21.8381 27.529 21.8835 27.4836C22.1556 27.3475 22.5185 27.3475 22.8361 27.3022C23.8794 27.1207 24.9227 26.9393 26.0113 26.7578C26.8278 26.6218 27.6443 26.4403 28.4154 26.3496C28.6422 26.3042 28.9144 26.3042 29.1412 26.395C29.368 26.4403 29.2773 26.395 29.3227 26.5764C29.4134 27.1207 29.3227 27.7558 29.3227 28.3001V37.7805C29.3227 38.9146 29.0051 41.0011 30.0938 41.6816C30.6381 42.0444 31.4093 42.0444 32.0443 41.9084C32.5433 41.8176 33.4959 41.4548 33.6773 40.9104C33.7227 40.7743 33.6773 40.5929 33.6773 40.4568V39.5042V33.1991V30.296V29.3434C33.6773 29.2527 33.7227 28.9805 33.6773 28.8898C33.5412 28.7537 33.0876 28.6176 32.9515 28.5723C32.6794 28.4816 32.4526 28.3455 32.1804 28.2548C32.0897 28.2094 31.7721 28.164 31.7268 28.0733C31.6814 28.028 31.6814 27.6197 31.7268 27.5743C31.7721 27.529 31.7721 27.5743 31.8175 27.529C32.0443 27.3929 32.4526 27.4383 32.6794 27.3929C34.5392 27.0754 36.4443 26.6671 38.3495 26.395C38.5763 26.3496 38.8031 26.3496 39.0299 26.395C39.2567 26.4403 39.166 26.3496 39.2113 26.5764C39.302 27.03 39.2113 27.6651 39.2113 28.164V41.228C39.2113 41.364 39.166 41.5908 39.2113 41.7723C39.2567 41.9084 39.2113 41.863 39.4381 41.9537C39.8917 42.1352 40.3907 42.362 40.8443 42.5434C40.9804 42.5888 41.0258 42.5888 41.0711 42.6795C41.1165 42.7702 41.1165 43.0877 41.0711 43.0877C40.9804 43.1785 40.5268 43.1331 40.4361 43.1785C39.4381 43.3145 38.4402 43.4053 37.3969 43.5414C36.4897 43.6321 35.5825 43.7682 34.7206 43.8589C34.5392 43.9042 34.3577 43.9042 34.1763 43.8589C34.0855 43.8589 33.8134 43.8589 33.768 43.8135C33.7227 43.7228 33.768 43.3599 33.768 43.2692V42.4981C33.768 42.362 33.8587 41.9991 33.768 41.863C33.6773 41.7269 33.4959 41.9084 33.3598 41.9991C32.9969 42.3166 32.5886 42.6341 32.1804 42.8609C30.6835 43.7682 28.8237 44.1764 27.1 43.8135C25.8299 43.5414 24.7412 42.8156 24.1969 41.5908C23.7886 40.729 23.6979 39.7764 23.6979 38.8692V33.4713V30.3867V29.3434C23.6979 29.2527 23.7433 28.9805 23.6979 28.8898C23.6072 28.7537 23.0629 28.6176 22.9268 28.5269C22.4732 28.3455 22.1103 28.2094 21.7474 28.0279ZM64.5227 26.3042C64.6134 26.3042 65.0216 26.3042 65.067 26.395C65.1124 26.4403 65.067 26.7578 65.067 26.8032V30.795C65.067 30.931 65.0216 31.1578 65.067 31.2939V31.3847C65.2484 31.5661 65.2938 30.9764 65.3392 30.931C65.7474 29.2527 66.5185 27.3022 68.2422 26.6218C68.5598 26.4857 68.8773 26.4403 69.1948 26.395C69.467 26.395 70.2381 26.3042 70.3742 26.531C70.4196 26.6218 70.3742 26.8486 70.3742 26.9393V31.5661C69.2856 31.3393 68.0608 31.3847 67.0175 31.6115C66.5185 31.7022 66.0649 31.8383 65.6113 32.0651C65.3845 32.1558 65.3392 32.1104 65.2938 32.2919C65.2484 32.4733 65.2938 32.7908 65.2938 32.9723V41.7269C65.2938 41.8176 65.2484 41.9537 65.2938 42.0444C65.3845 42.1805 65.702 42.2713 65.8381 42.3166C66.0649 42.4527 66.3371 42.5888 66.5639 42.7249C66.6546 42.7702 66.7907 42.8156 66.8361 42.9063C66.8814 42.9517 66.8814 43.496 66.8361 43.5414C66.7907 43.5867 66.5185 43.5414 66.4278 43.5414H58.8979C58.6711 43.5414 58.2629 43.6321 58.0814 43.5414H57.9453C57.9 43.496 57.9453 42.997 57.9453 42.9517C58.0361 42.6795 58.6258 42.4981 58.8979 42.362C59.0794 42.2713 59.4423 42.1352 59.533 41.9537C59.5783 41.863 59.533 41.5908 59.533 41.5001V40.5475V28.8898C59.533 28.8444 59.5783 28.6176 59.533 28.5723C59.4876 28.5269 59.2608 28.4816 59.1701 28.4816C58.8979 28.3908 58.6258 28.3001 58.3536 28.2548C58.0814 28.164 57.401 28.1187 57.6278 27.6651C57.6732 27.529 57.8546 27.5743 58.0361 27.529C60.0319 27.1661 61.9825 26.8032 63.9783 26.4403C64.1598 26.3496 64.3412 26.3496 64.5227 26.3042ZM81.6237 26.7125V23.0836V22.0403C81.6237 21.9042 81.6691 21.6321 81.6237 21.496C81.5783 21.4053 81.3969 21.3599 81.2608 21.3145C80.8979 21.1785 80.535 21.0424 80.1268 20.9063C79.8546 20.8156 79.7185 20.8609 79.7185 20.5434C79.7185 20.2712 79.6732 20.362 79.9 20.3166C80.3989 20.1352 80.9886 20.1352 81.4876 20.0444C82.9845 19.7723 84.4361 19.5001 85.933 19.2279C86.2505 19.1826 86.568 19.0919 86.8856 19.1372C87.2484 19.1826 87.2938 19.0919 87.2938 19.4094C87.3392 20.1352 87.2938 20.9063 87.2938 21.6321V41.5001C87.2938 41.6816 87.2484 41.6816 87.3845 41.7723C87.6567 41.9537 88.1103 42.0444 88.3825 42.1352C88.5639 42.1805 89.0629 42.2712 89.1536 42.4073C89.199 42.4527 89.199 42.9517 89.1536 42.997C89.1082 43.0424 88.8361 43.0424 88.7907 43.0424C88.1557 43.1331 87.566 43.2238 86.9309 43.2692C85.5247 43.4506 84.1185 43.6321 82.667 43.8135C82.4402 43.8589 81.8959 43.9496 81.8051 43.7682C81.7144 43.5867 81.8051 42.997 81.8051 42.8156C81.8051 42.6795 81.8959 42.0898 81.8051 41.9991C81.7144 41.9084 80.7165 42.8156 80.5804 42.9063C80.0361 43.2692 79.4464 43.5414 78.8113 43.7228C77.8134 43.995 76.6794 43.995 75.6814 43.7682C71.3268 42.7702 70.4196 37.5991 70.7825 33.8341C70.9639 31.8383 71.599 29.8424 72.9598 28.3908C74.2299 27.0754 75.9536 26.395 77.7227 26.2589C79.0835 26.1228 80.399 26.2135 81.6237 26.7125ZM81.6237 41.1826V30.0238V27.9372C81.6237 27.6651 81.5783 27.6197 81.2608 27.4383C80.6258 27.0754 79.8093 26.9393 79.1289 27.2115C78.0855 27.6197 77.5866 28.8444 77.3144 29.8424C76.7701 31.6568 76.7247 33.6073 76.7701 35.5125C76.8155 37.1455 76.8608 39.1414 77.768 40.5929C78.5845 41.863 80.4443 42.1805 81.6237 41.1826ZM96.6381 26.3042C96.8649 26.3496 97.1371 26.2589 97.2278 26.4857C97.2732 26.6218 97.2278 26.9393 97.2278 27.0754V41.2733C97.2278 41.4548 97.1825 41.7269 97.2278 41.9084C97.2732 42.0898 97.4546 42.1352 97.6361 42.2259C97.9082 42.362 98.135 42.4981 98.4072 42.6341C98.4979 42.6795 98.7701 42.7702 98.8154 42.9063C98.8154 42.9517 98.8608 43.496 98.8154 43.5414H98.6794C98.4072 43.5867 98.0443 43.5414 97.7268 43.5414H90.8319C90.6505 43.5414 90.1515 43.6321 90.0154 43.5414C89.9247 43.496 89.8794 42.9517 89.9701 42.8609C90.0608 42.7249 90.3783 42.6341 90.5144 42.5888C90.7866 42.4527 91.0587 42.2713 91.3309 42.1352C91.5577 41.9991 91.5124 42.0444 91.5124 41.863C91.6031 41.1826 91.5124 40.4115 91.5124 39.731V36.1475V29.6156C91.5124 29.4341 91.5577 29.1166 91.5124 28.9352C91.467 28.7537 91.2402 28.7537 91.0587 28.663C90.7412 28.5269 90.4691 28.4362 90.1515 28.3001C90.0608 28.2548 89.6979 28.2094 89.6072 28.0733C89.5618 28.028 89.5618 27.5743 89.6072 27.529C89.6526 27.4836 89.7433 27.529 89.7886 27.4836C90.1515 27.3475 90.5598 27.3475 90.968 27.2568C91.5577 27.1661 92.102 27.03 92.6917 26.9393C93.8258 26.7578 94.9144 26.531 96.0484 26.3496C96.2752 26.395 96.4567 26.3496 96.6381 26.3042ZM97.2732 22.0857C97.1825 24.8073 93.5082 25.9867 91.8299 23.8548C91.0587 22.8568 91.0134 21.496 91.6938 20.4527C92.3742 19.4094 93.6897 18.9558 94.9144 19.2279C96.2752 19.5001 97.2732 20.6795 97.2732 22.0857ZM117.141 41.9991V31.0671V28.9805C117.141 28.9352 117.187 28.7084 117.141 28.663C117.096 28.5723 116.824 28.5269 116.733 28.5269L115.916 28.2548C115.78 28.2094 115.418 28.164 115.327 28.0279C115.236 27.9372 115.281 27.7104 115.281 27.5743C115.281 27.3022 115.372 27.3475 115.644 27.3022L118.638 26.7578L121.632 26.2135C121.813 26.1682 121.949 26.1228 122.131 26.1228C122.222 26.1228 122.675 26.1228 122.766 26.1682C122.811 26.2135 122.766 26.4857 122.766 26.5764V27.4383C122.766 27.5743 122.675 27.9826 122.766 28.1187C122.857 28.3001 123.038 28.1187 123.174 27.9826C123.582 27.6651 123.991 27.3929 124.444 27.1661C126.077 26.2589 128.028 25.8506 129.888 26.1228C131.158 26.3042 132.201 26.9846 132.655 28.2094C132.972 29.0712 133.018 29.9785 133.018 30.8857V41.228C133.018 41.4094 132.972 41.7269 133.018 41.9084C133.063 42.0898 133.199 42.1352 133.426 42.2259C133.653 42.362 133.925 42.4981 134.152 42.6341C134.242 42.6795 134.56 42.7702 134.605 42.9063C134.65 42.997 134.65 43.4506 134.605 43.496C134.56 43.5867 134.651 43.496 134.514 43.5414C134.333 43.6321 133.925 43.5414 133.698 43.5414H127.211C126.939 43.5414 125.896 43.6774 125.76 43.496C125.714 43.4506 125.714 42.9517 125.76 42.8609C125.805 42.7702 126.077 42.6795 126.168 42.6341C126.44 42.4981 126.667 42.362 126.939 42.2259C127.03 42.1805 127.302 42.0898 127.347 41.9991C127.393 41.9084 127.347 41.7269 127.347 41.6362V40.6383V37.463V31.3393C127.347 30.6135 127.393 29.797 126.939 29.162C126.576 28.6176 125.941 28.4816 125.306 28.4362C124.807 28.4362 124.354 28.4816 123.9 28.6176C123.673 28.7084 122.993 28.8898 122.857 29.162C122.811 29.2527 122.857 29.4341 122.857 29.5249V41.2733C122.857 41.4094 122.811 41.7269 122.857 41.863C122.902 42.0444 123.174 42.0898 123.31 42.1805C123.537 42.3166 123.809 42.4527 124.036 42.5888C124.127 42.6341 124.308 42.7249 124.354 42.7702C124.399 42.8156 124.399 43.3599 124.354 43.4053C124.354 43.4506 124.308 43.4053 124.263 43.4053C124.081 43.496 123.628 43.4053 123.446 43.4053H115.826C115.599 43.4053 115.554 43.4506 115.508 43.3145C115.463 43.2238 115.463 42.8156 115.508 42.7249C115.554 42.6341 115.826 42.5434 115.916 42.4981C116.37 42.4527 116.733 42.2259 117.141 41.9991ZM107.525 33.6527C107.525 32.4733 107.57 31.2486 107.479 30.0238C107.343 28.7084 106.98 27.2568 105.483 26.9846C105.03 26.8939 104.213 26.7578 103.896 27.1207C103.578 27.4383 103.352 27.8919 103.079 28.2548L100.766 31.3847C100.63 31.5661 100.494 31.929 100.312 32.0197C100.267 32.0651 99.8134 32.0651 99.8134 32.0197C99.768 31.9743 99.8134 31.6568 99.8134 31.5661V27.8919C99.8134 27.7558 99.768 27.529 99.8134 27.3929C99.9041 27.1661 100.902 27.03 101.129 26.9393C102.399 26.6218 103.714 26.395 105.03 26.3042C106.89 26.1682 108.976 26.2135 110.7 27.03C112.061 27.6651 112.923 28.7991 113.149 30.2506C113.286 30.9764 113.24 31.7929 113.24 32.5187V41.5908C113.24 41.7269 113.149 42.0898 113.24 42.1805C113.286 42.2259 113.512 42.2712 113.558 42.2712C113.921 42.362 114.238 42.4527 114.601 42.5434C114.828 42.5888 114.873 42.5888 114.873 42.8156C114.873 43.0424 114.919 43.0424 114.646 43.1331C114.329 43.2692 114.011 43.4053 113.694 43.496C112.015 43.995 109.385 44.131 108.16 42.5888C108.069 42.4527 107.797 41.863 107.661 41.8176C107.479 41.7723 106.935 42.4981 106.754 42.6341C106.028 43.2692 105.075 43.6321 104.123 43.7682C102.354 43.995 100.448 43.6321 99.3598 42.0898C98.4526 40.7743 98.2711 38.7331 98.9515 37.2816C100.176 34.5145 103.805 34.2424 106.436 33.7888C106.754 33.7888 107.116 33.6981 107.525 33.6527ZM107.525 41.1826V34.4692C106.164 34.5599 104.758 34.6506 104.259 36.1475C103.896 37.1455 103.896 38.3249 104.032 39.3682C104.123 40.0939 104.304 41.0011 104.985 41.4548C105.71 41.9537 106.935 41.863 107.525 41.1826ZM50.0979 33.6527C50.0979 32.4733 50.1433 31.2486 50.0526 30.0238C49.9165 28.7084 49.5536 27.2568 48.0567 26.9846C47.6031 26.8939 46.7866 26.7578 46.4691 27.1207C46.1515 27.4383 45.9247 27.8919 45.6526 28.2548L43.3392 31.3847C43.2031 31.5661 43.067 31.929 42.8855 32.0197C42.8402 32.0651 42.3866 32.0651 42.3866 32.0197C42.3412 31.9743 42.3866 31.6568 42.3866 31.5661V27.9372C42.3866 27.8011 42.3412 27.5743 42.3866 27.4383C42.4773 27.2115 43.4299 27.0754 43.702 26.9846C44.9721 26.6671 46.2876 26.4403 47.5577 26.3496C49.4175 26.2135 51.5041 26.2589 53.2278 27.0754C54.5886 27.7104 55.4505 28.8444 55.6773 30.296C55.8134 31.0218 55.768 31.8383 55.768 32.564V41.6362C55.768 41.7723 55.6773 42.1352 55.768 42.2259C55.8134 42.2712 56.0402 42.3166 56.0855 42.3166C56.4484 42.4073 56.766 42.4981 57.1288 42.5888C57.3556 42.6341 57.401 42.6341 57.401 42.8609C57.401 43.0877 57.4464 43.0877 57.1742 43.1785C56.8567 43.3145 56.5392 43.4506 56.2216 43.5414C54.5433 44.0403 51.9124 44.1764 50.6876 42.6341C50.5969 42.4981 50.3247 41.9084 50.1886 41.863C50.0072 41.8176 49.4629 42.5434 49.3268 42.6795C48.601 43.3145 47.6484 43.6774 46.6959 43.8135C44.9268 44.0403 43.0216 43.6774 41.933 42.1352C41.0258 40.8197 40.8443 38.7785 41.5247 37.3269C42.7495 34.5599 46.3783 34.2877 48.9639 33.8341C49.3268 33.7888 49.6897 33.6981 50.0979 33.6527ZM50.0979 41.1826V34.4692C48.7371 34.5599 47.3309 34.6506 46.8319 36.1475C46.4691 37.1455 46.4691 38.3249 46.6051 39.3682C46.6959 40.0939 46.8773 41.0011 47.5577 41.4548C48.2835 41.9537 49.5082 41.863 50.0979 41.1826Z" fill="#CED6DE"/>
</g>
<defs>
<clipPath id="clip0_1931_15984">
<rect width="133.803" height="44" fill="white" transform="translate(0.83606)"/>
</clipPath>
</defs>
</svg>
