<svg width="272" height="44" viewBox="0 0 272 44" fill="none" xmlns="http://www.w3.org/2000/svg">
<g clip-path="url(#clip0_1931_16129)">
<path d="M33.5278 10.2443C32.498 7.68316 29.9827 4.93333 25.2783 5.31075C19.2826 5.95777 17.4143 11.6462 18.3202 15.043C15.9316 13.4524 11.8715 12.7515 8.3264 15.7439C3.75144 20.2731 6.19663 26.4198 8.71461 27.9025C5.94052 27.6329 1.55966 29.4931 0.589131 34.3457C-0.440707 40.3576 4.19626 43.8623 8.71461 43.8623H58.7966C64.0186 43.8623 66.9167 39.4141 66.5932 35.1815C66.0809 29.6818 60.9911 27.579 58.2143 28.0373C60.5355 26.7433 63.6331 20.7314 58.9206 16.0135C55.1841 12.4819 50.4177 13.7759 48.7408 15.2856C49.644 12.3471 48.1639 6.28128 42.0981 5.31075C41.6802 5.2838 41.2785 5.25684 40.893 5.25684C36.2641 5.25684 34.1829 8.59977 33.5278 10.2443Z" fill="white"/>
<path d="M9.16206 16.7145C6.51736 19.06 5.55492 24.4248 10.3213 27.579L29.3356 40.4925L20.1155 19.5722C18.1853 14.6387 12.8986 13.5873 9.16206 16.7145Z" fill="#CED6DE"/>
<path d="M25.529 6.55078C22.4395 6.6047 17.7971 10.2442 19.8622 15.7978L29.4003 38.066L32.7486 14.6655C33.5251 8.84231 29.0768 6.1464 25.529 6.55078Z" fill="#CED6DE"/>
<path d="M34.2368 13.7488H36.0404C36.0404 13.7488 37.0028 13.7488 37.1349 14.2071C36.4259 14.7732 34.4956 14.8541 34.749 17.9275L37.7819 38.0659L47.2527 15.7438C49.191 10.7563 45.1229 6.60463 41.5158 6.46983C41.3486 6.46983 41.1788 6.44287 41.0036 6.44287C37.7658 6.44287 34.0562 8.78832 34.2368 13.7488Z" fill="#CED6DE"/>
<path d="M46.8725 19.761L37.9139 40.4117L56.9228 27.4444C61.3064 24.371 60.6 19.4645 58.1468 17.0112C57.1169 15.8789 55.2298 14.9893 53.2294 14.9893C50.8651 14.9893 48.3363 16.2294 46.8725 19.761Z" fill="#CED6DE"/>
<path d="M54.7958 30.3826L36.9435 42.7299H58.926C63.4335 42.7299 66.3316 38.1199 65.0457 33.8873C64.183 31.2453 61.6273 29.1694 58.6645 29.1694C57.4189 29.1694 56.0952 29.5199 54.7958 30.3826Z" fill="#CED6DE"/>
<path d="M8.64718 42.7299H30.3062L12.4484 30.3826C8.32367 27.7676 3.68401 29.3043 2.00985 33.6447C0.589101 38.6321 4.13423 42.7299 8.64718 42.7299Z" fill="#CED6DE"/>
<path d="M271.17 36.0443L265.301 30.1133C263.662 31.623 262.014 32.8092 260.356 33.6989C258.698 34.5885 256.671 35.0199 254.274 35.0199C252.476 35.0199 250.829 34.6694 249.33 33.9685C247.831 33.2675 246.553 32.324 245.497 31.1108C244.437 29.9246 243.607 28.5227 243.008 26.9321C242.41 25.3416 242.111 23.6431 242.111 21.8369V21.729C242.111 19.9228 242.41 18.2243 243.008 16.6607C243.607 15.0701 244.448 13.6952 245.526 12.482C246.605 11.2958 247.893 10.3523 249.389 9.6783C250.888 9.00432 252.517 8.65385 254.274 8.65385C256.391 8.65385 258.299 9.0852 259.995 9.92093C261.694 10.7567 263.362 11.9159 264.999 13.3987L270.873 6.60496C269.903 5.66139 268.876 4.77174 267.757 3.98992C266.638 3.18115 265.419 2.50717 264.101 1.94103C262.783 1.37489 261.314 0.94354 259.696 0.62003C258.078 0.29652 256.291 0.134766 254.334 0.134766C251.099 0.134766 248.141 0.700907 245.467 1.86015C242.79 2.99243 240.493 4.55606 238.576 6.52408C236.657 8.4921 235.16 10.8106 234.082 13.4256C233.004 16.0407 232.465 18.8444 232.465 21.8369V21.9447C232.465 24.9641 233.004 27.7679 234.082 30.4099C235.16 33.0519 236.657 35.3164 238.576 37.2575C240.493 39.1985 242.768 40.7352 245.405 41.8405C248.042 42.9728 250.899 43.539 253.973 43.539C256.011 43.539 257.849 43.3503 259.488 43.0267C261.125 42.6763 262.635 42.191 264.012 41.517C265.39 40.87 266.657 40.0612 267.816 39.1446C268.975 38.228 270.091 37.2036 271.17 36.0443ZM231.122 31.2995V31.1917C231.122 28.3879 230.424 26.2042 229.025 24.6137C227.628 23.05 225.711 21.7829 223.274 20.8663C224.032 20.4889 224.741 20.0036 225.401 19.4375C226.059 18.8714 226.639 18.2243 227.137 17.4964C227.639 16.7416 228.038 15.9328 228.337 15.0162C228.636 14.0726 228.787 13.0212 228.787 11.835V11.7002C228.787 8.38426 227.558 5.76922 225.102 3.80121C222.643 1.83319 219.26 0.862662 214.944 0.862662H195.471V42.8111H215.424C217.783 42.8111 219.929 42.5684 221.867 42.0832C223.803 41.5979 225.461 40.897 226.838 39.9264C228.216 38.9829 229.275 37.7697 230.014 36.3409C230.753 34.8851 231.122 33.2136 231.122 31.2995ZM219.618 13.3987C219.618 14.9353 219.02 16.0676 217.82 16.7685C216.623 17.4695 215.006 17.82 212.968 17.82H204.459V8.9504H213.566C215.523 8.9504 217.022 9.32783 218.06 10.0557C219.098 10.8106 219.618 11.862 219.618 13.2639V13.3987ZM221.956 30.1672C221.956 31.7309 221.376 32.8631 220.217 33.618C219.058 34.3459 217.462 34.7233 215.424 34.7233H204.459V25.5033H215.124C217.521 25.5033 219.257 25.9077 220.338 26.7165C221.417 27.5252 221.956 28.6575 221.956 30.0324V30.1672ZM189.848 42.8111V0.862662H180.738V26.6895L161.088 0.862662H152.579V42.8111H161.683V16.1485L182 42.8111H189.848ZM148.88 30.4099V30.2751C148.88 28.4419 148.592 26.8782 148.012 25.5572C147.433 24.2362 146.573 23.077 145.435 22.1065C144.297 21.1359 142.898 20.3002 141.24 19.5993C139.582 18.8983 137.695 18.2513 135.579 17.7121C133.781 17.2269 132.293 16.7955 131.114 16.445C129.936 16.0946 129.009 15.6902 128.33 15.3128C127.65 14.9084 127.181 14.4501 126.92 13.9648C126.661 13.4526 126.531 12.8595 126.531 12.1855V12.0777C126.531 11.0263 126.982 10.1636 127.879 9.46262C128.777 8.76169 130.125 8.41122 131.923 8.41122C133.721 8.41122 135.517 8.78865 137.315 9.51654C139.113 10.2714 140.952 11.2689 142.831 12.536L147.621 5.60747C145.465 3.88208 143.098 2.56109 140.523 1.64448C137.946 0.727866 135.118 0.269561 132.042 0.269561C129.885 0.269561 127.909 0.566112 126.111 1.15921C124.315 1.75231 122.765 2.61501 121.468 3.74729C120.169 4.85261 119.161 6.17361 118.441 7.73724C117.721 9.27391 117.363 10.9993 117.363 12.9134V13.0212C117.363 15.0971 117.691 16.8494 118.352 18.2513C119.01 19.6262 119.94 20.8124 121.137 21.756C122.336 22.6726 123.795 23.4814 125.512 24.1014C127.23 24.7485 129.146 25.3416 131.263 25.8538C133.02 26.2851 134.449 26.7165 135.549 27.1209C136.646 27.4983 137.506 27.9027 138.124 28.3071C138.744 28.7114 139.164 29.1428 139.383 29.6011C139.604 30.0594 139.714 30.5716 139.714 31.1917V31.2995C139.714 32.5396 139.183 33.5102 138.126 34.2111C137.067 34.912 135.579 35.2625 133.662 35.2625C131.265 35.2625 129.057 34.8042 127.041 33.8876C125.022 32.971 123.056 31.7309 121.14 30.1672L115.686 36.6913C118.201 38.9829 120.999 40.6543 124.073 41.7597C127.149 42.865 130.287 43.4042 133.481 43.4042C135.759 43.4042 137.835 43.1076 139.714 42.5415C141.591 41.9484 143.208 41.1126 144.567 40.0073C145.926 38.929 146.983 37.554 147.743 35.9365C148.5 34.3189 148.88 32.4857 148.88 30.4099ZM112.798 42.8111V0.862662H102.853L91.8268 18.6018L80.8033 0.862662H70.8553V42.8111H79.9028V15.6093L91.5869 33.3484H91.8268L103.632 15.4206V42.8111H112.798Z" fill="#CED6DE"/>
</g>
<defs>
<clipPath id="clip0_1931_16129">
<rect width="270.993" height="44" fill="white" transform="translate(0.311401)"/>
</clipPath>
</defs>
</svg>
