<svg width="108" height="28" viewBox="0 0 108 28" fill="none" xmlns="http://www.w3.org/2000/svg">
<rect width="108" height="28" fill="#2A2E33"/>
<path d="M15.344 21.192C14.8747 21.192 14.432 21.1067 14.016 20.936C13.6 20.7653 13.2587 20.5093 12.992 20.168C12.736 19.816 12.608 19.3787 12.608 18.856C12.608 18.376 12.7253 17.944 12.96 17.56C13.2053 17.176 13.552 16.856 14 16.6C14.448 16.344 14.9867 16.168 15.616 16.072L19.056 15.512L18.944 16.6L15.84 17.112C15.232 17.2187 14.752 17.4213 14.4 17.72C14.0587 18.008 13.888 18.3653 13.888 18.792C13.888 19.1867 14.032 19.5067 14.32 19.752C14.6187 19.9867 15.0133 20.104 15.504 20.104C16.0373 20.104 16.528 19.976 16.976 19.72C17.424 19.464 17.7973 19.1227 18.096 18.696C18.3947 18.2587 18.576 17.7787 18.64 17.256L18.912 15.256C18.976 14.8293 18.9227 14.4773 18.752 14.2C18.5813 13.9227 18.3413 13.72 18.032 13.592C17.7333 13.4533 17.408 13.384 17.056 13.384C16.512 13.384 16.0267 13.5227 15.6 13.8C15.184 14.0667 14.8533 14.408 14.608 14.824L13.568 14.168C13.7707 13.8053 14.048 13.48 14.4 13.192C14.7627 12.8933 15.1787 12.6587 15.648 12.488C16.1173 12.3173 16.6133 12.232 17.136 12.232C17.7547 12.232 18.304 12.3653 18.784 12.632C19.264 12.888 19.6267 13.2453 19.872 13.704C20.128 14.1627 20.2133 14.696 20.128 15.304L19.328 21H18.112L18.352 19.288L18.56 19.496C18.368 19.8267 18.1067 20.12 17.776 20.376C17.4453 20.632 17.072 20.8347 16.656 20.984C16.24 21.1227 15.8027 21.192 15.344 21.192ZM24.9319 21.192C24.3879 21.192 23.8865 21.096 23.4279 20.904C22.9692 20.712 22.5799 20.44 22.2599 20.088C21.9399 19.7253 21.7105 19.3093 21.5719 18.84L22.6119 18.424C22.8039 18.9467 23.1132 19.3573 23.5399 19.656C23.9772 19.9547 24.4785 20.104 25.0439 20.104C25.5879 20.104 26.0359 19.9653 26.3879 19.688C26.7399 19.4 26.9159 19.0427 26.9159 18.616C26.9159 18.328 26.8092 18.088 26.5959 17.896C26.3932 17.6933 26.0732 17.5333 25.6359 17.416L24.4359 17.08C23.7745 16.8987 23.2732 16.6213 22.9319 16.248C22.5905 15.864 22.4199 15.4107 22.4199 14.888C22.4199 14.3973 22.5585 13.9547 22.8359 13.56C23.1132 13.1547 23.4865 12.8347 23.9559 12.6C24.4252 12.3547 24.9425 12.232 25.5079 12.232C26.2652 12.232 26.9212 12.4293 27.4759 12.824C28.0305 13.2187 28.3932 13.7467 28.5639 14.408L27.5079 14.824C27.3372 14.3333 27.0759 13.96 26.7239 13.704C26.3719 13.448 25.9452 13.32 25.4439 13.32C24.9212 13.32 24.4945 13.4533 24.1639 13.72C23.8332 13.9867 23.6679 14.3227 23.6679 14.728C23.6679 15.016 23.7532 15.256 23.9239 15.448C24.1052 15.64 24.3932 15.7947 24.7879 15.912L26.1639 16.328C26.8039 16.52 27.2945 16.808 27.6359 17.192C27.9879 17.576 28.1639 18.0347 28.1639 18.568C28.1639 19.0587 28.0199 19.5013 27.7319 19.896C27.4545 20.2907 27.0705 20.6053 26.5799 20.84C26.0892 21.0747 25.5399 21.192 24.9319 21.192ZM37.4549 21.192C36.7082 21.192 36.0149 21.0533 35.3749 20.776C34.7349 20.488 34.1909 20.0987 33.7429 19.608C33.2949 19.1173 32.9642 18.552 32.7509 17.912L34.3509 17.24C34.6389 17.976 35.0602 18.5413 35.6149 18.936C36.1695 19.3307 36.8095 19.528 37.5349 19.528C37.9615 19.528 38.3349 19.464 38.6549 19.336C38.9749 19.1973 39.2202 19.0053 39.3909 18.76C39.5722 18.5147 39.6629 18.232 39.6629 17.912C39.6629 17.4747 39.5402 17.128 39.2949 16.872C39.0495 16.616 38.6869 16.4133 38.2069 16.264L35.9669 15.56C35.0709 15.2827 34.3882 14.8613 33.9189 14.296C33.4495 13.72 33.2149 13.048 33.2149 12.28C33.2149 11.608 33.3802 11.0213 33.7109 10.52C34.0415 10.008 34.4949 9.608 35.0709 9.32C35.6575 9.032 36.3242 8.888 37.0709 8.888C37.7855 8.888 38.4362 9.016 39.0229 9.272C39.6095 9.51733 40.1109 9.85867 40.5269 10.296C40.9535 10.7333 41.2629 11.24 41.4549 11.816L39.8869 12.504C39.6522 11.8747 39.2842 11.3893 38.7829 11.048C38.2922 10.7067 37.7215 10.536 37.0709 10.536C36.6762 10.536 36.3295 10.6053 36.0309 10.744C35.7322 10.872 35.4975 11.064 35.3269 11.32C35.1669 11.5653 35.0869 11.8533 35.0869 12.184C35.0869 12.568 35.2095 12.9093 35.4549 13.208C35.7002 13.5067 36.0735 13.7307 36.5749 13.88L38.6549 14.536C39.6042 14.824 40.3189 15.24 40.7989 15.784C41.2789 16.3173 41.5189 16.984 41.5189 17.784C41.5189 18.4453 41.3429 19.032 40.9909 19.544C40.6495 20.056 40.1749 20.4613 39.5669 20.76C38.9589 21.048 38.2549 21.192 37.4549 21.192ZM43.6383 21V9.08H51.4943V10.76H45.5263V14.184H51.1743V15.864H45.5263V19.32H51.4943V21H43.6383ZM53.2476 21V9.08H61.1036V10.76H55.1356V14.184H60.7836V15.864H55.1356V19.32H61.1036V21H53.2476ZM62.857 21V9.08H64.377L71.065 18.312L70.345 18.424V9.08H72.217V21H70.697L64.057 11.704L64.745 11.576V21H62.857ZM81.1959 21.192C80.4279 21.192 79.7292 21.016 79.0999 20.664C78.4812 20.3013 77.9852 19.8 77.6119 19.16C77.2492 18.52 77.0679 17.784 77.0679 16.952C77.0679 16.3013 77.1852 15.6933 77.4199 15.128C77.6545 14.552 77.9799 14.0507 78.3959 13.624C78.8225 13.1867 79.3132 12.8453 79.8679 12.6C80.4332 12.3547 81.0359 12.232 81.6759 12.232C82.4652 12.232 83.1692 12.4133 83.7879 12.776C84.4172 13.128 84.9132 13.6187 85.2759 14.248C85.6385 14.8773 85.8199 15.6027 85.8199 16.424C85.8199 17.0747 85.6972 17.688 85.4519 18.264C85.2172 18.84 84.8865 19.352 84.4599 19.8C84.0332 20.2373 83.5425 20.5787 82.9879 20.824C82.4332 21.0693 81.8359 21.192 81.1959 21.192ZM81.1799 19.992C81.8092 19.992 82.3745 19.8267 82.8759 19.496C83.3879 19.1653 83.7932 18.728 84.0919 18.184C84.3905 17.64 84.5399 17.048 84.5399 16.408C84.5399 15.832 84.4172 15.32 84.1719 14.872C83.9265 14.424 83.5852 14.072 83.1479 13.816C82.7212 13.56 82.2359 13.432 81.6919 13.432C81.0732 13.432 80.5079 13.5973 79.9959 13.928C79.4945 14.248 79.0945 14.6747 78.7959 15.208C78.4972 15.7413 78.3479 16.3333 78.3479 16.984C78.3479 17.56 78.4705 18.0773 78.7159 18.536C78.9612 18.984 79.2972 19.3413 79.7239 19.608C80.1505 19.864 80.6359 19.992 81.1799 19.992ZM87.3431 21L88.5431 12.424H89.7431L89.5191 14.088L89.2471 13.992C89.5245 13.4373 89.9245 13.0053 90.4471 12.696C90.9805 12.3867 91.5565 12.232 92.1751 12.232C92.7938 12.232 93.3271 12.376 93.7751 12.664C94.2338 12.952 94.5698 13.352 94.7831 13.864C95.0071 14.376 95.0711 14.9627 94.9751 15.624L94.2231 21H93.0231L93.7591 15.704C93.8551 15.0107 93.7325 14.4613 93.3911 14.056C93.0498 13.64 92.5591 13.432 91.9191 13.432C91.4711 13.432 91.0551 13.5333 90.6711 13.736C90.2978 13.9387 89.9831 14.2267 89.7271 14.6C89.4818 14.9733 89.3218 15.416 89.2471 15.928L88.5431 21H87.3431Z" fill="white"/>
</svg>
