<svg width="25" height="24" viewBox="0 0 25 24" fill="none" xmlns="http://www.w3.org/2000/svg">
<path d="M15.7376 8.13504L15.7387 8.14364L15.7401 8.1522C15.7779 8.37895 15.7972 8.61656 15.8021 8.86691C15.3498 8.68196 14.8101 8.77613 14.4468 9.14942C13.9613 9.63812 13.9707 10.4181 14.4439 10.9075L14.4438 10.9076L14.4498 10.9136L15.2242 11.688C15.0801 12.011 14.9064 12.3187 14.7069 12.611L14.2149 12.1245L14.2149 12.1245L14.2109 12.1205C13.7116 11.6379 12.9297 11.6566 12.4498 12.1364C11.9502 12.6361 11.9689 13.4227 12.4498 13.9036L12.4518 13.9055L12.9394 14.3877C12.6397 14.592 12.3233 14.7697 11.9899 14.9195L11.2195 14.149C10.7336 13.6502 9.93254 13.6503 9.44681 14.1494C9.08166 14.517 8.99647 15.0493 9.17798 15.4989C8.92479 15.4942 8.68462 15.475 8.45554 15.4368L8.44699 15.4354L8.43838 15.4342C5.25428 15.0165 2.80334 12.296 2.80334 9C2.80334 5.40614 5.70949 2.5 9.30334 2.5C12.5994 2.5 15.3199 4.95093 15.7376 8.13504Z" fill="#5E9942" stroke="#5E9942"/>
<path d="M14.882 16.2958L14.8819 16.2959L14.8922 16.3056C15.1244 16.5223 15.4332 16.66 15.7634 16.66C16.0832 16.66 16.4147 16.5291 16.653 16.2775C17.1325 15.7914 17.1311 14.9963 16.633 14.5126L16.1567 14.0422C16.1565 14.0421 16.1565 14.042 16.1564 14.042C16.1564 14.0419 16.1564 14.0419 16.1565 14.042C16.1566 14.0422 16.1566 14.0423 16.1566 14.0422C16.1565 14.042 16.1559 14.0406 16.1557 14.0378C16.1553 14.0316 16.1571 14.0234 16.1628 14.0157C16.37 13.7314 16.5691 13.4268 16.7444 13.1185C16.9212 13.2072 17.113 13.25 17.3034 13.25C17.6179 13.25 17.9435 13.1391 18.19 12.8806C18.6831 12.3943 18.6812 11.5978 18.1843 11.1138L17.6617 10.5912L17.7286 10.0894C17.7819 9.7252 17.8031 9.37407 17.8034 9.00835C20.1515 9.98265 21.8034 12.302 21.8034 15C21.8034 18.5939 18.8972 21.5 15.3034 21.5C12.6036 21.5 10.2842 19.8546 9.31081 17.5C9.67684 17.4998 10.0282 17.4786 10.3927 17.4252L10.8945 17.3583L11.4198 17.8836L11.7734 17.53L11.4198 17.8836C11.6685 18.1323 11.9879 18.25 12.3034 18.25C12.6179 18.25 12.9435 18.1391 13.19 17.8806C13.5853 17.4908 13.6624 16.9015 13.4215 16.4338C13.7459 16.2533 14.0672 16.0452 14.3632 15.8252C14.3729 15.8179 14.3835 15.8155 14.3914 15.8159C14.395 15.816 14.3968 15.8168 14.3972 15.8169C14.3972 15.8169 14.397 15.8168 14.3973 15.8171L14.882 16.2958Z" fill="#5E9942" stroke="#5E9942"/>
</svg>
