<svg width="18" height="18" viewBox="0 0 18 18" fill="none" xmlns="http://www.w3.org/2000/svg">
<path d="M16.32 11.94L11.52 3.3C10.875 2.1375 9.98248 1.5 8.99998 1.5C8.01748 1.5 7.12498 2.1375 6.47998 3.3L1.67998 11.94C1.07248 13.0425 1.00498 14.1 1.49248 14.9325C1.97998 15.765 2.93998 16.2225 4.19998 16.2225H13.8C15.06 16.2225 16.02 15.765 16.5075 14.9325C16.995 14.1 16.9275 13.035 16.32 11.94ZM8.43748 6.75C8.43748 6.4425 8.69248 6.1875 8.99998 6.1875C9.30748 6.1875 9.56248 6.4425 9.56248 6.75V10.5C9.56248 10.8075 9.30748 11.0625 8.99998 11.0625C8.69248 11.0625 8.43748 10.8075 8.43748 10.5V6.75ZM9.53248 13.2825C9.49498 13.3125 9.45748 13.3425 9.41998 13.3725C9.37498 13.4025 9.32998 13.425 9.28498 13.44C9.23998 13.4625 9.19498 13.4775 9.14248 13.485C9.09748 13.4925 9.04498 13.5 8.99998 13.5C8.95498 13.5 8.90248 13.4925 8.84998 13.485C8.80498 13.4775 8.75998 13.4625 8.71498 13.44C8.66998 13.425 8.62498 13.4025 8.57998 13.3725C8.54248 13.3425 8.50498 13.3125 8.46748 13.2825C8.33248 13.14 8.24998 12.945 8.24998 12.75C8.24998 12.555 8.33248 12.36 8.46748 12.2175C8.50498 12.1875 8.54248 12.1575 8.57998 12.1275C8.62498 12.0975 8.66998 12.075 8.71498 12.06C8.75998 12.0375 8.80498 12.0225 8.84998 12.015C8.94748 11.9925 9.05248 11.9925 9.14248 12.015C9.19498 12.0225 9.23998 12.0375 9.28498 12.06C9.32998 12.075 9.37498 12.0975 9.41998 12.1275C9.45748 12.1575 9.49498 12.1875 9.53248 12.2175C9.66748 12.36 9.74998 12.555 9.74998 12.75C9.74998 12.945 9.66748 13.14 9.53248 13.2825Z" fill="#1B1E21"/>
</svg>
