<svg width="250" height="32" viewBox="0 0 250 32" fill="none" xmlns="http://www.w3.org/2000/svg">
<g clip-path="url(#clip0_1302_18650)">
<path d="M36.4401 17.9131C34.9447 16.8181 33.1481 16.149 31.2624 15.9848L31.4215 17.1273L31.7067 17.1635L32.0194 17.2152L32.3155 17.2721L32.5294 17.3186C32.6117 17.3186 32.6994 17.3548 32.7818 17.3806L32.9901 17.4375L33.2315 17.5047L33.4399 17.5719L33.6758 17.6546L33.8732 17.7322L34.1091 17.8303L34.2901 17.9079C34.3779 17.9441 34.4656 17.9906 34.5479 18.032L34.6905 18.1044C34.8221 18.1664 34.9483 18.2388 35.0744 18.3111L35.1896 18.3836L35.4474 18.5438C36.4302 19.1887 37.2293 20.0521 37.7736 21.0576C38.3179 22.063 38.5909 23.1794 38.5683 24.3079C38.5683 26.3758 36.8351 29.1881 34.5424 29.1881C34.4164 29.1961 34.2899 29.1961 34.164 29.1881H34.0488C33.9655 29.178 33.8829 29.1625 33.802 29.1416L33.6812 29.1054C33.5988 29.0833 33.5181 29.0555 33.4399 29.0227L33.3412 28.9865C33.2331 28.9402 33.1285 28.8866 33.0285 28.8262C32.9343 28.7724 32.8444 28.7119 32.7598 28.6453L32.6666 28.5729L32.4746 28.4023L32.3814 28.3144C32.3155 28.2472 32.2497 28.18 32.1894 28.1077L32.1181 28.0301C32.0358 27.9267 31.9535 27.8233 31.8713 27.7096L31.8383 27.6631L31.6409 27.358L31.5751 27.2391C31.5202 27.1513 31.4708 27.0582 31.4215 26.9652L31.3557 26.8359C31.3008 26.7325 31.2459 26.6239 31.1966 26.5102C31.1843 26.4783 31.1696 26.4472 31.1528 26.4172C31.0869 26.2673 31.0266 26.1173 30.9608 25.9622C30.9631 25.9364 30.9631 25.9105 30.9608 25.8846L30.8127 25.4866L30.7633 25.3367C30.7194 25.2126 30.681 25.0938 30.6426 24.9696L30.5932 24.8146C30.5494 24.6698 30.5055 24.525 30.4671 24.3751L30.4397 24.2873L30.2916 23.7238C30.2916 23.6927 30.2916 23.6566 30.2916 23.6204L30.1765 23.1499C30.1765 23.0931 30.149 23.031 30.1381 22.9742C30.1051 22.8294 30.0722 22.6846 30.0448 22.5347C30.0288 22.4803 30.016 22.4251 30.0064 22.3693C29.968 22.1884 29.9351 22.0075 29.8967 21.8213C29.8967 21.8213 29.8967 21.78 29.8967 21.7594C29.8583 21.5474 29.8144 21.3354 29.7761 21.1183C29.7787 21.0752 29.7787 21.0321 29.7761 20.989C29.7761 20.8185 29.7157 20.6427 29.6883 20.4721L29.6554 20.2808C29.6279 20.1153 29.6005 19.9551 29.5786 19.7897C29.5786 19.7328 29.5786 19.6707 29.5511 19.6139C29.5182 19.4019 28.7668 14.2168 28.7449 14.0721C28.7449 14.0152 28.7449 13.9532 28.7449 13.8911C28.7449 13.8291 28.7065 13.6533 28.69 13.5344L28.6571 13.3173L28.6297 13.157L28.5639 12.7486L28.5145 12.4333L28.4816 12.242C27.4779 6.24521 25.9146 0.96701 21.5049 0.96701C8.67025 0.96701 -5.8811 30.3047 3.09215 30.3047C7.69944 30.3047 13.4312 24.9438 19.6345 21.0511L19.7551 20.9787L20.4134 20.5703L20.4846 20.5289L21.2087 20.1051L21.3184 20.043L21.9765 19.6811L22.0698 19.6294L22.8047 19.2469L22.898 19.2003L23.5562 18.8798L23.6714 18.8282L23.8414 18.7506L23.441 17.3031L23.3258 17.3496L23.1338 17.422C22.7335 17.5771 22.3275 17.7425 21.9217 17.9389L21.7572 18.0113L21.2251 18.2439C20.7973 18.4404 20.364 18.642 19.9362 18.854L19.8429 18.9005L19.4261 19.1072L19.3273 19.159C18.7788 19.4226 18.2797 19.676 17.7642 19.9758C10.206 24.065 3.60773 29.2449 3.60773 24.4682C3.60773 19.5984 13.5902 9.06784 19.4315 9.06784C19.5577 9.06784 19.6784 9.06784 19.7991 9.06784H19.9087C19.9917 9.0724 20.0743 9.08277 20.1555 9.09886H20.2598L20.5066 9.15055H20.5998L20.907 9.24877L20.9948 9.27979L21.2197 9.37285L21.2854 9.40387H21.3348L21.5323 9.50726L21.631 9.56412L21.8394 9.69336L21.9108 9.73987L21.9436 9.76576C22.0183 9.81502 22.0898 9.86855 22.1576 9.92595L22.2453 9.99325L22.4153 10.1379C22.4286 10.1531 22.4432 10.1668 22.4592 10.1793L22.5251 10.2413C22.5799 10.2931 22.6347 10.3448 22.6841 10.4016L22.7773 10.4998C22.8322 10.555 22.8871 10.617 22.9418 10.6859L22.9858 10.7324L23.057 10.8203C23.1064 10.8824 23.1558 10.9393 23.1997 11.0012L23.271 11.0943C23.2837 11.1162 23.2983 11.1369 23.3149 11.1564L23.43 11.3166L23.4574 11.3529L23.5398 11.4769L23.655 11.663C23.6819 11.7008 23.7058 11.7406 23.7262 11.782L23.7756 11.8594L23.8688 12.0197L23.9018 12.0714C23.9018 12.118 23.9511 12.1645 23.9786 12.2109C24.006 12.2575 23.9786 12.2109 23.9786 12.242C23.9786 12.273 24.0389 12.3506 24.0717 12.4074L24.1266 12.516C24.1266 12.5626 24.1705 12.609 24.1979 12.6556L24.2802 12.8261L24.3625 13.0019L24.3954 13.0691C24.3954 13.1157 24.4338 13.157 24.4502 13.1984L24.5105 13.3328L24.5708 13.4723L24.6092 13.5654L24.6532 13.674L24.719 13.8342L24.7958 14.0204L24.8616 14.1858C24.8616 14.2478 24.9055 14.3099 24.9329 14.3771C24.9603 14.4443 24.9713 14.4804 24.9877 14.5373C24.9877 14.5994 25.0371 14.6614 25.0591 14.7286C25.081 14.7958 25.0975 14.832 25.1139 14.8889C25.117 14.9024 25.117 14.9166 25.1139 14.9302C25.1139 14.9612 26.88 21.294 27.1762 22.4107C27.1787 22.4261 27.1787 22.4418 27.1762 22.4572C27.2146 22.6019 27.2585 22.7467 27.2969 22.8915C27.307 22.9386 27.3199 22.9852 27.3353 23.031C27.3681 23.1551 27.4065 23.2844 27.4395 23.4136L27.4889 23.5894C27.5273 23.7083 27.5601 23.8324 27.5931 23.9513C27.626 24.0701 27.6315 24.0753 27.6479 24.1373C27.6644 24.1994 27.7193 24.37 27.7521 24.4837C27.7737 24.5413 27.792 24.6 27.807 24.6594L28.0044 25.2747C28.0319 25.347 28.0538 25.4246 28.0812 25.497C28.1087 25.5693 28.1416 25.6728 28.1744 25.7606C28.2074 25.8485 28.2293 25.9312 28.2622 26.0088C28.2952 26.0863 28.3225 26.1793 28.3555 26.262C28.3883 26.3448 28.4158 26.4275 28.4487 26.5102L28.5419 26.7532L28.6462 27.0013L28.7394 27.2287L28.8546 27.477C28.882 27.5493 28.9149 27.6165 28.9479 27.6889L29.0794 27.9525C29.0794 28.0094 29.1343 28.0714 29.1672 28.1283C29.2385 28.2679 29.3098 28.4075 29.3867 28.5419L29.4579 28.6659L29.6225 28.9451L29.7266 29.1003L29.8748 29.3225L29.9845 29.4776L30.1381 29.6844C30.1752 29.7348 30.2154 29.7832 30.2587 29.8291C30.3081 29.8963 30.3629 29.9583 30.4177 30.0204L30.5385 30.1548L30.7194 30.3409L30.8346 30.4495L31.0704 30.6562L31.1418 30.7183C31.2459 30.801 31.3557 30.8786 31.4654 30.9561L31.5641 31.0181L31.8055 31.1629L31.9426 31.2301L32.1674 31.3387L32.3155 31.4007L32.5459 31.4834L32.705 31.5299L32.9517 31.592L33.1053 31.623C33.1995 31.6422 33.2947 31.656 33.3905 31.6643H33.5276C33.6739 31.6722 33.8203 31.6722 33.9664 31.6643C34.1035 31.6643 34.2352 31.6643 34.3669 31.6643H34.7234C34.8771 31.6401 35.0291 31.6073 35.1786 31.5661H35.2499L35.3596 31.5299C38.1021 30.6873 39.7914 27.3632 39.7914 23.9409C39.7397 22.7742 39.4185 21.6322 38.85 20.5947C38.2816 19.5572 37.4797 18.6491 36.5004 17.9338" fill="url(#paint0_linear_1302_18650)"/>
<path d="M100.72 5.35324H100.763C101.367 5.38648 101.936 5.65134 102.352 6.09332C102.767 6.53531 102.998 7.12085 102.998 7.72952C102.998 8.33819 102.767 8.92373 102.352 9.36572C101.936 9.80773 101.367 10.0726 100.763 10.1058H100.72C100.117 10.0726 99.5491 9.80773 99.1331 9.36572C98.7171 8.92373 98.4854 8.33819 98.4854 7.72952C98.4854 7.12085 98.7171 6.53531 99.1331 6.09332C99.5491 5.65134 100.117 5.38648 100.72 5.35324Z" fill="#5E9942"/>
<path d="M103.664 22.1683C103.683 22.2031 103.694 22.2422 103.694 22.282C103.694 22.3217 103.683 22.3609 103.664 22.3956C103.643 22.4268 103.615 22.4523 103.581 22.4696C103.548 22.487 103.511 22.4958 103.473 22.4951H98.2148C98.1779 22.4958 98.1401 22.487 98.1072 22.4696C98.0742 22.4523 98.0461 22.4268 98.0247 22.3956C98.0053 22.3609 97.9956 22.3217 97.9956 22.282C97.9956 22.2422 98.0053 22.2031 98.0247 22.1683L98.6735 20.5344V13.8567L97.8977 12.5424C97.8802 12.5109 97.8715 12.4754 97.8715 12.4395C97.8715 12.4034 97.8802 12.368 97.8977 12.3365C97.9103 12.3035 97.9307 12.2737 97.9559 12.2492C97.9821 12.2247 98.0121 12.2059 98.0461 12.1943L98.8577 11.9386L102.782 10.8517C102.817 10.8447 102.853 10.8448 102.889 10.8522C102.924 10.8594 102.957 10.8738 102.987 10.8943C103.015 10.9174 103.038 10.9467 103.054 10.9799C103.07 11.013 103.078 11.0493 103.079 11.0861V20.5628L103.664 22.1683Z" fill="#5E9942"/>
<path d="M91.5661 14.425V20.5629L90.9379 22.2039C90.9206 22.238 90.9116 22.2757 90.9116 22.314C90.9116 22.3523 90.9206 22.39 90.9379 22.4241C90.9596 22.4563 90.9892 22.4824 91.0238 22.4999C91.0585 22.5172 91.097 22.5254 91.1355 22.5235H96.4364C96.475 22.5254 96.5135 22.5172 96.5481 22.4999C96.5827 22.4824 96.6123 22.4563 96.634 22.4241C96.6514 22.39 96.6604 22.3523 96.6604 22.314C96.6604 22.2757 96.6514 22.238 96.634 22.2039L95.9846 20.5629V13.9064C95.9846 11.8605 94.7636 10.5605 92.759 10.5605C91.9299 10.5296 91.1072 10.7182 90.3733 11.1075C89.7758 11.4586 89.2091 11.8603 88.6792 12.3081V11.0791C88.6811 11.0421 88.674 11.0054 88.6586 10.9718C88.6431 10.9384 88.6198 10.9092 88.5906 10.8868C88.5614 10.8644 88.5272 10.8494 88.491 10.8433C88.4548 10.8372 88.4177 10.8401 88.3828 10.8517L83.682 12.1944C83.6482 12.2056 83.6174 12.2241 83.5917 12.2486C83.5659 12.2733 83.5459 12.3032 83.5331 12.3365C83.5203 12.3698 83.515 12.4055 83.5175 12.4411C83.52 12.4768 83.5304 12.5114 83.5479 12.5424L84.2537 13.7786V20.6411L83.6503 22.2039C83.6329 22.238 83.6239 22.2757 83.6239 22.314C83.6239 22.3523 83.6329 22.39 83.6503 22.4241C83.6714 22.4553 83.6998 22.4808 83.7331 22.4981C83.7663 22.5155 83.8034 22.5242 83.8409 22.5235H89.0994C89.1378 22.5241 89.1758 22.5154 89.2102 22.4981C89.2446 22.4808 89.2743 22.4555 89.297 22.4241C89.3144 22.39 89.3234 22.3523 89.3234 22.314C89.3234 22.2757 89.3144 22.238 89.297 22.2039L88.651 20.5273V14.6027C88.9917 14.3373 89.3529 14.0999 89.7309 13.8923C90.0768 13.6933 90.8391 13.3168 91.2414 13.5299C91.5238 13.7146 91.5661 14.1409 91.5661 14.425Z" fill="#5E9942"/>
<path d="M56.359 20.5629V14.425C56.359 14.148 56.359 13.6153 56.0344 13.4803C55.7097 13.3453 55.011 13.7005 54.7144 13.8923C54.3708 14.1049 54.0428 14.3422 53.7334 14.6027V20.5274L54.3778 22.1927C54.3951 22.2267 54.4041 22.2646 54.4041 22.3028C54.4041 22.3411 54.3951 22.3788 54.3778 22.4129C54.3552 22.4442 54.3254 22.4696 54.291 22.4869C54.2566 22.5042 54.2186 22.5129 54.1801 22.5124H48.9499C48.9113 22.5143 48.8728 22.506 48.8382 22.4887C48.8035 22.4712 48.774 22.4451 48.7523 22.4129C48.7349 22.3788 48.7259 22.3411 48.7259 22.3028C48.7259 22.2646 48.7349 22.2267 48.7523 22.1927L49.4066 20.5274V13.6437L48.5878 12.5781C48.572 12.5435 48.5638 12.5059 48.5638 12.4679C48.5638 12.4299 48.572 12.3924 48.5878 12.3578C48.5984 12.3206 48.6181 12.2868 48.6453 12.2594C48.6724 12.2321 48.7062 12.2122 48.7431 12.2015L49.5548 11.9458L53.4863 10.8589C53.5215 10.8518 53.5578 10.852 53.593 10.8593C53.6281 10.8666 53.6614 10.881 53.691 10.9016C53.7194 10.9246 53.7424 10.9538 53.7583 10.9871C53.7742 11.0202 53.7826 11.0565 53.7828 11.0934V12.3152C53.8657 12.245 53.9485 12.1736 54.0316 12.1019C54.352 11.8257 54.676 11.5463 55.018 11.3207C55.7895 10.7973 56.7071 10.536 57.6366 10.5748C58.2699 10.5426 58.8969 10.7148 59.4264 11.0661C59.9557 11.4175 60.3599 11.9297 60.5799 12.5283C60.7135 12.4189 60.847 12.3068 60.9809 12.1946C61.3426 11.891 61.7074 11.585 62.0834 11.3207C62.8553 10.7982 63.7726 10.537 64.702 10.5748C65.3662 10.5701 66.0168 10.7629 66.5725 11.1289C67.0038 11.4477 67.3487 11.8703 67.5756 12.358C67.8025 12.8459 67.9042 13.3831 67.8713 13.9207V20.8116L68.4216 22.2182C68.4422 22.2511 68.4532 22.2893 68.4532 22.3283C68.4532 22.3673 68.4422 22.4055 68.4216 22.4384C68.4004 22.4696 68.372 22.495 68.3388 22.5123C68.3055 22.5297 68.2685 22.5385 68.2309 22.5378H62.9725C62.9345 22.5381 62.8969 22.5291 62.8631 22.5114C62.8293 22.4937 62.8004 22.4679 62.7788 22.4364C62.7573 22.4049 62.7436 22.3685 62.7393 22.3304C62.7349 22.2924 62.7398 22.2538 62.7537 22.2182L63.4033 20.5914V14.425C63.4033 14.148 63.4033 13.6153 63.0787 13.4803C62.7539 13.3453 62.0551 13.7005 61.7658 13.8923C61.4004 14.1281 61.0535 14.3917 60.7282 14.6809V20.7974L61.2858 22.2182C61.3031 22.2522 61.3122 22.29 61.3122 22.3283C61.3122 22.3666 61.3031 22.4043 61.2858 22.4384C61.2632 22.4697 61.2334 22.4951 61.199 22.5124C61.1647 22.5297 61.1267 22.5384 61.0882 22.5378H55.9144C55.8759 22.5384 55.8379 22.5297 55.8035 22.5124C55.7692 22.4951 55.7394 22.4697 55.7167 22.4384C55.6995 22.4043 55.6903 22.3666 55.6903 22.3283C55.6903 22.29 55.6995 22.2522 55.7167 22.2182L56.359 20.5629Z" fill="#5E9942"/>
<path fill-rule="evenodd" clip-rule="evenodd" d="M69.2123 16.76C69.2123 12.8316 72.205 10.6507 75.8754 10.6507C79.5457 10.6507 82.5596 12.7819 82.5596 16.76C82.5596 20.7383 79.574 22.8979 75.8754 22.8979C72.1767 22.8979 69.2123 20.7028 69.2123 16.76ZM74.8589 12.2917C74.1531 12.4622 73.7791 13.272 73.6097 13.9184C73.367 15.0372 73.3863 16.1972 73.6661 17.3071C73.8945 18.4219 74.3778 19.4678 75.0778 20.3618C75.2784 20.658 75.5529 20.8961 75.8738 21.0519C76.1947 21.2078 76.5506 21.276 76.9059 21.2498C77.6117 21.0793 77.9858 20.2766 78.1481 19.623C78.3726 18.5054 78.3557 17.3523 78.0988 16.2419C77.8419 15.1314 77.3508 14.0895 76.6589 13.1868C76.4595 12.8955 76.1895 12.6605 75.8745 12.5038C75.5594 12.3471 75.2099 12.2741 74.8589 12.2917Z" fill="#5E9942"/>
<path fill-rule="evenodd" clip-rule="evenodd" d="M111.339 20.0783C110.717 19.6116 110.233 18.9835 109.939 18.2613H109.904C109.901 18.2449 109.901 18.228 109.904 18.2115L113.793 16.9684L116.362 16.1301L117.167 15.8744C117.218 15.8586 117.262 15.8265 117.293 15.7827C117.323 15.739 117.338 15.6862 117.336 15.6328C117.117 12.159 115.197 10.5393 111.789 10.5393C108.111 10.5393 105.153 12.713 105.153 16.6557C105.153 20.5985 108.132 22.7936 111.817 22.7936C112.806 22.8521 113.795 22.6916 114.716 22.3233C115.636 21.9551 116.466 21.3881 117.145 20.6624C117.182 20.62 117.201 20.5658 117.201 20.5097C117.201 20.4537 117.182 20.3994 117.145 20.357C117.11 20.3148 117.061 20.2861 117.008 20.2758C116.953 20.2654 116.898 20.2741 116.849 20.3001C116.059 20.7428 115.17 20.9728 114.266 20.9679C113.999 20.9666 113.733 20.9476 113.468 20.9111C112.696 20.8329 111.96 20.5451 111.339 20.0783ZM113.094 14.1765C113.188 14.5499 113.227 14.9355 113.207 15.3203L109.473 16.5208C109.321 15.6196 109.35 14.6969 109.558 13.8071C109.613 13.4854 109.737 13.1798 109.922 12.912C110.108 12.6443 110.35 12.4212 110.631 12.2585L110.793 12.2016C112.035 11.9103 112.826 13.118 113.094 14.1765Z" fill="#5E9942"/>
<path d="M125.622 18.382L127.288 14.1196L125.947 11.1857C125.927 11.1513 125.916 11.112 125.916 11.0719C125.916 11.0319 125.927 10.9926 125.947 10.9583C125.966 10.9244 125.995 10.8962 126.028 10.8763C126.062 10.8564 126.099 10.8455 126.138 10.8446H130.584C130.63 10.8451 130.673 10.8588 130.711 10.884C130.749 10.9092 130.778 10.9449 130.797 10.9867C131.207 11.9327 131.611 12.8798 132.015 13.8262L132.017 13.8309V13.8328C132.636 15.2794 133.253 16.7245 133.888 18.1618L134.919 11.0578C134.926 11.0006 134.953 10.9481 134.996 10.9101C135.039 10.8721 135.094 10.8513 135.151 10.8517H138.977C139.016 10.8526 139.054 10.8627 139.088 10.8812C139.123 10.8997 139.152 10.9261 139.175 10.9583C139.194 10.9931 139.204 11.0322 139.204 11.0719C139.204 11.1118 139.194 11.1508 139.175 11.1857L134.375 22.3815C134.359 22.4244 134.33 22.4612 134.291 22.4867C134.254 22.5122 134.209 22.5251 134.163 22.5235H131.277C131.232 22.5237 131.188 22.5111 131.15 22.4872C131.114 22.4633 131.084 22.4291 131.064 22.3886L128.453 16.6628L125.983 22.346C125.966 22.389 125.937 22.4257 125.9 22.4512C125.862 22.4767 125.816 22.4895 125.771 22.4881H122.884C122.839 22.4883 122.796 22.4755 122.759 22.4517C122.721 22.4277 122.691 22.3935 122.672 22.3531L117.555 11.143C117.536 11.1082 117.525 11.0691 117.525 11.0293C117.525 10.9896 117.536 10.9504 117.555 10.9157C117.576 10.8818 117.605 10.8536 117.64 10.8338C117.674 10.8139 117.712 10.803 117.752 10.802H122.58C122.626 10.8016 122.67 10.8148 122.708 10.8402C122.746 10.8655 122.775 10.9017 122.793 10.9441C122.849 11.0694 122.832 11.249 122.816 11.4317C122.798 11.6114 122.782 11.7941 122.834 11.9315C123.116 12.5834 123.386 13.2145 123.652 13.836C124.293 15.3346 124.91 16.7788 125.609 18.3251L125.622 18.382Z" fill="#5E9942"/>
<path fill-rule="evenodd" clip-rule="evenodd" d="M146.134 10.5818C142.464 10.5818 139.472 12.7627 139.472 16.6912C139.472 20.6339 142.436 22.8291 146.134 22.8291C149.833 22.8291 152.818 20.6695 152.818 16.6912C152.818 12.713 149.805 10.5818 146.134 10.5818ZM143.868 13.8496C144.038 13.2032 144.412 12.3933 145.118 12.2229C145.475 12.1942 145.834 12.2597 146.158 12.4129C146.482 12.5661 146.761 12.8018 146.967 13.0967C147.654 14.0059 148.138 15.0533 148.386 16.1676C148.634 17.2818 148.642 18.4369 148.407 19.5542C148.244 20.2077 147.871 21.0105 147.165 21.1809C146.809 21.2072 146.453 21.1389 146.132 20.9831C145.812 20.8272 145.537 20.5892 145.336 20.293C144.637 19.399 144.153 18.3531 143.925 17.2382C143.645 16.1284 143.626 14.9683 143.868 13.8496Z" fill="#5E9942"/>
<path d="M154.816 20.5629V13.8567L154.026 12.5424C154.01 12.5104 154.002 12.4752 154.002 12.4395C154.002 12.4038 154.01 12.3685 154.026 12.3365C154.054 12.2712 154.107 12.2201 154.174 12.1944L154.986 11.9386L158.91 10.8517C158.945 10.8447 158.982 10.8448 159.017 10.8522C159.052 10.8594 159.085 10.8738 159.115 10.8944C159.143 10.9175 159.166 10.9467 159.182 10.9799C159.198 11.013 159.206 11.0493 159.207 11.0862V11.9245C159.753 11.4294 160.391 11.048 161.084 10.802C161.773 10.5307 162.53 10.4909 163.244 10.6883C163.291 10.7023 163.332 10.7312 163.362 10.771C163.391 10.8108 163.407 10.8591 163.406 10.9086V14.4605C163.406 14.5078 163.391 14.5539 163.365 14.5931C163.339 14.6322 163.301 14.6627 163.258 14.6808C163.215 14.6978 163.167 14.7016 163.123 14.6914C163.077 14.6813 163.036 14.6578 163.004 14.6239C162.717 14.3231 162.36 14.1002 161.966 13.976C161.57 13.8517 161.15 13.8303 160.745 13.9135C160.181 14.013 159.418 14.3682 159.27 14.9863C159.263 15.05 159.263 15.1143 159.27 15.1781V20.5771L159.92 22.2181C159.933 22.2538 159.938 22.2924 159.934 22.3304C159.929 22.3684 159.916 22.4049 159.894 22.4364C159.872 22.4679 159.844 22.4937 159.81 22.5113C159.776 22.529 159.738 22.5381 159.7 22.5378H154.442C154.404 22.5381 154.366 22.529 154.332 22.5113C154.299 22.4937 154.27 22.4679 154.249 22.4364C154.227 22.4049 154.213 22.3684 154.209 22.3304C154.204 22.2924 154.209 22.2538 154.224 22.2181L154.816 20.5629Z" fill="#5E9942"/>
<path d="M164.895 11.2354L169.667 16.6842L164.895 22.1685C164.865 22.2026 164.845 22.2448 164.837 22.2901C164.83 22.3354 164.835 22.3819 164.853 22.4242C164.873 22.4658 164.904 22.5007 164.943 22.5247C164.981 22.5487 165.026 22.5607 165.072 22.5592H169.491C169.538 22.5596 169.584 22.5455 169.623 22.5188C169.662 22.4922 169.692 22.4543 169.71 22.4099L171.17 18.4459L174.389 22.2395L174.586 22.481C174.609 22.5056 174.637 22.5252 174.667 22.5387C174.697 22.5522 174.73 22.5591 174.763 22.5592H179.901C179.947 22.5598 179.991 22.5471 180.029 22.5226C180.067 22.4982 180.098 22.4632 180.116 22.4218C180.135 22.3804 180.142 22.3343 180.135 22.2893C180.128 22.2443 180.108 22.2023 180.078 22.1685L175.378 16.6842L180.092 11.2354C180.121 11.2007 180.141 11.1583 180.147 11.1133C180.153 11.0682 180.147 11.0222 180.128 10.9806C180.11 10.939 180.081 10.9035 180.043 10.8782C180.005 10.8529 179.961 10.8388 179.916 10.8376H175.497C175.449 10.8378 175.402 10.8529 175.363 10.8808C175.324 10.9088 175.294 10.9483 175.279 10.9939L173.867 14.9437L171.29 11.9671L170.86 10.9228C170.838 10.8962 170.811 10.8747 170.781 10.86C170.75 10.8452 170.717 10.8376 170.683 10.8376H165.072C165.025 10.8356 164.979 10.8479 164.94 10.8726C164.9 10.8973 164.869 10.9334 164.85 10.9762C164.83 11.0191 164.824 11.0667 164.833 11.1129C164.841 11.1591 164.863 11.2018 164.895 11.2354Z" fill="#5E9942"/>
</g>
<line x1="192.864" y1="4" x2="192.864" y2="28" stroke="#E1E7EC"/>
<path d="M205.596 23V11.08H209.932C210.732 11.08 211.436 11.2293 212.044 11.528C212.662 11.816 213.142 12.2427 213.484 12.808C213.825 13.3627 213.996 14.0293 213.996 14.808C213.996 15.576 213.82 16.2373 213.468 16.792C213.126 17.3467 212.652 17.7733 212.044 18.072C211.436 18.3707 210.732 18.52 209.932 18.52H207.484V23H205.596ZM207.484 16.84H209.98C210.406 16.84 210.78 16.7547 211.1 16.584C211.42 16.4133 211.67 16.1787 211.852 15.88C212.033 15.5707 212.124 15.208 212.124 14.792C212.124 14.376 212.033 14.0187 211.852 13.72C211.67 13.4107 211.42 13.176 211.1 13.016C210.78 12.8453 210.406 12.76 209.98 12.76H207.484V16.84ZM215.763 23V14.344H217.491V16.088L217.331 15.832C217.523 15.2667 217.833 14.8613 218.259 14.616C218.686 14.36 219.198 14.232 219.795 14.232H220.323V15.88H219.571C218.974 15.88 218.489 16.0667 218.115 16.44C217.753 16.8027 217.571 17.3253 217.571 18.008V23H215.763ZM221.56 23V14.344H223.368V23H221.56ZM221.56 13.16V11.08H223.368V13.16H221.56ZM225.482 23V14.344H227.21V16.216L226.986 15.928C227.167 15.3413 227.498 14.8987 227.978 14.6C228.458 14.3013 229.007 14.152 229.626 14.152C230.319 14.152 230.933 14.3387 231.466 14.712C232.01 15.0747 232.373 15.56 232.554 16.168L232.042 16.216C232.298 15.5227 232.687 15.0053 233.21 14.664C233.743 14.3227 234.351 14.152 235.034 14.152C235.631 14.152 236.17 14.2907 236.65 14.568C237.141 14.8453 237.53 15.2293 237.818 15.72C238.106 16.2107 238.25 16.7707 238.25 17.4V23H236.442V17.896C236.442 17.4587 236.362 17.0907 236.202 16.792C236.053 16.4827 235.839 16.248 235.562 16.088C235.295 15.9173 234.981 15.832 234.618 15.832C234.255 15.832 233.935 15.9173 233.658 16.088C233.381 16.248 233.162 16.4827 233.002 16.792C232.842 17.1013 232.762 17.4693 232.762 17.896V23H230.97V17.896C230.97 17.4587 230.89 17.0907 230.73 16.792C230.581 16.4827 230.367 16.248 230.09 16.088C229.823 15.9173 229.503 15.832 229.13 15.832C228.767 15.832 228.447 15.9173 228.17 16.088C227.893 16.248 227.674 16.4827 227.514 16.792C227.365 17.1013 227.29 17.4693 227.29 17.896V23H225.482ZM244.249 23.192C243.385 23.192 242.617 22.9947 241.945 22.6C241.284 22.1947 240.767 21.6507 240.393 20.968C240.02 20.2747 239.833 19.5013 239.833 18.648C239.833 17.7733 240.02 17 240.393 16.328C240.777 15.656 241.289 15.128 241.929 14.744C242.569 14.3493 243.295 14.152 244.105 14.152C244.756 14.152 245.337 14.264 245.849 14.488C246.361 14.712 246.793 15.0213 247.145 15.416C247.497 15.8 247.764 16.2427 247.945 16.744C248.137 17.2453 248.233 17.7787 248.233 18.344C248.233 18.4827 248.228 18.6267 248.217 18.776C248.207 18.9253 248.185 19.064 248.153 19.192H241.257V17.752H247.129L246.265 18.408C246.372 17.8853 246.335 17.4213 246.153 17.016C245.983 16.6 245.716 16.2747 245.353 16.04C245.001 15.7947 244.585 15.672 244.105 15.672C243.625 15.672 243.199 15.7947 242.825 16.04C242.452 16.2747 242.164 16.616 241.961 17.064C241.759 17.5013 241.679 18.0347 241.721 18.664C241.668 19.2507 241.748 19.7627 241.961 20.2C242.185 20.6373 242.495 20.9787 242.889 21.224C243.295 21.4693 243.753 21.592 244.265 21.592C244.788 21.592 245.231 21.4747 245.593 21.24C245.967 21.0053 246.26 20.7013 246.473 20.328L247.945 21.048C247.775 21.4533 247.508 21.8213 247.145 22.152C246.793 22.472 246.367 22.728 245.865 22.92C245.375 23.1013 244.836 23.192 244.249 23.192Z" fill="#121212"/>
<defs>
<linearGradient id="paint0_linear_1302_18650" x1="6.34988" y1="10.2619" x2="34.1489" y2="31.8834" gradientUnits="userSpaceOnUse">
<stop stop-color="#5E9942"/>
<stop offset="0.473958" stop-color="#EA862B"/>
<stop offset="1" stop-color="#EA2229"/>
</linearGradient>
<clipPath id="clip0_1302_18650">
<rect width="180.364" height="32" fill="white"/>
</clipPath>
</defs>
</svg>
