<svg width="25" height="24" viewBox="0 0 25 24" fill="none" xmlns="http://www.w3.org/2000/svg">
<path d="M19.0457 18.051L18.9344 18.1293L18.8781 18.2532L17.5396 21.2001C17.5394 21.2005 17.5392 21.201 17.539 21.2014C17.3775 21.548 16.9262 21.5973 16.6992 21.3219L16.6978 21.3204L15.2178 19.5404L15.0679 19.36H14.8334C13.2772 19.36 11.8387 18.8906 10.6879 18.0974L10.8121 17.9504C15.567 17.4887 19.3334 13.6786 19.3334 9.00002C19.3334 8.60414 19.3053 8.21144 19.2519 7.82439C20.832 9.02057 21.8334 10.84 21.8334 12.86C21.8334 14.9709 20.7466 16.8549 19.0457 18.051Z" fill="#5E9942" stroke="#5E9942"/>
<path d="M16.1839 6.2891L16.1839 6.28912L16.1872 6.29561C16.603 7.11794 16.8334 8.03089 16.8334 9C16.8334 12.5617 13.7306 15.5 9.83337 15.5H9.59865L9.4487 15.6806L8.51926 16.7999L8.5187 16.8006L7.97039 17.4586C7.97023 17.4588 7.97007 17.4589 7.9699 17.4591C7.73751 17.7352 7.28565 17.6802 7.12778 17.3414C7.12757 17.3409 7.12736 17.3405 7.12716 17.34L5.78861 14.3932L5.73233 14.2693L5.62101 14.191C3.92018 12.9948 2.83337 11.1109 2.83337 9C2.83337 5.43834 5.93618 2.5 9.83337 2.5C12.6708 2.5 15.1014 4.06858 16.1839 6.2891ZM7.33337 10.25H12.3334C13.0195 10.25 13.5834 9.68614 13.5834 9C13.5834 8.31386 13.0195 7.75 12.3334 7.75H7.33337C6.64723 7.75 6.08337 8.31386 6.08337 9C6.08337 9.68614 6.64723 10.25 7.33337 10.25Z" fill="#5E9942" stroke="#5E9942"/>
</svg>
