<svg width="25" height="24" viewBox="0 0 25 24" fill="none" xmlns="http://www.w3.org/2000/svg">
<path d="M22.1566 7.80863V7.81V16.19C22.1566 17.9106 21.6457 19.2238 20.7631 20.1064C19.8804 20.9891 18.5672 21.5 16.8466 21.5H8.47663C6.75607 21.5 5.44296 20.9891 4.5604 20.1054C3.67777 19.2217 3.16663 17.9059 3.16663 16.18V7.81C3.16663 6.08944 3.67755 4.77618 4.56018 3.89355C5.4428 3.01093 6.75606 2.5 8.47663 2.5H16.8566C18.5773 2.5 19.8903 3.01097 20.7716 3.89333C21.6528 4.77559 22.1614 6.08838 22.1566 7.80863ZM9.89053 11.12L9.89053 11.12H9.89663C10.995 11.12 11.8766 10.2239 11.8766 9.14C11.8766 8.04166 10.9806 7.16 9.89663 7.16C8.79829 7.16 7.91663 8.05606 7.91663 9.14C7.91663 10.2295 8.80252 11.1067 9.89053 11.12ZM8.60307 14.3864L8.60302 14.3864L8.59713 14.3925C8.12303 14.8829 8.11457 15.665 8.60307 16.1536C8.85178 16.4023 9.17117 16.52 9.48663 16.52C9.80208 16.52 10.1215 16.4023 10.3702 16.1536L16.9202 9.60355C17.4054 9.11829 17.4054 8.32171 16.9202 7.83645C16.4349 7.35118 15.6383 7.35118 15.1531 7.83645L8.60307 14.3864ZM14.4566 14.86C14.4566 15.9583 15.3527 16.84 16.4366 16.84C17.5328 16.84 18.4166 15.9561 18.4166 14.86C18.4166 13.7617 17.5206 12.88 16.4366 12.88C15.3383 12.88 14.4566 13.7761 14.4566 14.86Z" fill="#5E9942" stroke="#5E9942"/>
</svg>
