<svg width="25" height="24" viewBox="0 0 25 24" fill="none" xmlns="http://www.w3.org/2000/svg">
<path d="M8.44396 7.77556L8.44395 7.77555L8.44096 7.77857C7.53495 8.6955 6.95688 9.86396 6.77177 11.1584C6.67419 11.8284 7.1362 12.4629 7.79709 12.5623C7.88328 12.5802 7.953 12.5801 7.9903 12.58C7.99253 12.58 7.99464 12.58 7.99663 12.58C8.60773 12.58 9.14527 12.1346 9.23158 11.5109C9.3472 10.7411 9.68137 10.0624 10.2002 9.54355C11.0434 8.70032 12.2119 8.3823 13.3018 8.59055C13.0649 8.81854 12.9166 9.1382 12.9166 9.49C12.9166 10.1761 13.4805 10.74 14.1666 10.74H16.8366C17.5228 10.74 18.0866 10.1761 18.0866 9.49V6.82C18.0866 6.13386 17.5228 5.57 16.8366 5.57C16.1505 5.57 15.5866 6.13386 15.5866 6.82V6.82427C13.3189 5.5352 10.386 5.84327 8.44396 7.77556ZM17.509 11.4153L17.5073 11.415C16.8061 11.3149 16.1911 11.8034 16.092 12.4766C15.9768 13.2474 15.6424 13.9271 15.1231 14.4464C14.2798 15.2897 13.1114 15.6077 12.0214 15.3995C12.2584 15.1715 12.4066 14.8518 12.4066 14.5C12.4066 13.8139 11.8428 13.25 11.1566 13.25H8.48663C7.80048 13.25 7.23663 13.8139 7.23663 14.5V17.17C7.23663 17.8561 7.80048 18.42 8.48663 18.42C9.17016 18.42 9.73234 17.8604 9.7366 17.1778C10.6393 17.6966 11.6478 17.97 12.6666 17.97C14.193 17.97 15.7221 17.3917 16.8902 16.2236C17.7993 15.3144 18.3761 14.1449 18.5712 12.8336L18.5714 12.8336L18.5729 12.8205C18.6547 12.1502 18.1967 11.5159 17.509 11.4153ZM3.16663 12C3.16663 6.75614 7.42277 2.5 12.6666 2.5C17.9105 2.5 22.1666 6.75614 22.1666 12C22.1666 17.2439 17.9105 21.5 12.6666 21.5C7.42277 21.5 3.16663 17.2439 3.16663 12Z" fill="#5E9942" stroke="#5E9942"/>
</svg>
