<svg width="24" height="24" viewBox="0 0 24 24" fill="none" xmlns="http://www.w3.org/2000/svg">
<path d="M18.3249 4.57828L18.3245 4.57815L13.335 2.70834C13.3349 2.7083 13.3348 2.70827 13.3347 2.70823C12.9927 2.58056 12.509 2.50745 12 2.50745C11.491 2.50745 11.0072 2.58056 10.6652 2.70823C10.6651 2.70827 10.665 2.7083 10.6649 2.70834L5.67543 4.57815L5.67509 4.57828C5.21469 4.75043 4.76816 5.12255 4.43462 5.60359C4.10101 6.08474 3.90997 6.63224 3.90997 7.11995V14.5499C3.90997 15.0407 4.07571 15.6456 4.3654 16.2215C4.65495 16.7972 5.04281 17.293 5.43908 17.5893L18.3249 4.57828ZM18.3249 4.57828C18.7852 4.75041 19.2322 5.12266 19.5687 5.60486C19.9043 6.08575 20.101 6.63425 20.11 7.1243V14.5499C20.11 15.0407 19.9442 15.6456 19.6545 16.2215M18.3249 4.57828L19.6545 16.2215M19.6545 16.2215C19.365 16.7972 18.9771 17.293 18.5809 17.5893L19.6545 16.2215ZM9.73908 20.7993L5.4393 17.5894H18.5806L14.2809 20.7993L14.2795 20.8003C13.6764 21.2537 12.8549 21.4949 12.01 21.4949C11.165 21.4949 10.3435 21.2537 9.74043 20.8003L9.73908 20.7993ZM12.01 11.7999H12.0187L12.0274 11.7996C13.4443 11.7504 14.57 10.6016 14.57 9.16995C14.57 7.7138 13.3861 6.52995 11.93 6.52995C10.4838 6.52995 9.29878 7.7143 9.30997 9.17207C9.31108 10.607 10.4308 11.7509 11.8933 11.7997L11.9016 11.7999H11.91H11.9101H11.9102H11.9103H11.9104H11.9106H11.9107H11.9108H11.9109H11.911H11.9111H11.9113H11.9114H11.9115H11.9116H11.9117H11.9118H11.912H11.9121H11.9122H11.9123H11.9124H11.9126H11.9127H11.9128H11.9129H11.913H11.9131H11.9133H11.9134H11.9135H11.9136H11.9137H11.9138H11.914H11.9141H11.9142H11.9143H11.9144H11.9145H11.9147H11.9148H11.9149H11.915H11.9151H11.9152H11.9154H11.9155H11.9156H11.9157H11.9158H11.9159H11.9161H11.9162H11.9163H11.9164H11.9165H11.9167H11.9168H11.9169H11.917H11.9171H11.9172H11.9174H11.9175H11.9176H11.9177H11.9178H11.9179H11.9181H11.9182H11.9183H11.9184H11.9185H11.9186H11.9188H11.9189H11.919H11.9191H11.9192H11.9193H11.9195H11.9196H11.9197H11.9198H11.9199H11.9201H11.9202H11.9203H11.9204H11.9205H11.9206H11.9208H11.9209H11.921H11.9211H11.9212H11.9213H11.9215H11.9216H11.9217H11.9218H11.9219H11.922H11.9222H11.9223H11.9224H11.9225H11.9226H11.9227H11.9229H11.923H11.9231H11.9232H11.9233H11.9234H11.9236H11.9237H11.9238H11.9239H11.924H11.9242H11.9243H11.9244H11.9245H11.9246H11.9247H11.9249H11.925H11.9251H11.9252H11.9253H11.9254H11.9256H11.9257H11.9258H11.9259H11.926H11.9261H11.9263H11.9264H11.9265H11.9266H11.9267H11.9268H11.927H11.9271H11.9272H11.9273H11.9274H11.9276H11.9277H11.9278H11.9279H11.928H11.9281H11.9283H11.9284H11.9285H11.9286H11.9287H11.9288H11.929H11.9291H11.9292H11.9293H11.9294H11.9295H11.9297H11.9298H11.9299H11.93H11.9301H11.9302H11.9304H11.9305H11.9306H11.9307H11.9308H11.931H11.9311H11.9312H11.9313H11.9314H11.9315H11.9317H11.9318H11.9319H11.932H11.9321H11.9322H11.9324H11.9325H11.9326H11.9327H11.9328H11.9329H11.9331H11.9332H11.9333H11.9334H11.9335H11.9336H11.9338H11.9339H11.934H11.9341H11.9342H11.9343H11.9345H11.9346H11.9347H11.9348H11.9349H11.9351H11.9352H11.9353H11.9354H11.9355H11.9356H11.9358H11.9359H11.936H11.9361H11.9362H11.9363H11.9365H11.9366H11.9367H11.9368H11.9369H11.937H11.9372H11.9373H11.9374H11.9375H11.9376H11.9377H11.9379H11.938H11.9381H11.9382H11.9383H11.9384H11.9386H11.9387H11.9388H11.9389H11.939H11.9392H11.9393H11.9394H11.9395H11.9396H11.9397H11.9399H11.94H11.9401H11.9402H11.9403H11.9404H11.9406H11.9407H11.9408H11.9409H11.941H11.9411H11.9413H11.9414H11.9415H11.9416H11.9417H11.9418H11.942H11.9421H11.9422H11.9423H11.9424H11.9426H11.9427H11.9428H11.9429H11.943H11.9431H11.9433H11.9434H11.9435H11.9436H11.9437H11.9438H11.944H11.9441H11.9442H11.9443H11.9444H11.9445H11.9447H11.9448H11.9449H11.945H11.9451H11.9452H11.9454H11.9455H11.9456H11.9457H11.9458H11.9459H11.9461H11.9462H11.9463H11.9464H11.9465H11.9467H11.9468H11.9469H11.947H11.9471H11.9472H11.9474H11.9475H11.9476H11.9477H11.9478H11.9479H11.9481H11.9482H11.9483H11.9484H11.9485H11.9486H11.9488H11.9489H11.949H11.9491H11.9492H11.9493H11.9495H11.9496H11.9497H11.9498H11.9499H11.9501H11.9502H11.9503H11.9504H11.9505H11.9506H11.9508H11.9509H11.951H11.9511H11.9512H11.9513H11.9515H11.9516H11.9517H11.9518H11.9519H11.952H11.9522H11.9523H11.9524H11.9525H11.9526H11.9527H11.9529H11.953H11.9531H11.9532H11.9533H11.9535H11.9536H11.9537H11.9538H11.9539H11.954H11.9542H11.9543H11.9544H11.9545H11.9546H11.9547H11.9549H11.955H11.9551H11.9552H11.9553H11.9554H11.9556H11.9557H11.9558H11.9559H11.956H11.9561H11.9563H11.9564H11.9565H11.9566H11.9567H11.9568H11.957H11.9571H11.9572H11.9573H11.9574H11.9576H11.9577H11.9578H11.9579H11.958H11.9581H11.9583H11.9584H11.9585H11.9586H11.9587H11.9588H11.959H11.9591H11.9592H11.9593H11.9594H11.9595H11.9597H11.9598H11.9599H11.96H11.9601H11.9602H11.9604H11.9605H11.9606H11.9607H11.9608H11.9609H11.9611H11.9612H11.9613H11.9614H11.9615H11.9617H11.9618H11.9619H11.962H11.9621H11.9622H11.9624H11.9625H11.9626H11.9627H11.9628H11.9629H11.9631H11.9632H11.9633H11.9634H11.9635H11.9636H11.9638H11.9639H11.964H11.9641H11.9642H11.9643H11.9645H11.9646H11.9647H11.9648H11.9649H11.9651H11.9652H11.9653H11.9654H11.9655H11.9656H11.9658H11.9659H11.966H11.9661H11.9662H11.9663H11.9665H11.9666H11.9667H11.9668H11.9669H11.967H11.9672H11.9673H11.9674H11.9675H11.9676H11.9677H11.9679H11.968H11.9681H11.9682H11.9683H11.9685H11.9686H11.9687H11.9688H11.9689H11.969H11.9692H11.9693H11.9694H11.9695H11.9696H11.9697H11.9699H11.97H11.99H12.01ZM14.4642 16.7781L14.4642 16.7781L14.4673 16.776C15.1458 16.3237 15.5764 15.6439 15.5899 14.8889L15.59 14.8889V14.8799C15.59 14.1034 15.1501 13.4425 14.4773 12.9939L14.4757 12.9929C13.772 12.5276 12.8756 12.3099 12.005 12.3099C11.1343 12.3099 10.2379 12.5276 9.53421 12.9929L9.53262 12.9939C8.85527 13.4455 8.41997 14.1279 8.41997 14.8899H8.4199L8.42005 14.8987C8.43345 15.6625 8.85277 16.3218 9.5302 16.7744C10.2321 17.2531 11.1362 17.4699 12 17.4699C12.8718 17.4699 13.7605 17.2395 14.4642 16.7781Z" fill="#5E9942" stroke="#5E9942"/>
</svg>
