<svg width="24" height="24" viewBox="0 0 24 24" fill="none" xmlns="http://www.w3.org/2000/svg">
<path d="M21.49 7.80863V7.81V16.19C21.49 17.9106 20.9791 19.2238 20.0964 20.1064C19.2138 20.9891 17.9006 21.5 16.18 21.5H7.81C6.08945 21.5 4.77634 20.9891 3.89377 20.1054C3.01114 19.2217 2.5 17.9059 2.5 16.18V7.81C2.5 6.08944 3.01093 4.77618 3.89355 3.89355C4.77618 3.01093 6.08944 2.5 7.81 2.5H16.19C17.9107 2.5 19.2237 3.01097 20.105 3.89333C20.9861 4.77559 21.4947 6.08838 21.49 7.80863ZM17.38 11.53V11.03H17.37V9.67C17.37 9.54462 17.3566 9.37944 17.2798 9.20339C17.1582 8.91297 16.9216 8.67757 16.6304 8.55766L16.6145 8.5511L16.5981 8.54566C16.479 8.50596 16.3328 8.47 16.17 8.47H14.31C13.6439 8.47 13.11 9.00386 13.11 9.67C13.11 10.0474 13.2814 10.3824 13.5511 10.6018L12.4564 11.6965L11.7803 10.689C11.5805 10.3697 11.2466 10.1855 10.8974 10.1523C10.5418 10.1184 10.1939 10.239 9.93645 10.4964L6.95645 13.4764L6.95639 13.4764L6.95008 13.4829C6.49678 13.953 6.48771 14.7048 6.95645 15.1736C7.18507 15.4022 7.49441 15.52 7.8 15.52C8.09977 15.52 8.40108 15.416 8.64355 15.1736L10.5936 13.2235L11.2697 14.231C11.4695 14.5503 11.8034 14.7345 12.1526 14.7677C12.5082 14.8016 12.8561 14.681 13.1136 14.4236L15.2482 12.2889C15.4676 12.5586 15.8026 12.73 16.18 12.73C16.8461 12.73 17.38 12.1961 17.38 11.53Z" fill="#5E9942" stroke="#5E9942"/>
</svg>
