<svg width="89" height="32" viewBox="0 0 89 32" fill="none" xmlns="http://www.w3.org/2000/svg">
<path d="M9.53848 20.2821L13.2821 19.3333L14.8462 24.1539L9.53848 20.2821ZM18.1539 14.0513H11.5641L9.53848 7.84616L7.51284 14.0513H0.923096L6.25643 17.8974L4.23079 24.1026L9.56412 20.2564L12.8462 17.8974L18.1539 14.0513Z" fill="#219653"/>
<path d="M28.7092 10.5V21H26.553V10.5H28.7092ZM31.94 10.5V12.1947H23.3727V10.5H31.94ZM34.6155 14.899V21H32.5386V13.1971H34.4929L34.6155 14.899ZM36.9665 13.1466L36.9304 15.0721C36.8294 15.0577 36.7068 15.0457 36.5626 15.0361C36.4232 15.0216 36.2958 15.0144 36.1804 15.0144C35.8871 15.0144 35.6323 15.0529 35.416 15.1298C35.2044 15.2019 35.0265 15.3101 34.8823 15.4543C34.7429 15.5986 34.6371 15.774 34.565 15.9808C34.4977 16.1875 34.4592 16.4231 34.4496 16.6875L34.0314 16.5577C34.0314 16.0529 34.0818 15.5889 34.1828 15.1659C34.2838 14.738 34.4304 14.3654 34.6227 14.0481C34.8198 13.7308 35.0602 13.4856 35.3439 13.3125C35.6275 13.1394 35.952 13.0529 36.3174 13.0529C36.4328 13.0529 36.5506 13.0625 36.6708 13.0817C36.791 13.0962 36.8895 13.1178 36.9665 13.1466ZM42.5626 19.1322V13.1971H44.6395V21H42.6852L42.5626 19.1322ZM42.7934 17.5312L43.4064 17.5168C43.4064 18.0361 43.3463 18.5192 43.2261 18.9663C43.1059 19.4087 42.9256 19.7933 42.6852 20.1202C42.4448 20.4423 42.1419 20.6947 41.7765 20.8774C41.4112 21.0553 40.9809 21.1442 40.4857 21.1442C40.1059 21.1442 39.7549 21.0913 39.4328 20.9856C39.1155 20.875 38.8415 20.7043 38.6107 20.4736C38.3847 20.238 38.2068 19.9375 38.077 19.5721C37.952 19.2019 37.8895 18.7572 37.8895 18.238V13.1971H39.9665V18.2524C39.9665 18.4832 39.9929 18.6779 40.0458 18.8365C40.1035 18.9952 40.1828 19.125 40.2838 19.226C40.3847 19.3269 40.5025 19.399 40.6371 19.4423C40.7765 19.4856 40.9304 19.5072 41.0987 19.5072C41.5265 19.5072 41.8631 19.4207 42.1083 19.2476C42.3583 19.0745 42.5338 18.8389 42.6347 18.5409C42.7405 18.238 42.7934 17.9014 42.7934 17.5312ZM50.4448 18.8437C50.4448 18.6947 50.4015 18.5601 50.315 18.4399C50.2285 18.3197 50.0674 18.2091 49.8318 18.1082C49.6011 18.0024 49.2669 17.9062 48.8294 17.8197C48.4352 17.7332 48.0674 17.625 47.7261 17.4952C47.3895 17.3606 47.0963 17.1995 46.8463 17.012C46.6011 16.8245 46.4088 16.6034 46.2693 16.3486C46.1299 16.0889 46.0602 15.7933 46.0602 15.4615C46.0602 15.1346 46.1299 14.8269 46.2693 14.5385C46.4136 14.25 46.6179 13.9952 46.8823 13.774C47.1515 13.5481 47.4785 13.3726 47.8631 13.2476C48.2525 13.1178 48.69 13.0529 49.1756 13.0529C49.8535 13.0529 50.4352 13.1611 50.9208 13.3774C51.4112 13.5937 51.7862 13.8918 52.0458 14.2716C52.3102 14.6466 52.4424 15.0745 52.4424 15.5553H50.3655C50.3655 15.3534 50.3222 15.1731 50.2357 15.0144C50.154 14.851 50.0241 14.7236 49.8463 14.6322C49.6732 14.5361 49.4472 14.488 49.1684 14.488C48.9376 14.488 48.7381 14.5288 48.5698 14.6106C48.4015 14.6875 48.2717 14.7933 48.1804 14.9279C48.0939 15.0577 48.0506 15.2019 48.0506 15.3606C48.0506 15.4808 48.0746 15.5889 48.1227 15.6851C48.1756 15.7764 48.2597 15.8606 48.3751 15.9375C48.4905 16.0144 48.6395 16.0865 48.8222 16.1538C49.0097 16.2163 49.2405 16.274 49.5145 16.3269C50.077 16.4423 50.5794 16.5937 51.0217 16.7812C51.464 16.9639 51.815 17.2139 52.0746 17.5312C52.3342 17.8437 52.464 18.2548 52.464 18.7644C52.464 19.1106 52.3871 19.4279 52.2333 19.7163C52.0794 20.0048 51.8583 20.2572 51.5698 20.4736C51.2814 20.6851 50.9352 20.851 50.5314 20.9712C50.1323 21.0865 49.6828 21.1442 49.1828 21.1442C48.4568 21.1442 47.8415 21.0144 47.3366 20.7548C46.8366 20.4952 46.4568 20.1659 46.1972 19.7668C45.9424 19.363 45.815 18.9495 45.815 18.5264H47.7838C47.7934 18.8101 47.8655 19.0385 48.0001 19.2115C48.1395 19.3846 48.315 19.5096 48.5265 19.5865C48.7429 19.6635 48.9761 19.7019 49.2261 19.7019C49.4953 19.7019 49.7189 19.6659 49.8967 19.5937C50.0746 19.5168 50.2092 19.4159 50.3006 19.2909C50.3967 19.1611 50.4448 19.012 50.4448 18.8437ZM57.6347 13.1971V14.6683H53.0915V13.1971H57.6347ZM54.2165 11.2716H56.2934V18.649C56.2934 18.875 56.3222 19.0481 56.3799 19.1683C56.4424 19.2885 56.5338 19.3726 56.654 19.4207C56.7741 19.4639 56.9256 19.4856 57.1083 19.4856C57.2381 19.4856 57.3535 19.4808 57.4544 19.4712C57.5602 19.4567 57.6491 19.4423 57.7213 19.4279L57.7285 20.9567C57.5506 21.0144 57.3583 21.0601 57.1515 21.0938C56.9448 21.1274 56.7165 21.1442 56.4665 21.1442C56.0097 21.1442 55.6107 21.0697 55.2693 20.9207C54.9328 20.7668 54.6732 20.5216 54.4905 20.1851C54.3078 19.8486 54.2165 19.4062 54.2165 18.8582V11.2716ZM60.8943 14.6971V24H58.8174V13.1971H60.7429L60.8943 14.6971ZM65.8342 17.012V17.1635C65.8342 17.7308 65.7669 18.2572 65.6323 18.7428C65.5025 19.2284 65.3102 19.6514 65.0554 20.012C64.8006 20.3678 64.4833 20.6466 64.1035 20.8486C63.7285 21.0457 63.2958 21.1442 62.8054 21.1442C62.3294 21.1442 61.916 21.0481 61.565 20.8558C61.214 20.6635 60.9184 20.3942 60.678 20.0481C60.4424 19.6971 60.2525 19.2909 60.1083 18.8293C59.964 18.3678 59.8535 17.8726 59.7765 17.3437V16.9471C59.8535 16.3798 59.964 15.8606 60.1083 15.3894C60.2525 14.9135 60.4424 14.5024 60.678 14.1562C60.9184 13.8053 61.2116 13.5337 61.5578 13.3413C61.9088 13.149 62.3198 13.0529 62.791 13.0529C63.2862 13.0529 63.7213 13.1466 64.0963 13.3341C64.4761 13.5216 64.7934 13.7909 65.0482 14.1418C65.3078 14.4928 65.5025 14.9111 65.6323 15.3966C65.7669 15.8822 65.8342 16.4207 65.8342 17.012ZM63.7501 17.1635V17.012C63.7501 16.6803 63.7213 16.375 63.6636 16.0962C63.6107 15.8125 63.5241 15.5649 63.404 15.3534C63.2886 15.1418 63.1347 14.9784 62.9424 14.863C62.7549 14.7428 62.5265 14.6827 62.2573 14.6827C61.9737 14.6827 61.7309 14.7284 61.529 14.8197C61.3318 14.9111 61.1708 15.0433 61.0458 15.2163C60.9208 15.3894 60.827 15.5962 60.7645 15.8365C60.702 16.0769 60.6636 16.3486 60.6491 16.6514V17.6538C60.6732 18.0096 60.7405 18.3293 60.8511 18.613C60.9616 18.8918 61.1323 19.113 61.3631 19.2764C61.5939 19.4399 61.8967 19.5216 62.2717 19.5216C62.5458 19.5216 62.7765 19.4615 62.964 19.3413C63.1515 19.2163 63.303 19.0457 63.4184 18.8293C63.5386 18.613 63.6227 18.363 63.6708 18.0793C63.7237 17.7957 63.7501 17.4904 63.7501 17.1635ZM69.3174 13.1971V21H67.2333V13.1971H69.3174ZM67.1035 11.1635C67.1035 10.8606 67.2092 10.6106 67.4208 10.4135C67.6323 10.2163 67.916 10.1178 68.2717 10.1178C68.6227 10.1178 68.904 10.2163 69.1155 10.4135C69.3318 10.6106 69.44 10.8606 69.44 11.1635C69.44 11.4663 69.3318 11.7163 69.1155 11.9135C68.904 12.1106 68.6227 12.2091 68.2717 12.2091C67.916 12.2091 67.6323 12.1106 67.4208 11.9135C67.2092 11.7163 67.1035 11.4663 67.1035 11.1635ZM73.2261 9.92308V21H71.1419V9.92308H73.2261ZM74.6107 17.1779V17.0264C74.6107 16.4543 74.6924 15.9279 74.8559 15.4471C75.0193 14.9615 75.2573 14.5409 75.5698 14.1851C75.8823 13.8293 76.2669 13.5529 76.7237 13.3558C77.1804 13.1538 77.7044 13.0529 78.2958 13.0529C78.8871 13.0529 79.4136 13.1538 79.8751 13.3558C80.3366 13.5529 80.7237 13.8293 81.0362 14.1851C81.3535 14.5409 81.5939 14.9615 81.7573 15.4471C81.9208 15.9279 82.0025 16.4543 82.0025 17.0264V17.1779C82.0025 17.7452 81.9208 18.2716 81.7573 18.7572C81.5939 19.238 81.3535 19.6587 81.0362 20.0192C80.7237 20.375 80.339 20.6514 79.8823 20.8486C79.4256 21.0457 78.9015 21.1442 78.3102 21.1442C77.7189 21.1442 77.1924 21.0457 76.7309 20.8486C76.2741 20.6514 75.8871 20.375 75.5698 20.0192C75.2573 19.6587 75.0193 19.238 74.8559 18.7572C74.6924 18.2716 74.6107 17.7452 74.6107 17.1779ZM76.6876 17.0264V17.1779C76.6876 17.5048 76.7165 17.8101 76.7741 18.0937C76.8318 18.3774 76.9232 18.6274 77.0482 18.8437C77.178 19.0553 77.3463 19.2212 77.553 19.3413C77.7597 19.4615 78.0121 19.5216 78.3102 19.5216C78.5987 19.5216 78.8463 19.4615 79.053 19.3413C79.2597 19.2212 79.4256 19.0553 79.5506 18.8437C79.6756 18.6274 79.7669 18.3774 79.8246 18.0937C79.8871 17.8101 79.9184 17.5048 79.9184 17.1779V17.0264C79.9184 16.7091 79.8871 16.4111 79.8246 16.1322C79.7669 15.8486 79.6732 15.5986 79.5434 15.3822C79.4184 15.1611 79.2525 14.988 79.0458 14.863C78.839 14.738 78.589 14.6755 78.2958 14.6755C78.0025 14.6755 77.7525 14.738 77.5458 14.863C77.3439 14.988 77.178 15.1611 77.0482 15.3822C76.9232 15.5986 76.8318 15.8486 76.7741 16.1322C76.7165 16.4111 76.6876 16.7091 76.6876 17.0264ZM87.1011 13.1971V14.6683H82.5578V13.1971H87.1011ZM83.6828 11.2716H85.7597V18.649C85.7597 18.875 85.7886 19.0481 85.8463 19.1683C85.9088 19.2885 86.0001 19.3726 86.1203 19.4207C86.2405 19.4639 86.3919 19.4856 86.5746 19.4856C86.7044 19.4856 86.8198 19.4808 86.9208 19.4712C87.0265 19.4567 87.1155 19.4423 87.1876 19.4279L87.1948 20.9567C87.0169 21.0144 86.8246 21.0601 86.6179 21.0938C86.4112 21.1274 86.1828 21.1442 85.9328 21.1442C85.4761 21.1442 85.077 21.0697 84.7357 20.9207C84.3991 20.7668 84.1395 20.5216 83.9568 20.1851C83.7741 19.8486 83.6828 19.4062 83.6828 18.8582V11.2716Z" fill="black"/>
</svg>
