<svg width="124" height="15" viewBox="0 0 124 15" fill="none" xmlns="http://www.w3.org/2000/svg">
<path fill-rule="evenodd" clip-rule="evenodd" d="M45.7846 5.88128C45.0422 5.99496 44.3049 6.1164 43.5726 6.24615C43.306 6.29332 43.1574 6.50216 43.2398 6.71235L43.244 6.72064C39.2216 6.71543 35.2025 6.73999 31.1878 6.79512C25.3882 6.87493 19.5602 7.06096 13.801 7.39844C8.10954 7.73192 6.53651 7.81608 1.66681 8.44215C1.52755 8.46004 1.25573 8.4548 1.11206 8.4843C0.975441 8.51232 0.880096 8.56323 0.820271 8.61357C0.743587 8.67737 0.702462 8.75152 0.689036 8.83315C0.675038 8.92211 0.69 9.03128 0.79864 9.15457C1.10499 9.50066 1.56373 9.60119 2.10838 9.53714C2.57701 9.48199 3.13202 9.27033 3.57862 9.25178C11.0132 8.94338 18.4392 8.58939 25.8752 8.28938C37.259 7.83015 48.6345 7.70171 60.0212 7.6921C72.0135 7.94908 84.0201 8.46025 96.0248 9.2058C103.843 9.69111 111.659 10.3561 119.477 10.9523C119.473 10.9787 119.474 11.0063 119.478 11.0346C119.512 11.2498 119.765 11.4171 120.042 11.4081C120.322 11.3989 122.828 11.3803 123.284 11.2988C123.546 11.252 123.639 11.1268 123.669 11.0731C123.751 10.9257 123.743 10.7641 123.523 10.6068C123.479 10.5766 123.399 10.5266 123.255 10.4933C123.133 10.4642 122.831 10.4252 122.286 10.3854C113.533 9.74034 104.78 8.97172 96.0251 8.42759C92.1164 8.18527 88.2073 7.9671 84.2972 7.77525C89.5854 7.79941 94.8751 7.8164 100.171 7.80546C100.399 7.8055 100.508 7.77841 100.528 7.77192C100.811 7.67886 100.817 7.5011 100.803 7.40012C100.799 7.36408 100.736 7.06625 100.306 7.01827C100.054 6.99008 98.2438 6.916 97.5466 6.87734C94.1964 6.68921 94.276 6.71227 90.8504 6.54209C83.3176 6.16862 75.8026 5.88368 68.2706 5.63209C65.2675 5.53187 62.2653 5.44269 59.2635 5.36564C67.8619 4.92224 76.6861 5.07429 85.0883 5.12689C89.4228 5.15409 93.7599 5.20221 98.1006 5.30884C100.045 5.35664 101.99 5.42965 103.935 5.48496C104.539 5.50209 105.142 5.53013 105.746 5.55005C105.817 5.55235 106.753 5.57196 106.906 5.57161C107.308 5.57071 107.378 5.29514 107.381 5.2841C107.394 5.23224 107.431 4.86061 106.927 4.79583C99.6494 3.85981 92.1045 3.94409 84.8095 3.70248C72.0416 3.27956 59.2626 3.14395 46.5382 3.26438C40.9102 3.31761 35.3119 3.51832 29.7033 3.71745C26.9022 3.81693 24.0942 3.9247 21.336 4.22708C21.0593 4.25747 20.4288 4.28365 20.1248 4.32003C19.9701 4.33861 19.8614 4.3699 19.8122 4.39162C19.5966 4.48587 19.5635 4.62864 19.5679 4.72915C19.5717 4.80448 19.6134 5.07013 20.08 5.15791C26.7472 6.41376 33.9847 5.7734 40.6582 5.82696C42.3666 5.84066 44.0747 5.85884 45.7846 5.88128ZM51.3529 5.96942C49.3909 6.17476 47.452 6.42426 45.545 6.72701C50.348 6.74678 55.1546 6.80886 59.9664 6.91206C67.8904 6.90538 75.8189 6.95604 83.7558 6.99273C78.6082 6.77162 73.4617 6.58384 68.3079 6.41177C62.6549 6.22295 57.0023 6.0736 51.3529 5.96942ZM78.6787 4.30011C67.9829 4.02272 57.2881 3.94375 46.6322 4.04462C41.0142 4.0978 35.4278 4.29824 29.8301 4.49701C27.6274 4.57522 25.4192 4.65799 23.2359 4.83915C28.9634 5.46385 34.9768 5.0016 40.5879 5.04669C44.1316 5.07514 47.6785 5.12264 51.2258 5.18795C60.1586 4.2609 69.5651 4.23846 78.6787 4.30011Z" fill="#5E9942"/>
</svg>
