<svg width="54" height="8" viewBox="0 0 54 8" fill="none" xmlns="http://www.w3.org/2000/svg">
<path fill-rule="evenodd" clip-rule="evenodd" d="M19.7256 2.51221C19.4097 2.57584 19.0961 2.64421 18.785 2.71765C18.6718 2.74434 18.6142 2.86991 18.656 2.99795L18.6581 3.003C16.9275 2.97111 15.1993 2.95729 13.4739 2.96203C10.9813 2.96899 8.47985 3.04015 6.01251 3.20363C3.5742 3.36517 2.90004 3.40497 0.824114 3.74979C0.764747 3.75965 0.647654 3.75453 0.586743 3.77139C0.528818 3.7874 0.489344 3.81759 0.465133 3.84768C0.434077 3.88582 0.418632 3.93049 0.415329 3.97989C0.412003 4.03373 0.421747 4.10003 0.472218 4.17556C0.614492 4.3876 0.814883 4.45183 1.04725 4.41689C1.24718 4.38679 1.47953 4.26242 1.67109 4.25436C4.86004 4.12048 8.04389 3.95889 11.2337 3.83011C16.117 3.63299 21.0067 3.63638 25.9049 3.71191C31.0717 3.9534 36.2523 4.34912 41.4392 4.88694C44.8172 5.23706 48.1998 5.69615 51.5808 6.11345C51.58 6.12944 51.5813 6.14621 51.5838 6.16337C51.605 6.29409 51.7189 6.39735 51.8377 6.39386C51.958 6.39031 53.0357 6.39694 53.2294 6.35075C53.3403 6.32428 53.3767 6.24904 53.388 6.21666C53.4187 6.12786 53.4105 6.02982 53.311 5.93288C53.2914 5.91426 53.2552 5.88336 53.1925 5.86216C53.1389 5.84362 53.008 5.81783 52.7724 5.78979C48.9872 5.33614 45.1986 4.80756 41.4157 4.41508C39.7269 4.24023 38.0386 4.08002 36.3507 3.93576C38.6264 3.98818 40.9025 4.03628 43.1804 4.06748C43.2785 4.06913 43.3244 4.05348 43.3327 4.04969C43.4518 3.99528 43.4491 3.88755 43.4401 3.82622C43.4372 3.80434 43.4012 3.6233 43.2145 3.59114C43.1052 3.57224 42.3244 3.51439 42.0233 3.48597C40.5763 3.34797 40.6113 3.36252 39.1325 3.23486C35.8806 2.95459 32.6391 2.72813 29.3913 2.52176C28.0963 2.43954 26.8021 2.36402 25.5084 2.29586C29.194 2.08844 32.9947 2.24367 36.6108 2.33559C38.4763 2.38305 40.3435 2.44322 42.2141 2.53888C43.0519 2.58175 43.8911 2.63992 44.7292 2.68735C44.9897 2.70205 45.25 2.72336 45.5103 2.73975C45.5412 2.74166 45.9443 2.76023 46.0102 2.76112C46.1828 2.76344 46.2048 2.59686 46.2056 2.59018C46.2097 2.55883 46.2143 2.33375 45.9956 2.29088C42.8365 1.67134 39.5933 1.66854 36.4477 1.46992C30.9423 1.12227 25.4407 0.948748 19.9705 0.930863C17.551 0.922927 15.1487 1.00463 12.742 1.0853C11.54 1.12561 10.3353 1.17089 9.15791 1.33454C9.03979 1.35098 8.76934 1.36235 8.63968 1.38224C8.57371 1.39241 8.5279 1.4106 8.50739 1.42342C8.41748 1.47902 8.40757 1.56536 8.41251 1.62633C8.4164 1.67203 8.4424 1.83341 8.64578 1.88997C11.552 2.69907 14.6461 2.3625 17.5186 2.44266C18.2539 2.46317 18.9893 2.48639 19.7256 2.51221ZM22.1237 2.60544C21.2859 2.71593 20.4593 2.85336 19.6481 3.0233C21.7149 3.0696 23.7846 3.14159 25.8577 3.23854C29.2663 3.2911 32.6786 3.37846 36.0941 3.45741C33.873 3.28657 31.6533 3.13594 29.431 2.99479C26.9934 2.83991 24.5572 2.70897 22.1237 2.60544ZM33.8284 1.78849C29.2188 1.54388 24.6156 1.41959 20.0346 1.40463C17.6194 1.39673 15.2222 1.47836 12.8202 1.55889C11.875 1.59058 10.9275 1.62499 9.99379 1.71924C12.4766 2.13894 15.0495 1.90161 17.4647 1.96904C18.99 2.01161 20.5174 2.06575 22.0453 2.13069C25.86 1.6324 29.906 1.686 33.8284 1.78849Z" fill="#5E9942"/>
</svg>

