<svg width="84" height="84" viewBox="0 0 84 84" fill="none" xmlns="http://www.w3.org/2000/svg">
<path d="M77 21V29.47C77 35 73.5 38.5 67.97 38.5H56V14.035C56 10.15 59.185 7 63.07 7C66.885 7.035 70.385 8.575 72.905 11.095C75.425 13.65 77 17.15 77 21Z" fill="#191A1F" fill-opacity="0.5"/>
<path opacity="0.4" d="M7 24.5V73.5C7 76.405 10.29 78.05 12.6 76.3L18.585 71.82C19.985 70.77 21.945 70.91 23.205 72.17L29.015 78.015C30.38 79.38 32.62 79.38 33.985 78.015L39.865 72.135C41.09 70.91 43.05 70.77 44.415 71.82L50.4 76.3C52.71 78.015 56 76.37 56 73.5V14C56 10.15 59.15 7 63 7H24.5H21C10.5 7 7 13.265 7 21V24.5Z" fill="#191A1F" fill-opacity="0.5"/>
<path d="M42 34.125H21C19.565 34.125 18.375 32.935 18.375 31.5C18.375 30.065 19.565 28.875 21 28.875H42C43.435 28.875 44.625 30.065 44.625 31.5C44.625 32.935 43.435 34.125 42 34.125Z" fill="#191A1F" fill-opacity="0.5"/>
<path d="M39.375 48.125H23.625C22.19 48.125 21 46.935 21 45.5C21 44.065 22.19 42.875 23.625 42.875H39.375C40.81 42.875 42 44.065 42 45.5C42 46.935 40.81 48.125 39.375 48.125Z" fill="#191A1F" fill-opacity="0.5"/>
</svg>
