<svg width="186" height="33" viewBox="0 0 186 33" fill="none" xmlns="http://www.w3.org/2000/svg">
<path d="M37.5789 18.4728C36.0367 17.3436 34.184 16.6536 32.2394 16.4843L32.4034 17.6625L32.6976 17.6998L33.02 17.7531L33.3254 17.8118L33.546 17.8598C33.6308 17.8598 33.7213 17.8971 33.8062 17.9237L34.0211 17.9824L34.27 18.0517L34.4849 18.121L34.7282 18.2063L34.9318 18.2863L35.175 18.3875L35.3617 18.4675C35.4522 18.5048 35.5427 18.5528 35.6275 18.5955L35.7746 18.6701C35.9103 18.7341 36.0404 18.8087 36.1705 18.8833L36.2893 18.958L36.5551 19.1233C37.5687 19.7883 38.3927 20.6787 38.954 21.7156C39.5154 22.7524 39.7969 23.9037 39.7736 25.0675C39.7736 27.2 37.9862 30.1002 35.6219 30.1002C35.4919 30.1084 35.3615 30.1084 35.2316 30.1002H35.1128C35.0269 30.0898 34.9418 30.0738 34.8583 30.0522L34.7338 30.0149C34.6488 29.9921 34.5656 29.9635 34.4849 29.9296L34.3831 29.8923C34.2716 29.8445 34.1638 29.7893 34.0607 29.727C33.9635 29.6715 33.8708 29.6091 33.7836 29.5404L33.6874 29.4658L33.4894 29.2898L33.3933 29.1992C33.3254 29.1299 33.2575 29.0606 33.1953 28.986L33.1218 28.906C33.0369 28.7994 32.9521 28.6927 32.8673 28.5755L32.8333 28.5275L32.6297 28.2129L32.5618 28.0903C32.5052 27.9997 32.4543 27.9037 32.4034 27.8078L32.3356 27.6745C32.279 27.5679 32.2224 27.4559 32.1715 27.3386C32.1588 27.3057 32.1437 27.2736 32.1263 27.2427C32.0584 27.0881 31.9962 26.9334 31.9283 26.7735C31.9307 26.7469 31.9307 26.7202 31.9283 26.6935L31.7756 26.283L31.7247 26.1284C31.6794 26.0005 31.6398 25.8779 31.6002 25.7499L31.5493 25.59C31.5041 25.4407 31.4588 25.2914 31.4192 25.1368L31.391 25.0462L31.2382 24.4651C31.2382 24.4331 31.2382 24.3958 31.2382 24.3585L31.1195 23.8733C31.1195 23.8147 31.0912 23.7507 31.0799 23.6921C31.0459 23.5428 31.012 23.3935 30.9837 23.2389C30.9672 23.1828 30.954 23.1258 30.9441 23.0683C30.9045 22.8817 30.8706 22.6952 30.831 22.5032C30.831 22.5032 30.831 22.4606 30.831 22.4393C30.7914 22.2207 30.7461 22.0021 30.7066 21.7782C30.7093 21.7338 30.7093 21.6893 30.7066 21.6449C30.7066 21.469 30.6443 21.2877 30.6161 21.1118L30.5821 20.9145C30.5538 20.7439 30.5255 20.5787 30.5029 20.4081C30.5029 20.3494 30.5029 20.2854 30.4746 20.2268C30.4407 20.0082 29.6658 14.661 29.6432 14.5118C29.6432 14.4531 29.6432 14.3892 29.6432 14.3252C29.6432 14.2612 29.6036 14.0799 29.5866 13.9573L29.5527 13.7334L29.5244 13.5681L29.4565 13.147L29.4056 12.8218L29.3717 12.6245C28.3366 6.44034 26.7245 0.997192 22.1769 0.997192C8.94121 0.997192 -6.06486 31.2517 3.1888 31.2517C7.94007 31.2517 13.8509 25.7233 20.2481 21.7089L20.3725 21.6342L21.0513 21.2131L21.1248 21.1704L21.8715 20.7333L21.9846 20.6693L22.6633 20.2961L22.7595 20.2428L23.5174 19.8483L23.6136 19.8003L24.2923 19.4698L24.4111 19.4165L24.5865 19.3365L24.1736 17.8438L24.0548 17.8917L23.8568 17.9664C23.4439 18.1263 23.0253 18.2969 22.6068 18.4995L22.4371 18.5741L21.8884 18.814C21.4472 19.0166 21.0004 19.2245 20.5592 19.4431L20.463 19.4911L20.0332 19.7043L19.9313 19.7577C19.3657 20.0295 18.851 20.2908 18.3193 20.6C10.525 24.817 3.72049 30.1588 3.72049 25.2328C3.72049 20.2108 14.0149 9.35117 20.0388 9.35117C20.1689 9.35117 20.2934 9.35117 20.4178 9.35117H20.5309C20.6165 9.35588 20.7016 9.36657 20.7854 9.38316H20.8929L21.1475 9.43647H21.2436L21.5604 9.53776L21.6509 9.56975L21.8828 9.66571L21.9506 9.6977H22.0015L22.2052 9.80432L22.307 9.86296L22.5219 9.99624L22.5955 10.0442L22.6294 10.0709C22.7064 10.1217 22.7801 10.1769 22.85 10.2361L22.9405 10.3055L23.1158 10.4547C23.1295 10.4703 23.1446 10.4845 23.1611 10.4974L23.229 10.5613C23.2855 10.6147 23.3421 10.668 23.393 10.7266L23.4891 10.8279C23.5457 10.8848 23.6023 10.9487 23.6588 11.0198L23.7041 11.0678L23.7776 11.1584C23.8285 11.2224 23.8794 11.2811 23.9247 11.345L23.9982 11.441C24.0113 11.4635 24.0264 11.4849 24.0435 11.505L24.1622 11.6702L24.1905 11.7076L24.2754 11.8355L24.3942 12.0274C24.422 12.0664 24.4466 12.1075 24.4677 12.1501L24.5186 12.23L24.6147 12.3953L24.6487 12.4486C24.6487 12.4966 24.6996 12.5446 24.7279 12.5925C24.7562 12.6405 24.7279 12.5925 24.7279 12.6245C24.7279 12.6565 24.7901 12.7365 24.824 12.7951L24.8806 12.9071C24.8806 12.9551 24.9258 13.003 24.9541 13.051L25.039 13.2269L25.1238 13.4082L25.1578 13.4775C25.1578 13.5255 25.1974 13.5681 25.2143 13.6108L25.2765 13.7494L25.3387 13.8933L25.3783 13.9893L25.4236 14.1013L25.4915 14.2665L25.5707 14.4585L25.6385 14.6291C25.6385 14.693 25.6838 14.757 25.7121 14.8263C25.7403 14.8956 25.7517 14.9329 25.7686 14.9916C25.7686 15.0556 25.8195 15.1195 25.8422 15.1888C25.8648 15.2581 25.8818 15.2955 25.8987 15.3541C25.9019 15.3681 25.9019 15.3827 25.8987 15.3967C25.8987 15.4287 27.72 21.9594 28.0255 23.111C28.0281 23.1269 28.0281 23.1431 28.0255 23.159C28.0651 23.3082 28.1103 23.4575 28.1499 23.6068C28.1604 23.6554 28.1737 23.7034 28.1895 23.7507C28.2234 23.8787 28.263 24.012 28.297 24.1452L28.3479 24.3265C28.3875 24.4491 28.4214 24.5771 28.4554 24.6997C28.4893 24.8223 28.495 24.8276 28.5119 24.8916C28.5289 24.9556 28.5855 25.1315 28.6194 25.2488C28.6416 25.3082 28.6605 25.3687 28.676 25.43L28.8796 26.0645C28.9079 26.1391 28.9305 26.2191 28.9588 26.2937C28.9871 26.3683 29.021 26.475 29.0549 26.5656C29.0889 26.6562 29.1115 26.7415 29.1454 26.8215C29.1794 26.9015 29.2076 26.9974 29.2416 27.0827C29.2755 27.168 29.3038 27.2533 29.3377 27.3386L29.4339 27.5892L29.5414 27.8451L29.6375 28.0796L29.7563 28.3356C29.7846 28.4102 29.8185 28.4795 29.8525 28.5541L29.9882 28.826C29.9882 28.8847 30.0448 28.9486 30.0787 29.0073C30.1522 29.1512 30.2258 29.2952 30.305 29.4338L30.3785 29.5617L30.5482 29.8496L30.6556 30.0096L30.8084 30.2388L30.9215 30.3987L31.0799 30.612C31.1182 30.664 31.1597 30.7139 31.2043 30.7612C31.2552 30.8305 31.3118 30.8945 31.3683 30.9585L31.4928 31.0971L31.6794 31.289L31.7982 31.401L32.0414 31.6142L32.115 31.6782C32.2224 31.7635 32.3356 31.8435 32.4487 31.9234L32.5505 31.9874L32.7994 32.1367L32.9408 32.206L33.1727 32.318L33.3254 32.3819L33.563 32.4672L33.727 32.5152L33.9815 32.5792L34.1399 32.6112C34.237 32.631 34.3352 32.6452 34.434 32.6538H34.5754C34.7262 32.6619 34.8772 32.6619 35.0279 32.6538C35.1693 32.6538 35.3051 32.6538 35.4409 32.6538H35.8085C35.967 32.6288 36.1238 32.595 36.278 32.5525H36.3515L36.4646 32.5152C39.2928 31.6462 41.0349 28.2183 41.0349 24.689C40.9816 23.4859 40.6503 22.3082 40.0641 21.2382C39.4779 20.1683 38.651 19.2318 37.6411 18.4942" fill="url(#paint0_linear_524_89)"/>
<path d="M103.868 5.52051H103.912C104.535 5.55479 105.121 5.82792 105.55 6.28372C105.978 6.73952 106.217 7.34336 106.217 7.97105C106.217 8.59874 105.978 9.20258 105.55 9.65838C105.121 10.1142 104.535 10.3873 103.912 10.4216H103.868C103.246 10.3873 102.66 10.1142 102.231 9.65838C101.802 9.20258 101.563 8.59874 101.563 7.97105C101.563 7.34336 101.802 6.73952 102.231 6.28372C102.66 5.82792 103.246 5.55479 103.868 5.52051Z" fill="#5E9942"/>
<path d="M106.904 22.8611C106.923 22.897 106.934 22.9373 106.934 22.9783C106.934 23.0193 106.923 23.0597 106.904 23.0955C106.882 23.1277 106.853 23.1539 106.818 23.1718C106.784 23.1897 106.746 23.1988 106.707 23.1981H101.284C101.246 23.1988 101.207 23.1897 101.173 23.1718C101.139 23.1539 101.11 23.1277 101.088 23.0955C101.068 23.0597 101.058 23.0193 101.058 22.9783C101.058 22.9373 101.068 22.897 101.088 22.8611L101.757 21.1761V14.2897L100.957 12.9344C100.939 12.9019 100.93 12.8653 100.93 12.8282C100.93 12.791 100.939 12.7545 100.957 12.722C100.97 12.688 100.991 12.6573 101.017 12.632C101.044 12.6067 101.075 12.5874 101.11 12.5754L101.947 12.3117L105.994 11.1908C106.03 11.1836 106.067 11.1837 106.104 11.1913C106.14 11.1988 106.174 11.2136 106.205 11.2348C106.234 11.2586 106.258 11.2888 106.274 11.323C106.291 11.3572 106.299 11.3946 106.3 11.4326V21.2054L106.904 22.8611Z" fill="#5E9942"/>
<path d="M94.4275 14.8758V21.2055L93.7797 22.8978C93.7618 22.9329 93.7525 22.9718 93.7525 23.0113C93.7525 23.0508 93.7618 23.0897 93.7797 23.1249C93.8021 23.1581 93.8326 23.185 93.8683 23.203C93.904 23.2209 93.9437 23.2293 93.9835 23.2274H99.45C99.4898 23.2293 99.5295 23.2209 99.5652 23.203C99.6009 23.185 99.6314 23.1581 99.6538 23.1249C99.6717 23.0897 99.681 23.0508 99.681 23.0113C99.681 22.9718 99.6717 22.9329 99.6538 22.8978L98.9841 21.2055V14.341C98.9841 12.2311 97.7249 10.8905 95.6577 10.8905C94.8027 10.8587 93.9543 11.0532 93.1974 11.4546C92.5813 11.8167 91.9969 12.2309 91.4504 12.6927V11.4253C91.4524 11.3872 91.445 11.3493 91.4291 11.3147C91.4132 11.2802 91.3891 11.2501 91.359 11.227C91.3289 11.2039 91.2936 11.1885 91.2563 11.1822C91.219 11.1759 91.1807 11.1789 91.1447 11.1908L86.297 12.5755C86.2622 12.587 86.2304 12.6061 86.2039 12.6314C86.1773 12.6568 86.1567 12.6877 86.1435 12.722C86.1303 12.7564 86.1248 12.7932 86.1274 12.8299C86.13 12.8667 86.1407 12.9024 86.1587 12.9344L86.8866 14.2092V21.2861L86.2643 22.8978C86.2464 22.9329 86.2371 22.9718 86.2371 23.0113C86.2371 23.0508 86.2464 23.0897 86.2643 23.1249C86.2861 23.157 86.3154 23.1833 86.3497 23.2012C86.384 23.2191 86.4222 23.2281 86.4609 23.2274H91.8837C91.9233 23.228 91.9625 23.219 91.998 23.2012C92.0335 23.1833 92.0641 23.1572 92.0875 23.1249C92.1054 23.0897 92.1147 23.0508 92.1147 23.0113C92.1147 22.9718 92.1054 22.9329 92.0875 22.8978L91.4213 21.1688V15.059C91.7727 14.7854 92.1451 14.5405 92.535 14.3264C92.8917 14.1212 93.6778 13.733 94.0927 13.9527C94.3839 14.1432 94.4275 14.5828 94.4275 14.8758Z" fill="#5E9942"/>
<path d="M58.1202 21.2055V14.8758C58.1202 14.5901 58.1202 14.0407 57.7854 13.9015C57.4506 13.7623 56.73 14.1286 56.4242 14.3264C56.0698 14.5456 55.7316 14.7904 55.4125 15.059V21.1689L56.077 22.8862C56.0949 22.9213 56.1042 22.9603 56.1042 22.9997C56.1042 23.0392 56.0949 23.0781 56.077 23.1133C56.0537 23.1456 56.023 23.1717 55.9875 23.1896C55.9521 23.2074 55.9129 23.2164 55.8732 23.2159H50.4795C50.4397 23.2178 50.4 23.2093 50.3643 23.1914C50.3286 23.1734 50.2981 23.1465 50.2757 23.1133C50.2578 23.0781 50.2485 23.0392 50.2485 22.9997C50.2485 22.9603 50.2578 22.9213 50.2757 22.8862L50.9505 21.1689V14.07L50.1061 12.9711C50.0898 12.9355 50.0814 12.8967 50.0814 12.8575C50.0814 12.8183 50.0898 12.7796 50.1061 12.744C50.117 12.7056 50.1374 12.6707 50.1654 12.6425C50.1934 12.6143 50.2282 12.5938 50.2663 12.5828L51.1033 12.3191L55.1577 11.1982C55.194 11.1909 55.2314 11.1911 55.2677 11.1986C55.3039 11.2062 55.3383 11.221 55.3688 11.2422C55.3981 11.266 55.4218 11.2961 55.4382 11.3304C55.4546 11.3646 55.4632 11.402 55.4634 11.44V12.7C55.5489 12.6276 55.6343 12.554 55.72 12.4801C56.0504 12.1952 56.3846 11.9071 56.7372 11.6744C57.5329 11.1347 58.4791 10.8652 59.4377 10.9052C60.0908 10.872 60.7374 11.0496 61.2834 11.4119C61.8293 11.7743 62.2461 12.3025 62.473 12.9198C62.6107 12.807 62.7484 12.6914 62.8865 12.5756C63.2595 12.2626 63.6357 11.947 64.0234 11.6744C64.8195 11.1356 65.7654 10.8662 66.7239 10.9052C67.4088 10.9004 68.0798 11.0992 68.6528 11.4766C69.0976 11.8054 69.4533 12.2412 69.6873 12.7442C69.9213 13.2473 70.0261 13.8013 69.9922 14.3557V21.4619L70.5597 22.9125C70.581 22.9464 70.5923 22.9858 70.5923 23.026C70.5923 23.0662 70.581 23.1056 70.5597 23.1396C70.5379 23.1717 70.5086 23.1979 70.4743 23.2158C70.44 23.2337 70.4018 23.2428 70.3631 23.2421H64.9403C64.9011 23.2424 64.8624 23.2331 64.8275 23.2148C64.7927 23.1966 64.7629 23.17 64.7406 23.1375C64.7184 23.105 64.7043 23.0675 64.6998 23.0282C64.6953 22.989 64.7004 22.9492 64.7147 22.9125L65.3846 21.2348V14.8758C65.3846 14.5901 65.3846 14.0407 65.0498 13.9015C64.7149 13.7623 63.9943 14.1286 63.6959 14.3264C63.3191 14.5696 62.9614 14.8414 62.6259 15.1396V21.4473L63.2009 22.9125C63.2188 22.9476 63.2281 22.9865 63.2281 23.026C63.2281 23.0655 63.2188 23.1044 63.2009 23.1396C63.1776 23.1718 63.1469 23.198 63.1114 23.2159C63.076 23.2337 63.0368 23.2427 62.9971 23.2421H57.6617C57.622 23.2427 57.5828 23.2337 57.5473 23.2159C57.5119 23.198 57.4812 23.1718 57.4578 23.1396C57.44 23.1044 57.4306 23.0655 57.4306 23.026C57.4306 22.9865 57.44 22.9476 57.4578 22.9125L58.1202 21.2055Z" fill="#5E9942"/>
<path fill-rule="evenodd" clip-rule="evenodd" d="M71.3752 17.2838C71.3752 13.2326 74.4614 10.9835 78.2465 10.9835C82.0315 10.9835 85.1396 13.1813 85.1396 17.2838C85.1396 21.3864 82.0607 23.6135 78.2465 23.6135C74.4323 23.6135 71.3752 21.3498 71.3752 17.2838ZM77.1983 12.6758C76.4704 12.8516 76.0847 13.6868 75.91 14.3534C75.6598 15.5071 75.6797 16.7034 75.9682 17.8479C76.2037 18.9976 76.7021 20.0762 77.424 20.9981C77.6309 21.3036 77.914 21.5491 78.2449 21.7098C78.5758 21.8705 78.9428 21.9409 79.3092 21.9139C80.0371 21.738 80.4229 20.9102 80.5903 20.2362C80.8218 19.0837 80.8044 17.8946 80.5394 16.7495C80.2745 15.6043 79.768 14.5298 79.0545 13.5989C78.8489 13.2985 78.5705 13.0561 78.2456 12.8945C77.9207 12.7329 77.5602 12.6577 77.1983 12.6758Z" fill="#5E9942"/>
<path fill-rule="evenodd" clip-rule="evenodd" d="M114.818 20.7057C114.177 20.2244 113.678 19.5767 113.375 18.8319H113.338C113.335 18.815 113.335 18.7976 113.338 18.7806L117.349 17.4986L119.998 16.6341L120.828 16.3704C120.881 16.3542 120.926 16.321 120.958 16.2759C120.989 16.2308 121.005 16.1764 121.003 16.1213C120.777 12.5389 118.797 10.8686 115.282 10.8686C111.489 10.8686 108.439 13.1103 108.439 17.1762C108.439 21.2422 111.511 23.5059 115.311 23.5059C116.331 23.5662 117.351 23.4007 118.301 23.0209C119.25 22.6412 120.106 22.0565 120.806 21.3081C120.844 21.2643 120.864 21.2084 120.864 21.1506C120.864 21.0928 120.844 21.0369 120.806 20.9931C120.77 20.9496 120.719 20.92 120.664 20.9094C120.608 20.8987 120.551 20.9076 120.501 20.9345C119.686 21.391 118.769 21.6282 117.837 21.6231C117.561 21.6218 117.287 21.6022 117.014 21.5645C116.218 21.4839 115.459 21.1871 114.818 20.7057ZM116.628 14.6195C116.725 15.0046 116.765 15.4022 116.745 15.799L112.894 17.037C112.737 16.1077 112.767 15.1561 112.982 14.2385C113.038 13.9068 113.166 13.5916 113.357 13.3155C113.549 13.0394 113.798 12.8093 114.088 12.6415L114.255 12.5829C115.536 12.2825 116.352 13.5279 116.628 14.6195Z" fill="#5E9942"/>
<path d="M129.548 18.9564L131.266 14.5608L129.883 11.5352C129.862 11.4998 129.851 11.4592 129.851 11.4179C129.851 11.3766 129.862 11.3361 129.883 11.3007C129.903 11.2658 129.932 11.2367 129.966 11.2162C130.001 11.1957 130.04 11.1844 130.08 11.1835H134.665C134.712 11.184 134.757 11.1981 134.796 11.2241C134.835 11.2501 134.865 11.2869 134.884 11.33C135.307 12.3056 135.724 13.2823 136.141 14.2583L136.143 14.2631L136.143 14.2651C136.781 15.7569 137.417 17.2471 138.072 18.7293L139.135 11.4033C139.142 11.3444 139.17 11.2902 139.215 11.251C139.259 11.2118 139.316 11.1904 139.375 11.1908H143.32C143.36 11.1917 143.4 11.2021 143.435 11.2212C143.471 11.2403 143.501 11.2675 143.524 11.3007C143.544 11.3366 143.554 11.3769 143.554 11.4179C143.554 11.459 143.544 11.4993 143.524 11.5352L138.574 23.0809C138.558 23.1252 138.528 23.1631 138.488 23.1894C138.449 23.2157 138.403 23.229 138.356 23.2274H135.379C135.333 23.2276 135.288 23.2146 135.249 23.1899C135.211 23.1653 135.18 23.13 135.16 23.0882L132.467 17.1835L129.92 23.0443C129.903 23.0886 129.873 23.1265 129.834 23.1528C129.795 23.1791 129.748 23.1923 129.701 23.1908H126.724C126.678 23.191 126.633 23.1779 126.595 23.1533C126.556 23.1286 126.525 23.0933 126.506 23.0516L121.229 11.4912C121.209 11.4553 121.198 11.415 121.198 11.374C121.198 11.333 121.209 11.2926 121.229 11.2568C121.25 11.2218 121.28 11.1928 121.316 11.1723C121.351 11.1518 121.391 11.1406 121.432 11.1396H126.411C126.458 11.1391 126.504 11.1528 126.543 11.1789C126.582 11.205 126.612 11.2424 126.63 11.2861C126.688 11.4153 126.671 11.6005 126.654 11.7889C126.636 11.9742 126.619 12.1627 126.673 12.3044C126.963 12.9766 127.242 13.6274 127.516 14.2684C128.177 15.8138 128.814 17.3031 129.534 18.8978L129.548 18.9564Z" fill="#5E9942"/>
<path fill-rule="evenodd" clip-rule="evenodd" d="M150.701 10.9125C146.916 10.9125 143.83 13.1615 143.83 17.2128C143.83 21.2787 146.887 23.5425 150.701 23.5425C154.515 23.5425 157.594 21.3154 157.594 17.2128C157.594 13.1103 154.486 10.9125 150.701 10.9125ZM148.364 14.2824C148.539 13.6158 148.925 12.7806 149.653 12.6048C150.021 12.5752 150.391 12.6428 150.725 12.8008C151.06 12.9588 151.347 13.2018 151.56 13.5059C152.268 14.4436 152.767 15.5237 153.023 16.6728C153.279 17.8218 153.287 19.013 153.045 20.1652C152.877 20.8392 152.492 21.667 151.764 21.8428C151.397 21.8699 151.03 21.7995 150.699 21.6388C150.369 21.478 150.085 21.2326 149.878 20.9271C149.157 20.0052 148.658 18.9266 148.423 17.7769C148.134 16.6324 148.114 15.436 148.364 14.2824Z" fill="#5E9942"/>
<path d="M159.654 21.2055V14.2897L158.839 12.9344C158.823 12.9014 158.814 12.865 158.814 12.8282C158.814 12.7914 158.823 12.755 158.839 12.722C158.868 12.6547 158.923 12.602 158.992 12.5755L159.829 12.3117L163.876 11.1908C163.912 11.1836 163.95 11.1837 163.986 11.1913C164.022 11.1988 164.056 11.2136 164.087 11.2348C164.116 11.2587 164.14 11.2888 164.156 11.323C164.173 11.3572 164.181 11.3946 164.182 11.4326V12.2971C164.745 11.7866 165.403 11.3932 166.118 11.1396C166.828 10.8598 167.609 10.8187 168.345 11.0223C168.394 11.0367 168.436 11.0666 168.467 11.1076C168.497 11.1486 168.513 11.1984 168.512 11.2495V14.9124C168.512 14.9612 168.497 15.0087 168.47 15.0491C168.443 15.0895 168.404 15.1209 168.36 15.1396C168.315 15.1571 168.266 15.161 168.22 15.1505C168.173 15.1401 168.131 15.1159 168.098 15.0809C167.802 14.7707 167.434 14.5408 167.027 14.4127C166.619 14.2846 166.186 14.2625 165.768 14.3483C165.186 14.4509 164.4 14.8172 164.247 15.4546C164.24 15.5203 164.24 15.5866 164.247 15.6524V21.2201L164.917 22.9124C164.931 22.9492 164.936 22.989 164.932 23.0282C164.927 23.0674 164.913 23.105 164.891 23.1375C164.868 23.17 164.839 23.1966 164.804 23.2148C164.769 23.233 164.73 23.2424 164.691 23.2421H159.268C159.229 23.2424 159.19 23.233 159.155 23.2148C159.121 23.1966 159.091 23.17 159.069 23.1375C159.046 23.105 159.032 23.0674 159.028 23.0282C159.023 22.989 159.028 22.9492 159.043 22.9124L159.654 21.2055Z" fill="#5E9942"/>
<path d="M170.048 11.5865L174.969 17.2055L170.048 22.8612C170.017 22.8964 169.996 22.9399 169.988 22.9866C169.981 23.0333 169.986 23.0813 170.005 23.1249C170.025 23.1678 170.057 23.2038 170.097 23.2286C170.137 23.2533 170.183 23.2657 170.23 23.2641H174.787C174.836 23.2645 174.883 23.25 174.924 23.2225C174.964 23.195 174.995 23.1559 175.013 23.1102L176.519 19.0223L179.839 22.9344L180.042 23.1835C180.065 23.2089 180.094 23.2291 180.125 23.243C180.156 23.2569 180.19 23.264 180.224 23.2641H185.523C185.57 23.2647 185.616 23.2516 185.655 23.2264C185.694 23.2012 185.726 23.1651 185.745 23.1224C185.764 23.0797 185.771 23.0322 185.764 22.9858C185.757 22.9394 185.736 22.8961 185.705 22.8612L180.858 17.2055L185.72 11.5865C185.75 11.5507 185.77 11.507 185.776 11.4605C185.783 11.414 185.776 11.3666 185.757 11.3237C185.738 11.2808 185.708 11.2442 185.669 11.2181C185.63 11.192 185.585 11.1775 185.538 11.1762H180.981C180.932 11.1764 180.883 11.192 180.843 11.2208C180.803 11.2497 180.772 11.2904 180.756 11.3374L179.3 15.4106L176.643 12.341L176.199 11.2641C176.177 11.2367 176.149 11.2145 176.118 11.1993C176.086 11.1841 176.052 11.1762 176.017 11.1762H170.23C170.182 11.1742 170.135 11.1868 170.094 11.2123C170.053 11.2378 170.021 11.275 170.001 11.3192C169.981 11.3634 169.975 11.4125 169.984 11.4601C169.992 11.5078 170.015 11.5518 170.048 11.5865Z" fill="#5E9942"/>
<defs>
<linearGradient id="paint0_linear_524_89" x1="6.54833" y1="10.5825" x2="35.2161" y2="32.8797" gradientUnits="userSpaceOnUse">
<stop stop-color="#5E9942"/>
<stop offset="0.473958" stop-color="#EA862B"/>
<stop offset="1" stop-color="#EA2229"/>
</linearGradient>
</defs>
</svg>
