<svg width="25" height="24" viewBox="0 0 25 24" fill="none" xmlns="http://www.w3.org/2000/svg">
<path d="M3.63145 21.4015L3.63374 21.3997L5.34337 20.12C5.34342 20.12 5.34347 20.1199 5.34351 20.1199L5.34375 20.1197L5.64337 20.52C6.04337 20.22 6.60337 20.26 6.96337 20.62L3.63145 21.4015ZM3.63145 21.4015C3.30363 21.6498 2.83337 21.4205 2.83337 21V7V6C2.83337 4.96024 3.06982 4.09671 3.5868 3.49804C4.09194 2.91309 4.93573 2.5 6.33337 2.5H7.33337H16.336M3.63145 21.4015L16.336 2.5M16.336 2.5C16.0207 2.91841 15.8334 3.43818 15.8334 4V21C15.8334 21.4052 15.365 21.6455 15.032 21.399C15.0318 21.3988 15.0316 21.3987 15.0314 21.3985L13.3254 20.1215C12.733 19.6681 11.8935 19.7328 11.3698 20.2564L9.68982 21.9364C9.49518 22.1311 9.172 22.1312 8.97723 21.9368C8.97713 21.9366 8.97703 21.9365 8.97693 21.9364L16.336 2.5ZM7.08337 14.25H11.5834C12.2695 14.25 12.8334 13.6861 12.8334 13C12.8334 12.3139 12.2695 11.75 11.5834 11.75H7.08337C6.39723 11.75 5.83337 12.3139 5.83337 13C5.83337 13.6861 6.39723 14.25 7.08337 14.25ZM6.33337 10.25H12.3334C13.0195 10.25 13.5834 9.68614 13.5834 9C13.5834 8.31386 13.0195 7.75 12.3334 7.75H6.33337C5.64723 7.75 5.08337 8.31386 5.08337 9C5.08337 9.68614 5.64723 10.25 6.33337 10.25Z" fill="#5E9942" stroke="#5E9942"/>
<path d="M20.4506 3.87011L20.4506 3.87003L20.443 3.86258C20.01 3.43901 19.4503 3.14761 18.8434 3.04291V2.53956C19.6043 2.65323 20.2833 3.00522 20.8098 3.52356C21.4417 4.16544 21.8334 5.04039 21.8334 6V8.42C21.8334 9.10296 21.6194 9.61187 21.2823 9.94895C20.9452 10.286 20.4363 10.5 19.7534 10.5H16.8334V4.01C16.8334 3.35138 17.2552 2.79115 17.8434 2.58477V3.13303C17.5392 3.30742 17.3334 3.63552 17.3334 4.01V9.5V10H17.8334H19.7534C20.193 10 20.62 9.90137 20.9294 9.5898C21.2381 9.27893 21.3334 8.85284 21.3334 8.42V6C21.3334 5.20505 21.0192 4.45057 20.4506 3.87011Z" fill="#5E9942" stroke="#5E9942"/>
</svg>
