<svg width="24" height="24" viewBox="0 0 24 24" fill="none" xmlns="http://www.w3.org/2000/svg">
<path d="M21.49 7.80863V7.81V16.19C21.49 17.9106 20.9791 19.2238 20.0964 20.1064C19.2138 20.9891 17.9006 21.5 16.18 21.5H7.81C6.08945 21.5 4.77634 20.9891 3.89377 20.1054C3.01114 19.2217 2.5 17.9059 2.5 16.18V7.81C2.5 6.08944 3.01093 4.77618 3.89355 3.89355C4.77618 3.01093 6.08944 2.5 7.81 2.5H16.19C17.9107 2.5 19.2237 3.01097 20.105 3.89333C20.9861 4.77559 21.4947 6.08838 21.49 7.80863ZM8.42 4.25C7.73386 4.25 7.17 4.81386 7.17 5.5V9.4C7.17 10.0861 7.73386 10.65 8.42 10.65C9.10614 10.65 9.67 10.0861 9.67 9.4V5.5C9.67 4.81386 9.10614 4.25 8.42 4.25ZM9.67 16.9364C9.67044 16.935 9.67182 16.9317 9.67561 16.9265C9.68406 16.9148 9.70084 16.8993 9.72575 16.8882C10.8525 16.3879 11.65 15.2667 11.65 13.95C11.65 12.1627 10.195 10.72 8.42 10.72C6.64147 10.72 5.2 12.1762 5.2 13.95C5.2 15.264 5.98683 16.3864 7.11394 16.888C7.139 16.8991 7.15587 16.9147 7.16436 16.9264C7.16817 16.9317 7.16955 16.935 7.17 16.9364V18.5C7.17 19.1861 7.73386 19.75 8.42 19.75C9.10614 19.75 9.67 19.1861 9.67 18.5V16.9364ZM9.66983 16.9373C9.66979 16.9374 9.6698 16.9371 9.66997 16.9365L9.66983 16.9373ZM15.58 19.75C16.2661 19.75 16.83 19.1861 16.83 18.5V14.6C16.83 13.9139 16.2661 13.35 15.58 13.35C14.8939 13.35 14.33 13.9139 14.33 14.6V18.5C14.33 19.1861 14.8939 19.75 15.58 19.75ZM12.35 10.04C12.35 11.8273 13.805 13.27 15.58 13.27C17.3561 13.27 18.8 11.8261 18.8 10.05C18.8 8.73603 18.0132 7.61362 16.8861 7.11204C16.861 7.10089 16.8441 7.08534 16.8356 7.07356C16.8318 7.06828 16.8304 7.065 16.83 7.06355V5.5C16.83 4.81386 16.2661 4.25 15.58 4.25C14.8939 4.25 14.33 4.81386 14.33 5.5V7.05356C14.3296 7.05501 14.3282 7.05827 14.3244 7.06353C14.3159 7.07524 14.2992 7.0907 14.2743 7.10177C13.1475 7.60214 12.35 8.72326 12.35 10.04ZM16.8298 7.06268C16.8299 7.06273 16.8299 7.06299 16.83 7.06345L16.8298 7.06268ZM14.3302 7.0527C14.3302 7.05264 14.3302 7.0529 14.33 7.05347L14.3302 7.0527Z" fill="#5E9942" stroke="#5E9942"/>
</svg>
