<svg width="56" height="56" viewBox="0 0 56 56" fill="none" xmlns="http://www.w3.org/2000/svg">
<rect width="56" height="56" rx="28" fill="#F5F8FB"/>
<mask id="mask0_1931_16157" style="mask-type:luminance" maskUnits="userSpaceOnUse" x="6" y="6" width="44" height="37">
<path d="M50 6H6V42.52H50V6Z" fill="white"/>
</mask>
<g mask="url(#mask0_1931_16157)">
<path d="M28 48.5335C39.3403 48.5335 48.5333 39.3404 48.5333 28.0001C48.5333 16.6599 39.3403 7.4668 28 7.4668C16.6598 7.4668 7.46667 16.6599 7.46667 28.0001C7.46667 39.3404 16.6598 48.5335 28 48.5335Z" fill="#E1E7EC"/>
</g>
<path d="M28 31.3C32.6576 31.3 36.4333 27.5243 36.4333 22.8667C36.4333 18.2091 32.6576 14.4333 28 14.4333C23.3424 14.4333 19.5667 18.2091 19.5667 22.8667C19.5667 27.5243 23.3424 31.3 28 31.3Z" fill="white"/>
<mask id="mask1_1931_16157" style="mask-type:luminance" maskUnits="userSpaceOnUse" x="7" y="7" width="42" height="42">
<path d="M28 48.5335C39.3403 48.5335 48.5333 39.3404 48.5333 28.0001C48.5333 16.6599 39.3403 7.4668 28 7.4668C16.6598 7.4668 7.46667 16.6599 7.46667 28.0001C7.46667 39.3404 16.6598 48.5335 28 48.5335Z" fill="white"/>
</mask>
<g mask="url(#mask1_1931_16157)">
<path d="M28 61.3667C36.3027 61.3667 43.0333 54.6361 43.0333 46.3334C43.0333 38.0307 36.3027 31.3 28 31.3C19.6973 31.3 12.9667 38.0307 12.9667 46.3334C12.9667 54.6361 19.6973 61.3667 28 61.3667Z" fill="white"/>
</g>
</svg>
